SplineFontDB: 3.0
FontName: CoelacanthHeavy
FullName: CoelacanthHeavy
FamilyName: Coelacanth
Weight: Heavy

StartChar: a
Encoding: 97 97 0
Width: 413
VWidth: 1159
Flags: HMW
AnchorPoint: "Bottom" 203 -15 basechar 0
AnchorPoint: "Ogonek" 354 18 basechar 0
AnchorPoint: "Top" 201 465 basechar 0
LayerCount: 2
Fore
SplineSet
220 178 m 5
 214.050415039 178 208.952697753 178.22265625 203 178 c 5
 186.306640626 176.615234375 152.598283462 166.851008152 147 160 c 4
 134.131835938 144.252334222 135 128.5546875 135 110 c 7
 135 92.931640625 158.143554688 68 179 68 c 7
 194.224724265 68 208.567440258 76.3838641827 215 79 c 5
 214 87.7998046875 214 101.338867188 214 112 c 7
 214 134.686328126 219.80078125 158.2 220 178 c 5
230 410 m 7
 246.440836589 410 320.095670493 363.46290811 330 351 c 4
 338.08984375 340.8203125 339 317.428710938 339 304 c 7
 339 232.870524498 334 164.973696608 334 96 c 7
 334 84.818359375 336.557579435 71.1220301985 342 66 c 4
 352.0859375 56.5078125 364.909179688 56 370 56 c 7
 376.666581004 56 390.00051398 58.1428571429 400 61 c 5
 407 20 l 5
 354.152660473 5.06666666667 299.607421875 -8 267 -8 c 7
 251.75423177 -8 234.66126302 6.70031550481 216 55 c 5
 172.894893523 22.869140625 137.04359879 -8 90 -8 c 7
 52.015625 -8 25 26.21484375 25 68 c 7
 25 99.2082663143 32.1214606955 128.457795209 39 145 c 4
 43.1845703125 155.063476562 56.550952789 166.491044901 67 171 c 4
 151.824462891 208.302734375 172.891884252 195.291992188 224 220 c 5
 227 269 l 7
 227 307 208.000767305 322.86695278 200 330 c 4
 191.544921875 337.538085938 177.913085938 348 174 348 c 4
 163 342.5 l 7
 163 332.25390625 169.489790483 317.466721754 170 312 c 5
 60 265 l 5
 53.599609375 270.619140625 44 304.375 44 317.5 c 7
 44 328.939453125 52.1955625007 338.579851043 73.5 351 c 4
 153.58198002 397.686523438 212.989043289 410 230 410 c 7
EndSplineSet
Substitution2: "case-1" A
Substitution2: "pcap-1" a.pcap
Substitution2: "smcp-1" a.smcp
EndChar

StartChar: b
Encoding: 98 98 1
Width: 507
VWidth: 1159
Flags: HMW
AnchorPoint: "Bottom" 248 -15 basechar 0
AnchorPoint: "Top" 104 749 basechar 0
LayerCount: 2
Fore
SplineSet
187 340 m 1
 188 263 186 218 186 141 c 3
 186 127 193 109 202 97 c 0
 223 76 248 63 274 63 c 3
 329 63 361 99 361 150 c 3
 361 241 323 344 220 344 c 3
 206 344 190 341 187 340 c 1
-1 686 m 1
 68 696 115 724 201 759 c 1
 221 737 l 1
 215 717 204 686 201 667 c 0
 197 643 187 444 187 381 c 1
 223 394 258 406 306 406 c 3
 404 406 475 319 475 236 c 3
 475 103 333 -3 201 -3 c 3
 162 -3 152 7 137 7 c 3
 98 7 78 -5 70 -10 c 1
 56 3 l 1
 56 3 61 14 62 21 c 0
 68 49 75 62 76 145 c 0
 78 288 80 367 80 510 c 3
 80 584 74 597 70 608 c 0
 57 642 46 650 11 650 c 3
 7 650 -1 650 -3 650 c 1
 -1 686 l 1
EndSplineSet
Substitution2: "case-1" B
Substitution2: "pcap-1" b.pcap
Substitution2: "smcp-1" b.smcp
EndChar

StartChar: c
Encoding: 99 99 2
Width: 421
VWidth: 1159
Flags: HMW
AnchorPoint: "Bottom" 228 -15 basechar 0
AnchorPoint: "Top" 231 465 basechar 0
LayerCount: 2
Fore
SplineSet
297 273 m 5
 260.838627422 290.428229665 211.354509687 320 179 320 c 7
 156.943948954 320 146 313.828542504 146 267 c 7
 146 176.440298246 186.566246769 68 310 68 c 7
 333.810676259 68 353.958244604 75.5 368 83 c 5
 386 50 l 5
 350.444561151 21.5789529412 288.744892086 -10 226 -10 c 7
 177.989684211 -10 32 -7.54462012922 32 178 c 7
 32 305.824475114 164.858255814 413 271 413 c 7
 319 413 368.000131148 391.604210526 399 367 c 5
 397 313 407 337 297 273 c 5
EndSplineSet
Substitution2: "case-1" C
Substitution2: "pcap-1" c.pcap
Substitution2: "smcp-1" c.smcp
EndChar

StartChar: d
Encoding: 100 100 3
Width: 511
VWidth: 1159
Flags: HMW
AnchorPoint: "Bottom" 224 -15 basechar 0
AnchorPoint: "Top" 390 734 basechar 0
AnchorPoint: "TopRight" 503.5 581 basechar 0
LayerCount: 2
Fore
SplineSet
313 21 m 5
 277.767234268 13.8578887484 240.329044345 1 195 1 c 7
 95.000068212 1 32 82.1525877193 32 172 c 7
 32 250.288730769 88.1093844598 321.281659575 138 355 c 4
 182.137204089 384.82992406 236.136170543 399 265 399 c 7
 279.322993289 399 311.979013423 393.631351351 320 393 c 5
 320 498.942296774 315.611605738 539.323608944 302 580 c 4
 297.688406872 592.884596536 284.368421052 625 266 625 c 7
 257.512520202 625 247.113466702 625 244 626 c 5
 233 667 l 5
 313.227722772 681.512195122 381.366336634 702.243902439 455 752 c 5
 474 727 l 5
 462.8 713.538 452.007272702 687.491619569 450 677 c 4
 420.877875 524.784381139 425 350.964675835 425 185 c 7
 425 148.129779634 431 85 440 73 c 5
 442 67.6638470588 451.366 64 456 64 c 5
 471.414969436 62.5 490.811607391 61 501 60 c 5
 503 24 l 5
 429.673467835 6.39932680539 343.615629984 -18 329 -18 c 7
 325.324201476 -18 322.60056569 -14.4953331286 319 -12 c 4
 314.095264042 -8.60082576531 313 19.0586933478 313 21 c 5
209 339 m 7
 195.438892821 339 174.318856119 333.741923235 164 325 c 4
 145.428571429 309.266666667 138 285.803989519 138 266 c 7
 138 171.549416277 199.088993568 75 313 75 c 7
 314 86 l 5
 316 142.973850733 319 202.25746217 318 260 c 5
 318 319.64556962 270 327.000000001 228 336 c 4
 221.814758508 337.325408891 211.806249188 339 209 339 c 7
EndSplineSet
Substitution2: "case-1" D
Substitution2: "pcap-1" d.pcap
Substitution2: "smcp-1" d.smcp
EndChar

StartChar: e
Encoding: 101 101 4
Width: 409
VWidth: 1159
Flags: HMW
AnchorPoint: "Bottom" 213 -15 basechar 0
AnchorPoint: "Ogonek" 306.65 23 basechar 0
AnchorPoint: "Top" 217 465 basechar 0
LayerCount: 2
Fore
SplineSet
217 410 m 7
 297.361221499 410 340.360979018 357.789092141 357 333 c 4
 378.545803055 300.900701744 385.544191919 293.1875 394 292 c 5
 394 268 l 5
 318.723552375 257.585440875 226.620331815 239.638376168 154 221.5 c 5
 154 221.026493069 154 220.473506931 154 220 c 7
 154 110.9875 229.440701754 67 284 67 c 7
 318.746213836 67 342.088069182 81.6666774194 361 97 c 5
 388 62 l 5
 344.772314465 30.5440806452 283.017433962 -9 212 -9 c 7
 82.375067033 -9 29 88.4565738422 29 181 c 7
 29 330.003355667 158.572265821 410 217 410 c 7
183 350 m 7
 174.524884825 350 157.866666667 326.420246436 154 246.5 c 5
 255 264 l 4
 262 265.5 l 5
 251.1318621 302.849059077 218.297586847 350 183 350 c 7
EndSplineSet
Substitution2: "case-1" E
Substitution2: "pcap-1" e.pcap
Substitution2: "smcp-1" e.smcp
EndChar

StartChar: f
Encoding: 102 102 5
Width: 357
VWidth: 1159
Flags: HMW
AnchorPoint: "Bottom" 156 -15 basechar 0
AnchorPoint: "Top" 262 748 basechar 0
LayerCount: 2
Fore
SplineSet
398 755 m 7
 414.607476636 755 470 749 497 725 c 5
 495 685 474 674.16796875 398 622 c 5
 377.438476562 635.142578125 333.814814815 669 298 669 c 7
 158.790094965 669 240.620507678 567.024780335 237 503 c 4
 235.627908318 479.127390104 231 434.386138614 229 393 c 5
 272.390728476 397 311.609271524 397 355 401 c 5
 355 333 l 5
 311.210526316 337 270.789473684 339 227 343 c 5
 225 317.477611941 225 294.754097591 225 286 c 7
 225 212.577405858 229.928183619 144.162780189 237 72 c 4
 238.971141164 51.8859276216 251.041721529 41.7636604292 272 40 c 4
 297.464423865 38 321.315068494 38 347 38 c 5
 345 -7 l 5
 287.25 -2 204.75 0 147 0 c 7
 108.509433962 0 49.4905660377 -3 11 -7 c 5
 10 38 l 5
 19.1666666667 38 29.1725006376 40.0255207412 40 41 c 4
 81.7945679672 45.2583333333 87.3770888661 61.96952818 93 99 c 4
 100.806002588 144.40998264 107 202.783783784 107 259 c 7
 107 276.745406871 105 309.936170213 105 343 c 5
 76.6216216218 341 49.3783783784 335 21 333 c 5
 21 401 l 5
 49.3783783784 399 76.6216216218 395 105 393 c 5
 105 435.65625 105 484.875 105 498 c 7
 105 603.952606635 156.983557145 654.774877978 244 705 c 4
 299.501542102 736.806178316 330.696296296 755 398 755 c 7
EndSplineSet
Substitution2: "salt-1" f.alt
Substitution2: "case-1" F
Substitution2: "pcap-1" f.pcap
Substitution2: "smcp-1" f.smcp
EndChar

StartChar: g
Encoding: 103 103 6
Width: 475
VWidth: 1159
Flags: HMW
AnchorPoint: "Bottom" 225 -318 basechar 0
AnchorPoint: "Top" 224 465 basechar 0
LayerCount: 2
Fore
SplineSet
189 18 m 7
 189 4.165625 200.627969604 -1 211 -1 c 7
 242 -1 270.908965344 11 300 11 c 7
 395.000323077 11 442 -45.8992581818 442 -94 c 7
 442 -246.376785184 288.505890566 -329 165 -329 c 7
 72.1322170213 -329 12 -273.205300219 12 -233 c 7
 12 -140.639705882 90.721442623 -84.5220588235 104 -74 c 5
 82.575 -56.6714474845 60.45456625 -25.4878447815 55 4 c 5
 86 30 150.937186942 48.6518518519 172 60 c 5
 86.7872340426 73.8323353293 37 136.00036832 37 225 c 7
 37 350.042076923 189.028068182 407 225 407 c 7
 265.805782178 407 300.565079208 393.315789474 338 367 c 5
 368.278235294 371 395.380682265 379 430 379 c 7
 443.5 379 460.6 376 466 372 c 5
 438 277 l 5
 415.287898781 290 380.885245902 308.058823529 371 310 c 4
 368 310 l 5
 378.555779591 286.169885496 387 239.934465649 387 230 c 7
 387 132.405023256 285.248972114 90.5944155813 227 58 c 4
 190.588688387 37.6252984473 189 28.8729598818 189 18 c 7
167 349 m 7
 156.522022727 349 147 321.741153846 147 287 c 7
 147 178.757144035 212 110 244 99 c 5
 256.682146207 111.292917548 263 138.477378435 263 184 c 7
 263 267.025235179 230.56448 349 167 349 c 7
80 -179 m 7
 80 -215.615536273 177.148106383 -221 235 -221 c 7
 259.112615094 -221 374 -212.359169231 374 -140 c 7
 374 -118.390500551 346.410430769 -105 302 -105 c 7
 275.318 -105 247.682 -115 221 -115 c 7
 190.577169231 -115 159.028061538 -111.6667 141 -105 c 5
 87.4252639344 -126.142939021 80 -140.644058823 80 -179 c 7
EndSplineSet
Substitution2: "case-1" G
Substitution2: "pcap-1" g.pcap
Substitution2: "smcp-1" g.smcp
EndChar

StartChar: h
Encoding: 104 104 7
Width: 531
VWidth: 1159
Flags: HMW
LayerCount: 2
Fore
SplineSet
191 328 m 1
 189.5 289.037878788 186 235.448649643 186 189 c 3
 186 139.624669725 192.384322418 94.5728212209 197 76 c 0
 203.276180135 50.7455558721 218.000819557 41.023930354 226 38 c 0
 230.621862921 36.2527970611 245.894736842 36 253 36 c 1
 250 -8 l 1
 203.27027027 -2.07663917805 171.454757024 3 117 3 c 3
 86.0625 3 48.9375 -2 18 -6 c 1
 16 31 l 1
 19.5357142857 31.8 19.2294118933 30.9191426057 25 33 c 0
 47.4958365581 44.7623037924 56.1262707078 58.7526625975 65 103 c 0
 74.0209727936 147.981542005 80 217.863636364 80 274 c 3
 80 480.704123476 75.3175358103 562.602409048 74 581 c 0
 71.849423678 614.032852308 60.3333333334 643 34 643 c 3
 28.4285714286 643 23.0857142857 643 16 642 c 1
 8 683 l 1
 77.1096774193 694.301369863 156.851612903 725.068493151 214 758 c 1
 233 738 l 1
 227.857142857 726.153846154 222.46555301 703.101421 221 694 c 0
 199.888888889 562.895148278 192.111111111 474.658682635 191 361 c 1
 247.763313609 398.82 327.01775148 422 372 422 c 3
 427.473684211 422 467.449596054 385.21544188 468 301 c 0
 468.132753405 280.687851542 469 234.695238095 469 183 c 3
 469 133.953488372 468 86.6279069767 468 72 c 0
 468 50.1818181818 484.929724432 41.9700573192 493 40 c 0
 497.386413055 38.6183491112 517.260869565 37 524 37 c 1
 522 -8 l 1
 477.897196262 1 448.495327103 3 401 3 c 3
 365 3 330.2 -2 299 -8 c 1
 300 34 l 1
 311.37037037 33.8 317.045954135 33.8432599087 323 36 c 0
 342.107254017 42.9212400621 350.820631512 65.623978839 357 114 c 0
 357.983008101 121.695611744 359 135.752403121 359 142 c 3
 359 186.6875 356.489166668 247.899224439 352 272 c 0
 343.558991558 317.316840524 334.209302326 348 286 348 c 3
 224.580838902 348 207.351706037 335 191 328 c 1
EndSplineSet
Substitution2: "case-1" H
Substitution2: "pcap-1" h.pcap
Substitution2: "smcp-1" h.smcp
EndChar

StartChar: k
Encoding: 107 107 10
Width: 486
VWidth: 1159
Flags: HMW
LayerCount: 2
Fore
SplineSet
183 259 m 1
 198.24137931 271.637362637 223.348082269 288.589576372 235 305 c 0
 240.107570337 312.193441875 245 328.703703704 245 337 c 3
 245 361.419504644 238.711589113 361.574303406 215 362 c 1
 217 401 l 1
 251.568181818 399 298.102272727 399 334 399 c 3
 370.972222222 399 419.148148148 397 455 403 c 1
 457 363 l 1
 409.253731343 353.961538462 322.564443415 306.646145937 281 281 c 2
 234 252 l 1
 297.037383178 191.704433498 361.697929104 133.18226601 424 72 c 1
 434 60 493.579532814 32.9320175439 480 37 c 1
 478 -7 l 1
 437.489361702 -1 416.042553191 3 366 3 c 3
 332.739130435 3 297.260869565 -4 264 -6 c 1
 261 36 l 1
 283.212765957 39.75 283.212765957 44.1 290 45 c 1
 254.355004497 89.2087912088 195.276243094 155.510763209 155 194 c 1
 187 216 l 1
 187 150.55 187.283727749 85.4325445027 199 62 c 0
 203 54 217.620479645 43.3831099005 220 41 c 0
 225.566528821 35.4250739792 231.764705882 35 240 35 c 1
 237 -10 l 1
 195.842105263 -2.90909090909 172.842105263 3 122 3 c 3
 86.6875 3 44.3125 -4 9 -6 c 1
 7 36 l 1
 15.25 35.6 21.4542546854 34.6138223929 31 39 c 0
 56.8599870717 50.8824138372 61.7325652961 65.898561723 70 114 c 0
 77.2222222222 156.02020202 83 221.483915541 83 274 c 3
 83 508.886363636 77.5411757525 562.933274796 75 592 c 0
 73.0416666667 614.4 61.2916666667 634 28 634 c 3
 25.9512195122 634 13.4146341463 634.78021978 14 635 c 1
 6 677 l 1
 76.5714285714 688.602739726 156.642857143 720.136986301 215 754 c 1
 236 734 l 1
 230.857142857 722.692307692 226.285980326 700.742393932 224 692 c 0
 204.476190476 619.672605791 183 378.581291759 183 259 c 1
EndSplineSet
Substitution2: "case-1" K
Substitution2: "pcap-1" k.pcap
Substitution2: "smcp-1" k.smcp
EndChar

StartChar: l
Encoding: 108 108 11
Width: 248
VWidth: 1159
Flags: HMW
AnchorPoint: "Bottom" 119 -15 basechar 0
AnchorPoint: "TopRight" 242 581 basechar 0
AnchorPoint: "Top" 121 734 basechar 0
LayerCount: 2
Back
SplineSet
160 300 m 3
 160 218 160 91 166 54 c 0
 168 39 187 35 198 33 c 0
 214 29 232 28 246 27 c 1
 241 -7 l 1
 202 -1 158 4 116 4 c 3
 86 4 40 -1 10 -5 c 1
 8 28 l 1
 19 29 34 31 45 33 c 0
 68 39 81 48 83 76 c 0
 88 128 91 209 91 274 c 3
 91 527 90 603 88 626 c 0
 87 642 81 656 64 656 c 3
 58 656 32 650 22 649 c 1
 14 681 l 1
 66 692 126 720 169 754 c 1
 188 738 l 1
 182 724 176 697 175 686 c 0
 165 611 160 424 160 300 c 3
EndSplineSet
Fore
SplineSet
182 300 m 7
 182 221 192.580527916 90.4574591392 202 63 c 4
 205.944076153 51.5031444585 220.740812117 39.4197292945 222 39 c 4
 228 37 240 37 246 37 c 5
 240 -7 l 5
 198.504 -1 146.259428571 4 107 4 c 7
 70.7631803916 4 36.0188679245 -1 8 -5 c 5
 6 37 l 5
 13.7297297297 36.2 26.8220186587 36.8192984625 32 43 c 4
 39.9787234043 52.5238095238 52.185945541 71.5534822777 57 103 c 4
 63.875 147.909090909 68 217.863636364 68 274 c 7
 68 506.15625 65.8168021209 575.716484465 64 597 c 4
 63.2507970226 605.77678038 52.3333333333 639 24 639 c 7
 17.6965140123 639 11.04 639.5 6 640 c 5
 4 682 l 5
 72.1032258065 692.849315068 150.683870968 720.465753425 207 754 c 5
 226 737 l 5
 225.230769231 728.803571429 216.48519929 695.196872374 214 686 c 4
 193.733333333 611 182 424 182 300 c 7
EndSplineSet
Substitution2: "case-1" L
Substitution2: "pcap-1" l.pcap
Substitution2: "smcp-1" l.smcp
EndChar

StartChar: m
Encoding: 109 109 12
Width: 791
VWidth: 1159
Flags: HMW
AnchorPoint: "Bottom" 390 -15 basechar 0
AnchorPoint: "Top" 407 465 basechar 0
LayerCount: 2
Fore
SplineSet
712 152 m 3
 712 114.76635514 714.689061112 80.1544999962 718 69 c 0
 723 52.1550802139 745.070565015 43.611791984 754 39 c 0
 758.2031023 36.8292206027 773.897959184 36 779 34 c 1
 773 -10 l 1
 737.611111111 -1 713.111111111 1 675 1 c 3
 633.829787234 1 581.680851064 -4 546 -10 c 1
 542 32 l 1
 549.21875 33.2 558.581206099 34.0069365955 563 35 c 0
 569.679347052 36.5010917621 583.860822751 45.1685829724 586 54 c 0
 590.840780357 73.9847628734 602 142.70447761 602 192 c 3
 602 226.126568538 602.28410352 261.814178786 593 286 c 0
 583.368741208 311.090188053 574.739130435 330 533 330 c 3
 531.279163582 330 487.114285714 319.423076925 467 305 c 1
 468 301.652173913 468 298.24820153 468 294 c 3
 468 266.97361453 462 215.142857143 462 174 c 3
 462 129.23255814 465.238031003 82.5587568949 468 69 c 0
 471 54.2727272727 493.323684481 36.8370321434 501 35 c 0
 504.51757504 34.158203125 511.714285714 33 516 33 c 1
 511 -10 l 1
 467.073684211 -1 451.305263158 1 404 1 c 3
 369.102040816 1 320.244897959 -4 290 -10 c 1
 287 33 l 1
 295.243243243 33 298.801301644 34.5261054802 308 38 c 0
 319.180232558 42.2222222222 340.10159835 60.7066568211 343 76 c 0
 348.25 103.701492537 352 144.029850746 352 192 c 3
 352 226.375 349.168333483 262.395051295 341 292 c 0
 335.184452699 313.077613923 314.231092437 335 296 335 c 3
 273.2 335 243.8 316.246914185 224 300 c 1
 217.888888889 226.758461206 210 119.064377683 210 86 c 3
 210 56.6384615385 237 39.9999999998 255 36 c 0
 257.98702284 35.3362171467 261.631578947 35.2 264 35 c 1
 261 -10 l 1
 227.081081082 -6 183.297297297 1 136 1 c 3
 100.6875 1 58.3125 -4 23 -8 c 1
 21 35 l 1
 31.6071428572 37.4 37.3748692311 37.2489453883 48 41 c 0
 60.97155865 45.579428334 80.3465904632 58.4191989391 86 74 c 0
 95.8823529412 101.235772358 98 159.843013262 98 190 c 3
 98 205.929574244 94.553474094 259.93805986 87 277 c 0
 75.5479418508 302.868140698 58.5749472203 306 43 306 c 3
 32.9405594406 306 26.5874708624 306 24 306 c 1
 27 350 l 1
 81.9032258064 359.019230769 136.806451613 364.173076923 211 417 c 1
 231 394 l 1
 226.333333333 379.549295773 227.333333333 358.676056338 225 337 c 1
 271.086956522 371.542857143 315.000000001 415 365 415 c 3
 421.989247311 415 457.565284178 375.925373135 465 338 c 1
 500.122807017 365.076923076 551.456140351 402 619 402 c 3
 687.897196262 402 716 363.594827586 716 303 c 3
 716 256.861111111 712 203.731481481 712 152 c 3
EndSplineSet
Substitution2: "case-1" M
Substitution2: "pcap-1" m.pcap
Substitution2: "smcp-1" m.smcp
EndChar

StartChar: n
Encoding: 110 110 13
Width: 526
VWidth: 1159
Flags: HMW
AnchorPoint: "Bottom" 269 -15 basechar 0
AnchorPoint: "Top" 272 465 basechar 0
LayerCount: 2
Fore
SplineSet
85 275 m 0
 75.4091796875 312.931640625 68.8681640625 317 48 317 c 3
 40.591796875 317 35 317 26 317 c 1
 26 358 l 1
 79.7099609375 365.942382812 133.418945312 370.48046875 206 417 c 1
 226 397 l 1
 223.638671875 381.7890625 221.694335938 366.231445312 216 337 c 1
 258.994069343 367.006835938 305.570283987 416 362 416 c 3
 418.915570854 416 454 377.114257812 454 301 c 3
 454 253.229075612 450 201.114018794 450 149 c 3
 450 114.092773438 451.923357344 80.9326859683 454 70 c 0
 458 48.9416133996 482.102107519 39.4264401147 483 39 c 0
 488.590820312 36.3447265625 503.415039062 37.7998046875 510 37 c 1
 509 -9 l 1
 464.647460938 -0.818033854167 440.764648438 1 393 1 c 3
 360.576171875 1 314.100585938 -3.54508463542 286 -9 c 1
 288 35 l 1
 292.052734375 35.400390625 297.395033268 34.8285721042 302 36 c 0
 312.749023438 38.734375 331.714461662 47.2510376288 334 68 c 0
 336.622070312 91.8041240986 338 139.987079327 338 175 c 3
 338 206.625 334.120177737 255.186573203 332 267 c 0
 326.010301777 300.374023438 314.987917432 328 279 328 c 3
 250.72265625 328 228.20703125 314.837890625 212 312 c 1
 202.861328125 232.253499349 205 121.13289388 205 87 c 3
 205 56.2388102214 223.605356418 45.1028513449 234 41 c 0
 239.388671875 38.873046875 248.737304688 37.7998046875 254 37 c 1
 252 -8 l 1
 209.486328125 -3.09090909091 176.784179688 1 131 1 c 3
 97.5625 1 57.4375 -2.88888888889 24 -6 c 1
 24 36 l 1
 34.607421875 38 40.6800601354 37.5255523051 51 41 c 0
 63.61328125 45.2465543927 81.9817814759 61.7100509315 86 92 c 0
 89.4169921875 117.7578125 92 164.50390625 92 190 c 3
 92 205.596731086 90.9591671618 251.431527248 85 275 c 0
EndSplineSet
Substitution2: "case-1" N
Substitution2: "pcap-1" n.pcap
Substitution2: "smcp-1" n.smcp
EndChar

StartChar: o
Encoding: 111 111 14
Width: 505
VWidth: 1159
Flags: HW
AnchorPoint: "Middle" 256 206 basechar 0
AnchorPoint: "Bottom" 250 -15 basechar 0
AnchorPoint: "Ogonek" 342 19.6582 basechar 0
AnchorPoint: "Horn" 421.5 341.8 basechar 0
AnchorPoint: "Top" 252 465 basechar 0
LayerCount: 2
Fore
SplineSet
257 416 m 7
 392 416 473 311.028037383 473 208 c 7
 473 79.2361707516 378.566986895 -11 255 -11 c 7
 130.558486523 -11 32 67.4 32 185 c 7
 32 346.186305164 167 416 257 416 c 7
218 359 m 7
 187.098152958 359 160 315.180598516 160 253 c 7
 160 156.297695896 217.998013903 43 280 43 c 7
 322.26124878 43 347 99.5882030956 347 160 c 7
 347 299.918397959 255.596212885 359 218 359 c 7
EndSplineSet
Substitution2: "case-1" O
Substitution2: "pcap-1" o.pcap
Substitution2: "smcp-1" o.smcp
EndChar

StartChar: p
Encoding: 112 112 15
Width: 513
VWidth: 1159
Flags: HMW
AnchorPoint: "Bottom" 286 -15 basechar 0
AnchorPoint: "Top" 251 465 basechar 0
LayerCount: 2
Fore
SplineSet
95 22 m 7
 95 120.713558482 85 217.816 79 234 c 5
 70.1111111111 268.417218015 46.550215012 284 23 284 c 7
 15.9770491803 284 11.6941176471 284 5 284 c 5
 0 332 l 5
 46.794104232 340.479261538 118.882388715 370.760369231 172 418 c 5
 197.75 417.434404969 196 412.521774535 199 355 c 5
 231.319744745 377.34025 276.418243243 405 314 405 c 7
 410.999652174 405 487 305.102708927 487 215 c 7
 487 75.8990302232 366.999946667 -13 250 -13 c 7
 234.67813986 -13 219.851153846 -11.411806383 207 -16 c 5
 207 -88.7010138728 206.615918975 -241.325986601 217 -274 c 4
 221 -286.586193548 241.699651126 -294.388714569 249 -295 c 4
 269.329654104 -296.702277738 296.1424 -299 315 -301 c 5
 315 -345 l 5
 256.723 -344 219.206518983 -342 162 -342 c 7
 119.7777 -342 52.2223 -347 10 -351 c 5
 8 -310 l 5
 20.8333333333 -310 31.3068755421 -309.262296671 43 -305 c 4
 59.8261 -298.866666667 70.9866346685 -276.426981932 77 -248 c 4
 87 -200.727 95 -117.091 95 22 c 7
226 335 m 7
 197.368913043 335 196.371884058 324.4045 199 313 c 5
 207 81 l 5
 235.562550944 50.3636960486 267.587924057 45 310 45 c 7
 372.85184 45 379 81.5179971495 379 139 c 7
 379 247.206169062 318.205751553 335 226 335 c 7
EndSplineSet
Substitution2: "case-1" P
Substitution2: "pcap-1" p.pcap
Substitution2: "smcp-1" p.smcp
EndChar

StartChar: q
Encoding: 113 113 16
Width: 491
VWidth: 1159
Flags: HMW
AnchorPoint: "Bottom" 218 -15 basechar 0
AnchorPoint: "Top" 272 465 basechar 0
LayerCount: 2
Fore
SplineSet
309 72 m 5
 310.777777778 137.378723405 313 174.335929766 313 239 c 7
 313 247.48275862 310.291289595 266.187811564 303 280 c 4
 277.972119566 327.411338721 228.719298246 337 187 337 c 7
 165.642335767 337 149 295.2 149 249 c 7
 149 154.524861878 181.524309163 59 296 59 c 7
 304.883578431 59 306.399101307 60.7440381558 309 72 c 5
307 20 m 5
 284.770833333 10.8 250.416666667 -3 210 -3 c 7
 105 -3 25 91.9052631579 25 181 c 7
 25 300.243697479 144 401 285 401 c 7
 356.662962963 401 360.696296296 374 385 374 c 7
 402.552213868 374 420.894736842 400.25 429 409 c 5
 462 386 l 5
 459.272727273 380.947368421 455.839106127 377.399025864 452 370 c 4
 442.496551724 351.684210526 436.909655597 331.04931833 426 254 c 4
 422.714997278 230.799705712 425 132.086705202 425 93 c 7
 425 -109.63583815 433.150055652 -187.523020652 443 -220 c 4
 451.327863529 -247.458414211 468.504381954 -276.439345874 485 -277 c 4
 495.106592137 -277.343503503 517 -281 524 -281 c 5
 522 -329 l 5
 491.565656566 -328 446.575757576 -327 391 -327 c 7
 349.42519685 -327 256.57480315 -332 215 -336 c 5
 214 -296 l 5
 223.862068966 -295.25 230.206853798 -294.583193303 240 -293 c 4
 263.638180272 -289.178571429 291.76084795 -256.699233315 299 -227 c 4
 305.61719231 -199.852409102 307 -80.1818181818 307 20 c 5
EndSplineSet
Substitution2: "case-1" Q
Substitution2: "pcap-1" q.pcap
Substitution2: "smcp-1" q.smcp
EndChar

StartChar: r
Encoding: 114 114 17
Width: 358
VWidth: 1159
Flags: HMW
AnchorPoint: "Bottom" 145 -15 basechar 0
AnchorPoint: "Top" 165.5 465 basechar 0
LayerCount: 2
Fore
SplineSet
197 181 m 4
 198.210526316 150.395833333 207.46724887 82.3464586528 220 68 c 4
 239.960846803 46.0524258672 261.063738534 40.4296060354 296 38 c 4
 306.184912475 37.2625926503 317.958333333 38 327 37 c 5
 325 -3 l 5
 271.725490196 -2 173.37254902 1 116 1 c 7
 81.3333333333 1 46.6666666667 -4 12 -8 c 5
 12 34 l 5
 25.75 34.7142857143 40.7330868313 35.5962151072 52 41 c 4
 63.2068965517 46 72.3344108398 69.2059684514 77 92 c 4
 81 111.542253521 83 182.762506577 83 203 c 7
 83 214.807228915 82.8359356594 234.086194276 78 252 c 4
 72.715855573 272.908708438 58.1051439261 296 34 296 c 7
 21.5028456206 296 21 296 11 296 c 5
 9 340 l 5
 60.5757575758 347.363636364 134.454545455 379.974025974 193 421 c 5
 201.888888889 415.869230769 213 414.1 213 398 c 7
 213 386.728395062 208 353.938271605 204 315 c 5
 237.882352941 343 294 388 294 402 c 5
 312.054545454 401 357 363.763636364 357 321 c 7
 357 259 322 224 244 224 c 5
 235.842975206 271.672727273 214.624713032 276 209 276 c 7
 205.299769551 276 203.119727345 271.02705867 203 270 c 4
 199 235.686746988 196.382961409 196.599786333 197 181 c 4
EndSplineSet
Substitution2: "case-1" R
Substitution2: "pcap-1" r.pcap
Substitution2: "smcp-1" r.smcp
EndChar

StartChar: s
Encoding: 115 115 18
Width: 352
VWidth: 1159
Flags: HMW
AnchorPoint: "Bottom" 164 -15 basechar 0
AnchorPoint: "Top" 182.5 465 basechar 0
LayerCount: 2
Fore
SplineSet
51 142 m 5
 86.239171875 61.8382753314 167.956640625 37 180 37 c 7
 204.97265625 37 216 49.4365234375 216 73 c 7
 216 122.000069755 168.55859375 142.234793527 140 163 c 4
 102.635094803 187.90519634 47 205.830643503 47 280 c 7
 47 339.224385246 116.888888889 408 195 408 c 7
 229.755838816 408 261.351778372 403 294 398 c 5
 294 398 303.846679688 329.355902778 310 284 c 5
 294 276 l 5
 249.49122807 307.289473684 215.031095805 358 176 358 c 7
 158.36328125 358 150 350.575195312 150 332 c 7
 150 313.838120404 159.588867188 289.230454389 228 255 c 4
 297.050951087 225.758789062 324 176.811523438 324 125 c 7
 324 39.5659813335 232.843424479 -12 155 -12 c 7
 108.642319378 -12 70.2995960203 -3.6396484375 34 7 c 5
 36 21 37 35.0400390625 37 50 c 7
 37 68.1022096197 34.4287109375 120.89779038 28 139 c 5
 51 142 l 5
EndSplineSet
Substitution2: "case-1" S
Substitution2: "pcap-1" s.pcap
Substitution2: "smcp-1" s.smcp
EndChar

StartChar: t
Encoding: 116 116 19
Width: 341
VWidth: 1159
Flags: HMW
AnchorPoint: "Bottom" 183 -15 basechar 0
AnchorPoint: "TopRight" 313 531 basechar 0
AnchorPoint: "Top" 143.5 508 basechar 0
LayerCount: 2
Fore
SplineSet
0 356 m 5
 54.3037109375 410.400390625 134.377929688 470.240234375 185 492 c 5
 207 486 l 5
 200.666992188 455.89453125 202.333007812 430.420898438 200 398 c 5
 239.622070312 402 286.377929688 400 326 404 c 5
 318 334 l 5
 279.075195312 334 233.924804688 338 195 340 c 5
 189.8125 286.724098696 194 239.816603354 194 111 c 7
 194 86.85546875 201.1796875 62 258 62 c 7
 283.529296875 62 293.1015625 67.0078125 320 76 c 5
 320 76 319 70 329 50 c 5
 289.8125 23.2138671875 223.8125 -10 164 -10 c 7
 144 -10 72 -0.560546875 72 91 c 7
 72 186.000314486 76.6666666667 244.899732687 79 338 c 5
 79 338 34.1757104846 332 6 332 c 5
 0 356 l 5
EndSplineSet
Substitution2: "case-1" T
Substitution2: "pcap-1" t.pcap
Substitution2: "smcp-1" t.smcp
EndChar

StartChar: u
Encoding: 117 117 20
Width: 506
VWidth: 1159
Flags: HMW
AnchorPoint: "Bottom" 255 -15 basechar 0
AnchorPoint: "Ogonek" 391.65 -3 basechar 0
AnchorPoint: "Horn" 434.5 333 basechar 0
AnchorPoint: "Top" 264 465 basechar 0
LayerCount: 2
Fore
SplineSet
247 368 m 5
 320.631225925 379.176470588 397.039966238 393.705882353 454 406 c 5
 459 388 l 5
 433.545333333 342.768 419 170.064 419 131 c 7
 419 112.927710844 422.243841998 90.338655064 425 81 c 4
 427.330740438 73.1027818517 432.961379693 67 448 67 c 7
 451.92 67 479.4 70 497 74 c 5
 495 32 l 5
 442.752594886 22.7362602122 376.839519609 -2.24398458232 331 -13 c 4
 323.498618875 -14.7601617932 323.5 -14 316 -14 c 7
 305.182105263 -14 307.182105263 7.10810810811 302 57 c 5
 272.646556962 41.5714285714 217.522987342 -11 176 -11 c 7
 136.76145 -11 96.6683008573 5.7141943063 81 46 c 4
 72.0625 68.9797979798 68 92.8787878788 68 137 c 7
 68 182.887573965 71 257.549618321 71 278 c 4
 71 285.333333333 63.0997512422 300 43 300 c 7
 24 300 11.999991453 300 6 300 c 5
 -1 339 l 5
 45.4378361278 339.555992844 144.62041149 391.216456908 209 423 c 5
 221 400 l 5
 200.285651515 330.305934067 192 248.663472527 192 172 c 7
 192 120.751866944 205.875734929 76 254 76 c 7
 280.122096054 76 288.958655995 86.8958181818 301 97 c 5
 303 173.42782258 314 252.319010887 314 262 c 7
 314 310.268184615 293.262626263 324 249 328 c 5
 247 368 l 5
EndSplineSet
Substitution2: "case-1" U
Substitution2: "pcap-1" u.pcap
Substitution2: "smcp-1" u.smcp
EndChar

StartChar: v
Encoding: 118 118 21
Width: 418
VWidth: 1159
Flags: HMW
AnchorPoint: "Bottom" 193 -15 basechar 0
AnchorPoint: "Top" 210 465 basechar 0
LayerCount: 2
Back
SplineSet
419 384 m 5
 380 363 380.655877163 362.688812804 360 320 c 4
 330 258 304 195 273 133 c 4
 251 89 224 38 210 -20 c 5
 179 -20 l 5
 151 109 98 244 55 344 c 4
 50.5834554826 354.271033761 44.9141031266 364.57464375 34 367 c 4
 25 369 13 374 3 376 c 5
 6 405 l 5
 29 401 65 400 88 400 c 7
 122 400 171 405 203 411 c 5
 208 379 l 5
 192 374 153 370 153 370 c 4
 146 369 142 368 142 359 c 7
 142 358 144.15024537 348.027714895 145 343 c 4
 157 272 199 169 224 100 c 5
 260 169 294.236241979 240.326846926 317 320 c 4
 319 327 322 333 322 342 c 7
 322 364 313 371 264 381 c 5
 272 412 l 5
 303 405 317 404 335 404 c 7
 360 404 390 409 411 415 c 5
 419 384 l 5
EndSplineSet
Fore
SplineSet
419 376 m 1
 383 344.421875 387.218040203 345.470854839 360 295 c 0
 331.034482759 241.288770053 308.249299262 188.422136105 276 133 c 0
 251.240904207 90.450176956 219.555555556 38 215 -20 c 1
 170 -20 l 1
 148.944 105.456043956 92.3263851639 236.084649165 46 334 c 0
 41.244302227 344.051632871 31.7015035505 352.568334498 26 357 c 0
 19.3467563245 362.171434203 10.4193548387 367.111111111 3 370 c 1
 6 405 l 1
 35.4512195122 401 81.5487804878 400 111 400 c 3
 144.113043478 400 191.834782609 405 223 411 c 1
 228 371 l 1
 221.890909091 366.555555556 207 363 207 363 c 2
 195.730693069 358.706930693 193 342.323731326 193 330 c 3
 193 311.651982446 198.008073665 292.462524701 203.797466458 272.00000189 c 0
 213.977661327 236.018254373 233.580993393 198.754211892 249 171 c 1
 276.348714488 209.051378737 283.549711209 223.482129404 299.682617188 276 c 0
 303.839018162 289.530440754 308 307.375297256 308 322 c 3
 308 340.769230769 294.396551724 366.923076923 259 373 c 1
 267 412 l 1
 295.53968254 405 308.428571429 404 325 404 c 3
 353.289473684 404 387.236842105 409 411 415 c 1
 419 376 l 1
EndSplineSet
Substitution2: "case-1" V
Substitution2: "pcap-1" v.pcap
Substitution2: "smcp-1" v.smcp
EndChar

StartChar: w
Encoding: 119 119 22
Width: 657
VWidth: 1159
Flags: HMW
AnchorPoint: "Bottom" 294 -15 basechar 0
AnchorPoint: "Top" 323 465 basechar 0
LayerCount: 2
Back
SplineSet
659 384 m 5
 620 363 619.655877163 362.688812804 599 320 c 4
 569 258 528 195 497 133 c 4
 475 89 449 38 435 -20 c 5
 404 -20 l 5
 383 81 353 187 321 276 c 5
 299 228 277.803361107 180.606722214 254 133 c 4
 232 89 205 38 191 -20 c 5
 155 -20 l 5
 146 98 96 244 53 344 c 4
 48.5834554826 354.271033761 42.9141031266 364.57464375 32 367 c 4
 23 369 12 374 2 376 c 5
 5 405 l 5
 28 401 64 400 87 400 c 7
 121 400 159 402 191 408 c 5
 195 376 l 5
 179 371 152 370 152 370 c 4
 145 369 141 368 141 359 c 7
 141 358 142.15024537 348.027714895 143 343 c 4
 155 272 183 183 208 114 c 5
 242 180 270 236 308 310 c 5
 303 321 299 334 294 344 c 4
 289 354 284.914103127 364.57464375 274 367 c 4
 265 369 252 374 242 376 c 5
 245 405 l 5
 268 401 303 400 326 400 c 7
 360 400 409 405 441 411 c 5
 446 379 l 5
 430 374 393 370 393 370 c 4
 386 369 381 368 381 359 c 7
 381 358 382.15024537 348.027714895 383 343 c 4
 395 272 422 169 447 100 c 5
 483 169 522 241 556 320 c 4
 559.187188766 327.405526839 561 333 561 342 c 7
 561 364 551 371 502 381 c 5
 510 412 l 5
 541 405 557 404 575 404 c 7
 600 404 628 409 649 415 c 5
 659 384 l 5
EndSplineSet
Fore
SplineSet
659 377 m 1
 606.35 345.46875 605.374041539 347.18409229 578 287 c 0
 555.349404503 237.20079414 522.925884451 184.50518089 501 133 c 0
 482.120794933 88.6516466089 456.05734767 38 454 -20 c 1
 413 -20 l 1
 396.475903614 77.9290540541 362.655765921 180.706081081 322 267 c 1
 296.71641791 219.671328671 273.373419678 175.794588822 245 126 c 0
 222.150751199 85.9001825718 191 36.3464052288 191 -20 c 1
 141 -20 l 1
 148.411764706 97.6758241758 96.4218258937 247.324292261 55 343 c 0
 51.2869765013 351.576303517 46.2095464797 353.836538342 32 361 c 0
 23.5315352905 365.269208897 12 370.206349206 2 371 c 1
 5 405 l 1
 38.6585365854 401 91.3414634146 400 125 400 c 3
 156.057692308 400 190.769230769 401.5 220 406 c 1
 224 366 l 1
 221.023255814 363.5 219.244820104 363.32448241 216 363 c 0
 204.59334306 361.859332903 198 345.112778445 198 328 c 3
 198 309.839304011 200.673118531 292.026618102 204.394984936 273.000001619 c 0
 210.221383436 243.214770862 222.938574258 214.199545068 238 192 c 1
 265.04 232.408163265 290 270 294 312 c 1
 290.071428571 317.5 286.007563626 324.505125453 283 329 c 0
 278.109296795 336.309270921 269.39414343 349.155021157 262 358 c 0
 257.897176172 362.907855832 250.3125 368.111111111 245 371 c 1
 248 405 l 1
 274.407407407 401 314.592592593 400 341 400 c 3
 374.408695652 400 422.556521739 403.636363636 454 408 c 1
 459 368 l 1
 454.471698113 364.666666667 444 362 444 362 c 0
 438.166666667 361 434 360 434 351 c 3
 434 350 434.657089127 340.1690927 435 335 c 0
 438.0625 288.835390947 460.484375 221.864197531 484 177 c 1
 506.166666667 205 515.456822835 241.921271327 522 288 c 0
 522.94425115 294.649658332 522 301 522 310 c 3
 522 344.41025641 511.878078861 361.077724359 477 371 c 1
 488 409 l 1
 509.461538462 404.625 520.538461538 404 533 404 c 3
 572.189189189 404 616.081081081 409 649 415 c 1
 659 377 l 1
EndSplineSet
Substitution2: "case-1" W
Substitution2: "pcap-1" w.pcap
Substitution2: "smcp-1" w.smcp
EndChar

StartChar: x
Encoding: 120 120 23
Width: 435
VWidth: 1159
Flags: HW
AnchorPoint: "Bottom" 211 -15 basechar 0
AnchorPoint: "Top" 220 465 basechar 0
LayerCount: 2
Back
SplineSet
8 23 m 21xc0
 38 30 49 34 60 46 c 6
 190 200 l 5
 120 323 l 6
 94 367 82 371 19 371 c 13
 19 404 l 5xc0
 36 403 69 401 86 401 c 4
 124 401 169 403 205 407 c 5
 209 375 l 21
 184 374 177 371 177 366 c 7
 177 364 178 360 179 358 c 6
 233 247 l 5
 295 325 l 6
 301 332 313 344 313 355 c 7
 313 377 277 372 259 379 c 13
 263 405 l 5xa0
 279 404 306 404 322 404 c 4
 352 404 399 406 420 407 c 5
 423 382 l 5
 387 372 368 352 353 336 c 4
 319 297.666666667 285 259.333333333 251 221 c 5
 281 165.666666667 308 110.333333333 338 55 c 4
 353 29 379 32 427 23 c 13
 423 -5 l 5
 396 -1 346 2 318 2 c 4
 291 2 261 -1 230 -5 c 5
 227 21 l 21
 263 27 268 25 268 35 c 7
 268 37 268 40 267 42 c 6
 206 172 l 5
 121 62 l 6
 117 57 114 52 114 47 c 7
 114 32 125 30 167 24 c 5
 163 -6 l 5
 141 -4 111 -1 88 -1 c 4
 63 -1 34 -4 11 -6 c 5
 8 23 l 21xc0
EndSplineSet
Fore
SplineSet
8 28 m 1
 38 38.652173913 46.0573663491 47.4533465486 60 63 c 2
 173 189 l 1
 112 292 l 2
 80.1975626594 345.699197477 72.8016528926 365 19 362 c 1
 19 404 l 1
 36 403 69 401 86 401 c 0
 124 401 169 403 205 407 c 1
 209 367 l 1
 194 372.088863816 194 362.73928745 194 358 c 3
 194 355.75 193.932946173 350.829235131 195 349 c 2
 244 265 l 1
 271 304 l 2
 275.655257202 310.724260402 286 318.733333333 286 332 c 3
 286 366.833333333 267 367 256 370 c 1
 263 405 l 1
 279 404 306 404 322 404 c 0
 352 404 399 406 420 407 c 1
 423 381 l 1
 397.857142857 363.565217391 357.450173525 324.566828244 343 310 c 0
 317.295796791 284.088289484 291 258.666666666 265 233 c 1
 298.793103448 178.333333334 328.879193436 128.96626016 363 69 c 0
 380.453680781 38.3256969035 399.939456747 38.8125 427 27 c 1
 423 -5 l 1
 396 -1 346 2 318 2 c 0
 286.704545455 2 251.931818182 -1 216 -5 c 1
 213 28 l 1
 247 27.2142857143 247 32.7142857143 247 39 c 3
 247 45.2857142857 241.434631726 60.1915849889 241 61 c 2
 191 154 l 1
 138 79 l 2
 134.309235635 73.7772202376 131 69 131 64 c 3
 131 42.4782608696 138.679245283 37.6086956522 168 31 c 1
 163 -6 l 1
 141 -4 111 -1 88 -1 c 0
 63 -1 34 -4 11 -6 c 1
 8 28 l 1
EndSplineSet
Substitution2: "case-1" X
Substitution2: "pcap-1" x.pcap
Substitution2: "smcp-1" x.smcp
EndChar

StartChar: y
Encoding: 121 121 24
Width: 446
VWidth: 1159
Flags: HMW
AnchorPoint: "Bottom" 291 -15 basechar 0
AnchorPoint: "Top" 232.5 465 basechar 0
LayerCount: 2
Back
SplineSet
113 -346 m 1
 109 -346 90 -343 52 -343 c 3
 22 -343 15 -345 -6 -346 c 9
 -6 -346 -5 -330 -7 -319 c 1
 85 -283 73 -255 176 -32 c 1
 148 100.845528455 85 310.926829268 58 348 c 0
 51 358 47 365 37 370 c 0
 28 372 16 375 6 376 c 1
 10 406 l 1
 33 402 68 400 91 400 c 3
 125 400 153 401 185 407 c 1
 189 379 l 1
 156 370 l 0
 149 369 145 368 145 359 c 3
 145 358 147 351 148 346 c 0
 160 272.107407407 192 153.462962963 226 65 c 1
 273 138.16872428 317 236.423868313 342 319 c 0
 344 326 347 335 347 344 c 3
 347 366 340 367 271 381 c 9
 277 411 l 1
 308 404 351 400 369 400 c 3
 394 400 422 402 443 408 c 1
 448 378 l 1
 410 368 401 363 383 319 c 0
 368 283.83125 294 132.8125 223 -12 c 0
 179 -98 113 -281 113 -346 c 1
EndSplineSet
Fore
SplineSet
147 -346 m 1
 141.68852459 -346 116.459016393 -343 66 -343 c 3
 31.3448275862 -343 23.2586206897 -345 -1 -346 c 1
 -1 -346 0 -319.925925926 -2 -302 c 1
 91.9677419355 -254.977272727 75.0322580645 -216.045454545 154 -53 c 1
 142.314347414 54.9814293988 94.7282763928 248.465311242 63.6689453125 318 c 0
 52.2334691604 343.601397306 43.2592996094 356.612534595 27 365 c 0
 20.9202047611 367.142857143 12.7741935484 368.452380952 6 370 c 1
 10 406 l 1
 38.3950617284 402 81.6049382716 400 110 400 c 3
 154.85106383 400 191.787234043 401.428571429 234 410 c 1
 238 374 l 1
 234 373 231.122374288 372.52642817 226 370 c 0
 209.08705249 361.658292695 207 324.502795412 207 306 c 3
 207 296.327739582 207.975471577 286.657458066 208.634765625 276 c 0
 212.143534426 219.280913135 226.989268211 154.117871142 247 118 c 1
 288.25 158.496689927 314.446294743 234.767027404 324 294 c 0
 325.476029641 303.151383777 327 316.950124379 327 327 c 3
 327 341.035668848 322.604651163 364.275862069 264 374 c 1
 270 411 l 1
 298.641304348 404 338.369565217 400 355 400 c 3
 384.054054054 400 416.594594595 402 441 408 c 1
 446 372 l 1
 416.827160494 362.627118644 405.963651311 350.721565059 381 299 c 0
 365 265.85 263.879771839 76.0579876656 221 -13 c 0
 208 -40 153 -251 147 -346 c 1
EndSplineSet
Substitution2: "case-1" Y
Substitution2: "pcap-1" y.pcap
Substitution2: "smcp-1" y.smcp
EndChar

StartChar: z
Encoding: 122 122 25
Width: 453
VWidth: 1159
Flags: HMW
AnchorPoint: "Bottom" 226 -15 basechar 0
AnchorPoint: "Top" 232.5 465 basechar 0
LayerCount: 2
Fore
SplineSet
300 2 m 2
 174 2 l 2
 147.385840954 2 54.7163120568 -6 35 -18 c 1
 15 18 l 1
 104.720140083 119.18235294 186.665634163 235.1 241 352 c 1
 242.975756731 355.648027589 235.216147184 356 228 356 c 3
 187.695652174 356 153.477065333 354.869834453 115 346 c 0
 78.6562954221 337.621953487 51 303 45 293 c 1
 17 306 l 1
 50 432 l 1
 74.4808743169 417 102.114754098 398 237 398 c 3
 330.936842105 398 407.515789474 399 431 410 c 1
 441 389 l 1
 357.130967006 276.322857143 251.329984205 162.648571428 214 40 c 1
 270 42 l 2
 304.957579014 43.2484849648 331.230015318 49.9394843373 360 70 c 0
 377.33256049 82.0855156868 391.556267085 98.034771828 403 117 c 0
 408.624495787 126.321245677 413.90909091 135.083333333 417 148 c 1
 443 140 l 1
 412 -18 l 1
 385.537490013 -5.19357646507 373.27390519 2 300 2 c 2
EndSplineSet
Substitution2: "case-1" Z
Substitution2: "pcap-1" z.pcap
Substitution2: "smcp-1" z.smcp
EndChar

StartChar: A
Encoding: 65 65 26
Width: 705
VWidth: 1159
Flags: HMW
HStem: -10 37<475.198 516.465 640.751 690.047> 245 42<237 427.657> 692 20G<348 395.5>
VStem: 350 43<632.023 712>
DStem2: 96 80 154 87 0.391141 0.920331<-3.53261 211.909 245.659 524.174> 407 642 465 236 0.354654 -0.934998<388.302 400.179 571.058 597.203>
AnchorPoint: "Bottom" 353 -15 basechar 0
AnchorPoint: "Ogonek" 523 27 basechar 0
AnchorPoint: "Top" 367 699 basechar 0
LayerCount: 2
Fore
SplineSet
251.936523438 264.078125 m 5
 277.705078125 254.229492188 355.555664062 256.581054688 389.59375 257.98046875 c 5
 365.874023438 321.95703125 347.134765625 357.3828125 310.16796875 418.154296875 c 5
 279.802734375 351.392578125 272.997070312 319.793945312 251.936523438 264.078125 c 5
390 -8.9794921875 m 5
 390 -8.9794921875 378 10.1103515625 370 38.9072265625 c 5
 415.508789062 49.2705078125 447.856445312 69.9599609375 439.563476562 100.247070312 c 4
 428.498046875 140.657226562 421.482421875 153.607421875 412 188 c 5
 367.107421875 208.509765625 293.530273438 213.40625 230 204 c 5
 216.926757812 170.885742188 203.145507812 155.5625 198.0546875 118.518554688 c 4
 193 81.7431640625 232.379882812 44.6826171875 291.5 41.55859375 c 5
 287.5 -11.1337890625 l 5
 243.64453125 -3.5107421875 169.069335938 0.8515625 104.580078125 0.8515625 c 7
 71.5947265625 0.8515625 41.248046875 -0.6708984375 19 -3.9111328125 c 5
 19 -3.9111328125 15.7998046875 19.34765625 15 44.73828125 c 5
 83.185546875 57.9873046875 105.564453125 97.78515625 109.467773438 107.530273438 c 4
 195.268554688 308.107421875 263.860351562 465.612304688 329.541015625 634.698242188 c 4
 334.62109375 647.775390625 337.328125 674.389648438 336.456054688 711 c 5
 401.65625 711 l 5
 402.788085938 683.991210938 402.13671875 652.0390625 406.369140625 636.926757812 c 4
 463.416992188 430.993164062 499.572265625 310.790039062 614.416992188 80.8017578125 c 4
 630.442382812 49.0556640625 675.85546875 41.4619140625 690 42.705078125 c 5
 690 42.705078125 688 18.9169921875 686 -5.0830078125 c 5
 652.33984375 -1.6083984375 608.365234375 0.2919921875 563.958007812 0.2919921875 c 7
 494.3515625 0.2919921875 423.680664062 -2.54296875 390 -8.9794921875 c 5
EndSplineSet
Position2: "cpsp-1" dx=0 dy=0 dh=50 dv=100
Substitution2: "c2pc-1" a.pcap
Substitution2: "c2sc-1" a.smcp
EndChar

StartChar: B
Encoding: 66 66 27
Width: 584
VWidth: 1159
Flags: HMW
HStem: -4 38<17 91.426 193.57 383.69> 349 30<183 322.635> 653 41<19 86.219 195.972 328.268>
VStem: 101 80<45.6349 349 379 533.879> 388 90<447.929 586.24> 459 90<100.26 258.491>
AnchorPoint: "Bottom" 282 -15 basechar 0
AnchorPoint: "Top" 249 699 basechar 0
LayerCount: 2
Fore
SplineSet
10 45 m 5
 37.858974359 45 111 47.1065344876 111 89 c 4
 111 93.5433661856 117 182.593788406 117 288 c 7
 117 445.454043381 103.21453351 596.299567447 101 588 c 4
 99.318181818 581.844 92.6355514295 616.218718027 72 625 c 4
 63.779883721 628.498 13.375 637.6 5 639 c 5
 15 692 l 5
 25.7618767677 692 70.838538214 681 128 681 c 7
 184.906278864 681 244.20217872 691 298 691 c 7
 464.862445652 691 509 578.954101562 509 521 c 7
 509 451.80859375 464.08203125 408.838867188 365 369.735351562 c 5
 469.192382812 354.497070312 565 263.48171711 565 177 c 7
 565 67.8 462.999638554 -5 304 -5 c 7
 246.019704237 -5 192.934704137 0.367711295747 132 1 c 7
 69.279466667 1 21.4414628571 -3 14 -3 c 5
 10 45 l 5
298 380 m 4
 333.801532609 388.729165296 367 431.5 367 483 c 7
 367 578.01953125 328.10546875 635 294 635 c 7
 290.016601562 635 278.572480031 636.798579039 273 634 c 4
 268.511956196 632.204638176 263.205900596 616.616212552 262 588 c 4
 258.72754814 514.651941067 256 378 256 378 c 5
 290.788357143 378 293.80022979 379.045599549 298 380 c 4
274 342 m 4
 252 342 l 5
 254 257.557712549 256.020318539 174.907518058 258 124 c 4
 259.413202233 88.159596588 262.82527591 51.036710967 286 48 c 4
 290.355059173 47.429332755 310.4444 47 322 47 c 7
 377.491746988 47 409 89.1943700817 409 171 c 7
 409 254.999754098 370.045290323 342 274 342 c 4
EndSplineSet
Position2: "cpsp-1" dx=0 dy=0 dh=50 dv=100
Substitution2: "c2pc-1" b.pcap
Substitution2: "c2sc-1" b.smcp
EndChar

StartChar: C
Encoding: 67 67 28
Width: 743
VWidth: 1159
Flags: HW
AnchorPoint: "Bottom" 416 -15 basechar 0
AnchorPoint: "Top" 426 699 basechar 0
LayerCount: 2
Fore
SplineSet
36 341 m 7
 36 506.34781903 155.999826531 693 440 693 c 7
 505.974125 693 544.914065362 684.141902502 606 665 c 4
 648.960635461 651.537845409 637.89989011 684.7 663 686 c 5
 697 670 l 5
 657.972972973 608.386679848 659 570.39110188 659 547.799804688 c 4
 659 507.799804688 681 493.799804688 617 493.799804688 c 5
 607.506849315 504.122893919 592.534591673 539.351062807 554 577.799804688 c 4
 512.561324534 619.146160459 469.497395051 637 412 637 c 7
 307.847091837 637 218 550.798001048 218 381 c 7
 218 176.471094017 337.711804178 50 459 50 c 7
 539.77242623 50 592 144.615384615 669 214 c 5
 699 201 l 5
 688.758695652 141.075 679.655434783 107.925 666 48 c 5
 602.458846154 15.892888 513.798597285 -10 431 -10 c 7
 210.999530026 -10 36 136.495589744 36 341 c 7
EndSplineSet
Position2: "cpsp-1" dx=0 dy=0 dh=50 dv=100
Substitution2: "c2pc-1" c.pcap
Substitution2: "c2sc-1" c.smcp
EndChar

StartChar: D
Encoding: 68 68 29
Width: 792
VWidth: 1159
Flags: HW
HStem: -10 38<15.6316 81.6884> -7 44<159.868 463.195> 647 41<13 82.5059> 659 37<188.563 435.412>
VStem: 94.1875 82.2977<49.5582 525.672> 655 94<221.047 461.211>
AnchorPoint: "Bottom" 357 -15 basechar 0
AnchorPoint: "Top" 357 699 basechar 0
LayerCount: 2
Fore
SplineSet
345 63 m 5
 509.485351562 63 602 178.801757812 602 334 c 7
 602 529.317382812 502.311523438 646 312 646 c 7
 314.25390625 646 304.44140625 644.778320312 300.5 643.900390625 c 4
 274 638 259.5 582.900390625 259.5 582.900390625 c 4
 253.5 473.182617188 255.788085938 350.090820312 255.788085938 236.322265625 c 7
 255.788085938 202.770507812 256.891601562 167.463867188 262 132 c 4
 262 114 280.390625 83.0224609375 306 73 c 4
 319.538085938 67.7021484375 329.411132812 63 345 63 c 5
12 689 m 29
 61.97265625 685 91.02734375 677 141 677 c 23
 227.965820312 677 276.0390625 697 363 697 c 7
 568.40234375 697 766 569.276367188 766 354 c 7
 766 69.1337890625 531.733398438 -1 339 -1 c 7
 265 -1 221.8984375 12 148 12 c 7
 62.4169921875 12 46.6953125 4 12 -4 c 13
 11 48 l 5
 27.5 54.3427734375 103.787109375 54.1845703125 106 95 c 5
 113.37890625 139.013671875 115.948242188 179.122070312 115.948242188 223.1171875 c 7
 115.948242188 376.385742188 106.443359375 536.891601562 95 598 c 5
 91.9716796875 622.125 47.5 633.3046875 10 631 c 13
 12 689 l 29
EndSplineSet
Position2: "cpsp-1" dx=0 dy=0 dh=50 dv=100
Substitution2: "c2pc-1" d.pcap
Substitution2: "c2sc-1" d.smcp
EndChar

StartChar: E
Encoding: 69 69 30
Width: 619
VWidth: 1159
Flags: HW
AnchorPoint: "Bottom" 296 -15 basechar 0
AnchorPoint: "Ogonek" 535 15 basechar 0
AnchorPoint: "Top" 299 699 basechar 0
LayerCount: 2
Fore
SplineSet
19 683 m 1
 164.041992188 675.711914062 213.176757812 672.938476562 297.912109375 672.938476562 c 3
 461.7265625 672.938476562 529.950195312 681.373046875 563 689 c 1
 576.150390625 677.61328125 580.794921875 672.633789062 580.794921875 664.500976562 c 3
 580.794921875 649.040039062 568.204101562 622.23046875 561 520 c 1
 519 514 l 1
 517 530 511.488143613 574.818173081 495 587 c 0
 462.738301959 610.835698601 408.798254929 621.568298574 358.269663844 621.568298574 c 3
 331.683830041 621.568298574 306.042417946 618.597103707 285 613 c 0
 277.671875 611.05078125 268.443774177 570.305608402 268 567 c 0
 260 507.409179687 253 434.249023438 251 378 c 1
 287.83984375 382 403.945229776 381.927380819 412 384 c 0
 451.37890625 394.1328125 469.5 458.700195312 480 473 c 1
 524 459 l 1
 515.80078125 422.314453125 512.486328125 385.90625 512.486328125 349.5078125 c 3
 512.486328125 310.4375 516.305664062 271.377929688 522 232 c 1
 474 214 l 1
 452.5 276.700195312 455.965166382 302.641760343 412 320 c 0
 386.671875 330 304.53515625 328 251 330 c 1
 249 255.415039062 257.999223318 175.747801994 274 125 c 0
 278.137695312 111.876953125 295.684497649 81.8807508536 297 81 c 0
 317.672851562 67.1591796875 337.379882812 64.060546875 360.392578125 64.060546875 c 1
 382.389648438 64.060546875 430.673841565 76.3954865043 457 93 c 0
 513.865234375 128.866210938 531.666992188 150.8828125 583 199 c 1
 616 191 l 1
 591.768554688 100.682617188 587.922851562 76.7529296875 575 6 c 1
 365.470703125 4.9091796875 344.283203125 12.1396484375 272.466796875 12.1396484375 c 3
 178.909637224 12.1396484375 143.363395746 7.10546875 25 -12 c 1
 11 26 l 1
 68.375 43.9082161458 113 73.9243880208 113 109 c 1
 116.595703125 178.479492188 118.575195312 184.825195312 118.575195312 271.65625 c 3
 118.575195312 406.297851562 115.084168209 495.133252823 109 588 c 0
 107 618.52734375 85.31640625 618.536132812 9 645 c 1
 19 683 l 1
EndSplineSet
Position2: "cpsp-1" dx=0 dy=0 dh=50 dv=100
Substitution2: "c2pc-1" e.pcap
Substitution2: "c2sc-1" e.smcp
EndChar

StartChar: F
Encoding: 70 70 31
Width: 566
VWidth: 1159
Flags: HW
HStem: -9 35<33 79.5176> 332 39<186 389.616> 654 31<17 81.7781> 680 20G<514.477 525.182>
VStem: 104.705 81.2945<84.0664 332 371 638.375> 451 36<246.75 303.707 394.284 440.094> 499 31<534 596.775>
AnchorPoint: "Bottom" 171 -15 basechar 0
AnchorPoint: "Top" 309 699 basechar 0
LayerCount: 2
Fore
SplineSet
409 -7 m 5
 344 -3 294 -1 244 -1 c 4
 181 -1 117 -4 19 -7 c 5
 14 40 l 5
 63 42 110 81 110 114 c 5
 112 132 113 169 113 215 c 7
 113 340 107 531 104 585 c 4
 102 623 78 623 9 650 c 5
 13 688 l 5
 70 683 135 681 199 681 c 7
 368 681 531 695 539 710 c 5
 549 699 554 698 554 671 c 5
 554 638 547 591 544 472 c 5
 506 466 l 5
 490 472 476 561 445 590 c 4
 404 628 342 634 287 625 c 4
 263 621 259 587 258 576 c 4
 250 503 252 433 252 365 c 5
 279 369 334 364 341 365 c 4
 386 375 399 428 413 471 c 5
 460 466 l 5
 454 429 451 393 451 356 c 4
 451 303 457 249 470 195 c 5
 419 183 l 5
 394 269 393 274 341 301 c 4
 322 311 290 309 250 311 c 5
 256 216 251 131 277 99 c 4
 281 93 322 43 411 43 c 5
 409 -7 l 5
EndSplineSet
Position2: "cpsp-1" dx=0 dy=0 dh=50 dv=100
Substitution2: "c2pc-1" f.pcap
Substitution2: "c2sc-1" f.smcp
EndChar

StartChar: G
Encoding: 71 71 32
Width: 803
VWidth: 1159
Flags: HW
AnchorPoint: "Bottom" 426 -15 basechar 0
AnchorPoint: "Top" 449 699 basechar 0
LayerCount: 2
Fore
SplineSet
43 355 m 7
 43 630.940724011 338 714 466 714 c 7
 538.133192053 714 595.299928277 698.980315361 643.578037681 698.980315361 c 4
 657.396985387 698.980315361 661.445276882 703.321213375 666 713 c 5
 694 707 l 5
 710 532 l 5
 673 522 l 5
 587 614 500.904614879 662 420 662 c 7
 260.551495017 662 216 491.635288783 216 373 c 7
 216 189.849615153 372.64516129 40 523 40 c 7
 547.99846654 40 561.55652907 43.6657363243 568 60 c 4
 575.31473498 78.5429268131 581 117.230769231 581 122 c 4
 581 143.405217456 585 178.892173815 585 211 c 4
 585 265.109090909 536 289 492 307 c 4
 489.136540327 308.171415321 484 310 484 310 c 5
 486 350 l 5
 599.247148289 339.666666667 723.596958175 342 778 346 c 5
 781 322 l 5
 756.974358974 312.6 737.718378523 299.107308421 735 265 c 4
 731 214.812275032 727.415833405 171.951070323 725 133 c 4
 723.054078263 101.625429929 732.896551724 86.9318181818 753 54 c 5
 745 36 l 5
 666 22.8571428571 502 -10 448 -10 c 7
 247 -10 43 118.582095639 43 355 c 7
EndSplineSet
Position2: "cpsp-1" dx=0 dy=0 dh=50 dv=100
Substitution2: "c2pc-1" g.pcap
Substitution2: "c2sc-1" g.smcp
EndChar

StartChar: H
Encoding: 72 72 33
Width: 831
VWidth: 1159
Flags: HW
AnchorPoint: "Bottom" 419 -15 basechar 0
AnchorPoint: "Top" 427 699 basechar 0
LayerCount: 2
Fore
SplineSet
8 690 m 5
 72.802734375 684 130.288085938 681 193 681 c 5
 239.427734375 681 289.020507812 683 346 686 c 5
 347 636 l 5
 318.150390625 636 268.201692082 626.005383897 266 619 c 4
 255 584 249 462 248 362 c 5
 714.190429688 348 369.32421875 369 590 362 c 5
 588 427 590 533 574 598 c 4
 567.048385474 626.240934014 502.247070312 647 489 644 c 5
 490 690 l 5
 547.041992188 684 593.521484375 680 640 680 c 5
 694.404296875 680 749.85546875 685 821 697 c 5
 824 650 l 5
 774.666992188 650.727272727 753.970243127 636.806580326 750 611 c 4
 734 507 731 306 731 171 c 7
 731 121 735.821780866 73.9658979747 750 59 c 4
 768 40 805.125 32 822 35 c 5
 822 35 825 17 819 -11 c 5
 771.41015625 -4 722.762695312 0 672 0 c 5
 618.450195312 0 562.799804688 -3 504 -16 c 5
 504 -16 501 8 496 32 c 5
 523.703125 34 576.085775724 50.9634039468 578 68 c 4
 588 157 590 213 590 306 c 5
 457.211914062 316 530.770507812 314 248 306 c 5
 248 228 247.935660949 135.991527573 256 75 c 4
 260.36328125 42 342.181640625 39 352 39 c 5
 352 39 351 15 350 -13 c 5
 279.010742188 -4 218.461914062 1 160 1 c 5
 109.276367188 1 60.6669921875 -2 11 -11 c 5
 11 -11 10 12 8 44 c 5
 20.2568359375 42 84.5479196087 52.0271156953 86 68 c 4
 98 200 97 356 97 494 c 7
 97 543 92.6530718055 598.427201244 82 614 c 4
 69.6865234375 632 17.07421875 642 7 638 c 5
 8 690 l 5
EndSplineSet
Position2: "cpsp-1" dx=0 dy=0 dh=50 dv=100
Substitution2: "c2pc-1" h.pcap
Substitution2: "c2sc-1" h.smcp
EndChar

StartChar: I
Encoding: 73 73 34
Width: 341
VWidth: 1159
Flags: HW
AnchorPoint: "Bottom" 167 -15 basechar 0
AnchorPoint: "Ogonek" 234 15 basechar 0
AnchorPoint: "Top" 171 699 basechar 0
LayerCount: 2
Fore
SplineSet
16 695 m 1
 74.9376949985 686.551205821 120.967946218 682.872070312 168.125 682.872070312 c 3
 213.781522608 682.872070312 260.494279632 686.236555613 321 692 c 1
 323 631 l 1
 305 630 277 628 263 616 c 0
 249.807918852 601.92123 238.518465207 432.502040905 238.518465207 296.649266944 c 3
 238.518465207 234.07452209 243.166634717 162.522992989 254 87 c 0
 258.017701886 32.5249826697 311 40 329 44 c 1
 328 -9 l 1
 276.492922132 -4.02222111035 219.264281276 -1.12142019153 164.006558935 -1.12142019153 c 3
 110.909650725 -1.12142019153 59.6325238908 -3.83418332127 17 -10 c 1
 10 45 l 1
 27 42 91 45 98 107 c 0
 105.208033219 170.842579943 110.915227204 254.545839676 110.915227204 336.857673337 c 3
 110.915227204 442.265741874 102.830911945 545.209593815 87 609 c 0
 78.9516129322 638.394706772 20 638 12 634 c 1
 16 695 l 1
EndSplineSet
Position2: "cpsp-1" dx=0 dy=0 dh=50 dv=100
Substitution2: "c2pc-1" i.pcap
Substitution2: "c2sc-1" i.smcp
EndChar

StartChar: J
Encoding: 74 74 35
Width: 337
VWidth: 1356
Flags: HMW
AnchorPoint: "Bottom" 189 -138.8 basechar 0
AnchorPoint: "Top" 172 699 basechar 0
LayerCount: 2
Back
SplineSet
125 614 m 4
 118 650 67 647 14 652 c 13
 18 692 l 5
 72.8070731284 684.912878475 116.45252592 681.843940271 160.221828099 681.843940271 c 7
 209.090916605 681.843940271 258.114396507 685.66969722 323 692 c 13
 325 649 l 5
 267 647 229 657 225 616 c 4
 214 498 218 378 218 225 c 7
 218 95 224 43 224 0 c 7
 224 -92 163 -151 94 -200 c 4
 69 -217 44 -235 19 -251 c 13
 -6 -218 l 5
 17 -207 36 -196 52 -182 c 4
 57 -178 62 -175 66 -171 c 4
 128 -112 138 -30 138 65 c 7
 138 104 132 578 125 614 c 4
EndSplineSet
Fore
SplineSet
88 598 m 0
 75.3844649393 629.624196671 51 630 14 636 c 1
 18 692 l 1
 72.8071303207 687.704299098 116.452628657 685.844130542 160.22197651 685.844130542 c 3
 209.079910785 685.844130542 269.114455666 687.534649176 323 692 c 1
 325 630 l 1
 303 627 267.999925495 623.000014191 264 602 c 0
 242.317382812 488.1640625 240 372.521484375 240 225 c 3
 240 66.111328125 261 2.5556640625 261 -50 c 3
 261 -98.3798828125 189.767627538 -149.063366666 103 -203 c 0
 66 -226 52.3333333333 -235.941176471 27 -251 c 1
 -9 -206 l 1
 11.0172413793 -196.138888889 27.9484493897 -186.52978213 44 -177 c 0
 49.3068788289 -173.849313798 53.9558124906 -170.594054902 58 -167 c 0
 122.138888889 -110 114 -3.3896484375 114 65 c 3
 114 101.8671875 102 562.905273438 88 598 c 0
EndSplineSet
Position2: "cpsp-1" dx=0 dy=0 dh=50 dv=100
Substitution2: "c2pc-1" j.pcap
Substitution2: "c2sc-1" j.smcp
EndChar

StartChar: K
Encoding: 75 75 36
Width: 687
VWidth: 1159
Flags: HW
AnchorPoint: "Bottom" 359 -15 basechar 0
AnchorPoint: "Top" 335 699 basechar 0
LayerCount: 2
Back
SplineSet
391 685 m 5xa8
 414.455841442 683.004664367 440.195130263 681.949571772 466.741023273 681.949571772 c 7
 512.626433009 681.949571772 560.921831532 685.101999391 604 692 c 5
 613 656 l 5
 572 646 546 635 518 610 c 4
 425 529 331 449 239 367 c 5
 576 87 l 4
 610 59 649 38 677 23 c 5
 673 -1 l 5
 645 1 606 4 578 4 c 7
 545 4 503 1 471 -4 c 5
 467 21 l 5
 497 30 513 33 491 58 c 4
 470 81 280 232 178 316 c 5x68
 178 235 179 134 183 79 c 4
 185 36 217 34 276 20 c 5
 272 -10 l 5
 225.8 -2.8 178.52 1.88 126.488 1.88 c 7
 91.8 1.88 55 -0.2 15 -5 c 5
 12 28 l 5
 67 29 89 35 91 71 c 4xb0
 96.7385022682 166.83298788 99.513267791 266.946928836 99.513267791 367.184455971 c 7
 99.513267791 441.622344911 97.9830484122 516.128388787 95 589 c 4
 93 644 78 645 15 657 c 5
 21 688 l 5
 56.6601886794 683.542476415 94.1086338448 681.667989976 131.662527565 681.667989976 c 7
 178.356968161 681.667989976 225.214436321 684.566018868 269 689 c 5
 272 657 l 5
 214 652 192 651 187 608 c 4
 182 524 178 444 178 357 c 5
 260 433 343 505 423 584 c 4
 434 595 447 611 447 621 c 4
 447 645.335008337 427 651.657226562 390 658 c 5
 391 685 l 5xa8
EndSplineSet
Fore
SplineSet
364 685 m 1
 395.817330257 683.004664367 430.732106392 681.949571772 466.741023273 681.949571772 c 3
 512.626433009 681.949571772 560.921831532 685.101999391 604 692 c 1
 617 643 l 1
 587 634 539.275029928 606.729294571 502 574 c 0
 420 502 370.673835125 440.164609053 318 372 c 1
 336 352 509.321350974 173.584824749 548 141 c 0
 606.47903936 91.7343380139 678 49 679 23 c 1
 673 -1 l 1
 645 1 606 4 578 4 c 3
 524.028037383 4 455.336448598 1 403 -4 c 1
 399 22 l 1
 411 27.3333333333 444 32 424 80 c 0
 414.841408509 101.980619578 294.568690096 225.674418605 232 296 c 1
 233 236.53164557 238.592374844 165.63976181 243 122 c 0
 250.059963275 52.0995196343 292.402777778 33 326 26 c 1
 322 -10 l 1
 259.925020617 -2.8 196.39893782 1.88 126.488 1.88 c 3
 91.8 1.88 55 -0.2 15 -5 c 1
 12 37 l 1
 37 35 75.1201187932 48.8196505335 83 107 c 0
 94.1310282961 189.184883146 99.513267791 279.130387164 99.513267791 367.184455971 c 3
 99.513267791 426.185451585 95.2123686019 480.055683659 90 543 c 0
 83.5233473546 621.211750565 64 638 12 650 c 1
 21 688 l 1
 56.6601886794 683.542476415 94.1086338448 681.667989976 131.662527565 681.667989976 c 3
 187.876906991 681.667989976 244.287551609 684.566018868 297 689 c 1
 300 649 l 1
 282.75862069 640 257.315327996 635.08354547 250 580 c 0
 240 504.701195219 232 432.988047809 232 355 c 1
 272.832653061 412.251101322 314.409590193 464.914862367 354 526 c 0
 366.683438941 545.569628532 390.11546996 588.598824871 397 607 c 0
 406.800351566 633.194668979 385.070175439 640.596911364 363 645 c 1
 364 685 l 1
EndSplineSet
Position2: "cpsp-1" dx=0 dy=0 dh=50 dv=100
Substitution2: "c2pc-1" k.pcap
Substitution2: "c2sc-1" k.smcp
EndChar

StartChar: L
Encoding: 76 76 37
Width: 614
VWidth: 1159
Flags: HW
AnchorPoint: "Bottom" 300 -15 basechar 0
AnchorPoint: "TopRight" 348.5 581 basechar 0
AnchorPoint: "Top" 157 699 basechar 0
LayerCount: 2
Back
SplineSet
286 693 m 5xb8
 290 652 l 5
 203 641 189 660 185 576 c 4
 183 528.555664062 182 149 182 149 c 4
 182 90 184 52 225 52 c 4
 257 52 415 52 438 53 c 4
 508 57 537 91 562 166 c 5
 597 159 l 5
 597 102 585 122 558 -21 c 5
 536 -12 530 -3 486 -1 c 4
 475 -1 386 2 284 2 c 7x78
 69 2 34 -7 23 -7 c 5
 18 37 l 5
 77 43 91 45 92 76 c 4
 92 80 94 178 94 300 c 7
 94 454.967773438 89 603.858398438 88 615 c 4
 86 643 74 648 12 650 c 5
 16 696 l 5
 56.3726980984 686.141550464 101.593828395 682.453832817 146.076608846 682.453832817 c 7
 196.348930208 682.453832817 245.67819832 687.163949757 286 693 c 5xb8
EndSplineSet
Fore
SplineSet
338 693 m 1
 342 635 l 1
 257.628169014 618.210526316 257.015365696 611.146475063 251 519 c 0
 247.664757173 467.909029719 239.592093108 267.657391079 246 148 c 0
 246.589884326 136.984855635 249.363706471 83.6977589119 315 79 c 0
 324.314553991 78.3333333333 370.723671247 80.0535830363 377 81 c 0
 486.862068966 97.5662650602 524 127 554 206 c 1
 600 197 l 1
 605.054054054 143.978021978 576 93 560 -23 c 1
 534 -9 541.927422068 3.4818760573 486 0 c 0
 474.978578363 -0.686161147707 386 2 284 2 c 3
 69 2 34 -7 23 -7 c 1
 16 47 l 1
 55 52.6923076923 90 67.4221428399 90 97 c 0
 90 100.625 94 189.4375 94 300 c 3
 94 441.192860244 83.2562538645 576.73016853 82 587 c 0
 78 619.699860307 49 640 12 628 c 1
 16 696 l 1
 56.3726980984 686.141550464 101.593828395 682.453832817 146.076608846 682.453832817 c 3
 215.031730055 682.453832817 282.693329314 687.163949757 338 693 c 1
EndSplineSet
Position2: "cpsp-1" dx=0 dy=0 dh=50 dv=100
Substitution2: "c2pc-1" l.pcap
Substitution2: "c2sc-1" l.smcp
EndChar

StartChar: M
Encoding: 77 77 38
Width: 958
VWidth: 1159
Flags: HW
AnchorPoint: "Bottom" 483 -15 basechar 0
AnchorPoint: "Top" 499 699 basechar 0
LayerCount: 2
Back
SplineSet
945 1 m 5x17
 907.706670586 7.78060534804 866.190999539 11.5117417394 821.929932969 11.5117417394 c 7
 774.804626172 11.5117417394 724.567104657 7.28207883824 673 -2 c 5
 668 36 l 5x57
 749 47 772 60 773 128 c 4
 777 269.938476562 771 408.918945312 759 541 c 5
 683 415.93359375 610 287.9140625 545 153 c 4
 525 111 505 53 495 9 c 5
 453 9 l 5x27
 452 64 428.188476562 119.095703125 406 162 c 6
 210 541 l 5
 192 407.883789062 180 263.920898438 179 117 c 4
 179 38 200 45 280 31 c 5
 275 -10 l 5
 235.203091857 -4.00320562224 187.976112885 0.210371756714 138.665855922 0.210371756714 c 7
 97.525650116 0.210371756714 54.9353187275 -2.72261000401 14 -10 c 5
 12 31 l 5
 102 41 119.77734375 56.9443359375 123 109 c 6
 149 529 l 6
 151 567 149 602 128 624 c 4
 110 642 85 654 21 655 c 5
 29 699 l 5x8f
 87 692 155 684 219 686 c 4
 237 686 241 673 246 661 c 4
 321 490.092773438 405 326.100585938 497 171 c 5
 769 678 l 4
 774 687 783 691 789 690 c 4
 838 684 892 686 941 691 c 5
 945 651 l 5
 870 649 842 641 842 581 c 4
 842 426.026367188 846 271.051757812 853 122 c 4
 857 49 878 45 946 44 c 5
 945 1 l 5x17
EndSplineSet
Fore
SplineSet
945 1 m 1
 910.433971604 7.78062017737 871.954385929 11.5117647288 830.930178438 11.5117647288 c 3
 761.804830229 11.5117647288 733.567189651 7.28209463113 682 -2 c 1
 676 50 l 1
 679 48 725 100 728 186 c 0
 739.710970625 284.328421891 733.222996516 383.895665001 713 472 c 1
 648.005405405 376.8671875 588.92556228 275.664008751 546 164 c 0
 525.966624356 118.303097977 524 77 511 9 c 1
 455 9 l 1
 454 99 446.038387716 131.021113244 429 162 c 2
 253 482 l 1
 226 390.767578124 214.154242214 288.9322586 221 186 c 0
 229.347851452 60.4823829257 272.257142857 59 313 48 c 1
 306 -10 l 1
 259.781088471 -4.00296433834 204.933120006 0.210782575928 147.665696219 0.210782575928 c 3
 103.555508943 0.210782575928 57.8905090507 -2.72231719473 14 -10 c 1
 12 48 l 1
 91 50 128.326723049 101.892029845 133 170 c 2
 156 469 l 2
 158.390548316 514.975401347 149 543 131 584 c 0
 111.459344245 617.753635416 88 627 15 635 c 1
 29 699 l 1
 116.977554812 687.692307692 201.311908294 677.618740848 303 685 c 0
 325.847991501 686.557852074 324.210117237 672.867270953 328 661 c 0
 374.17679558 530.185546876 430.248618785 404.201171876 527 298 c 1
 727 681 l 0
 732 690 741.079386031 694.797353799 747 693 c 0
 812.326732673 682 877.851485149 686 941 691 c 1
 946 634 l 1
 888 629 855.61959395 605.940801037 855 517 c 0
 851.412451309 402.159739087 853.469339277 288.391265971 863 178 c 0
 869.904255319 74 910.808510638 48 946 63 c 1
 945 1 l 1
EndSplineSet
Position2: "cpsp-1" dx=0 dy=0 dh=50 dv=100
Substitution2: "c2pc-1" m.pcap
Substitution2: "c2sc-1" m.smcp
EndChar

StartChar: N
Encoding: 78 78 39
Width: 836
VWidth: 1159
Flags: HW
AnchorPoint: "Bottom" 431 -15 basechar 0
AnchorPoint: "Top" 427 699 basechar 0
LayerCount: 2
Back
SplineSet
14 692 m 5xcc
 53 688 104.98828125 684 146 684 c 4
 161 684 162.154296875 680.150390625 169 673 c 4
 338 496.48828125 513 327.822265625 699 167 c 5
 706.598138432 271.454616615 709.257231274 375.909929262 709.257231274 484.468090034 c 7
 709.257231274 504.497142532 709.16671444 524.665858007 709 545 c 4
 708 667 656 656 597 663 c 5
 601 701 l 5xac
 656.519587699 693.825498252 703.298840942 691.263713704 747.271642729 691.263713704 c 7
 776.164975797 691.263713704 803.846638333 692.369750597 832 694 c 5
 837 655 l 5
 788 649 766.778320312 651.020507812 763 609 c 4
 748 442.189453125 745 264.596679688 745 86 c 4
 745 63 751 23 757 0 c 5
 720 -11 l 5
 704 32 670.759765625 72.75390625 638 105 c 4
 483 257.571289062 325 405.252929688 161 550 c 5xcc
 152 154 l 6
 149.614257812 52.4208984375 186 44.6748046875 277 35 c 5
 269 -11 l 5
 230.475274138 -2.82996917899 193.353344449 0.0350683801344 158.148197194 0.0350683801344 c 7
 109.280738727 0.0350683801344 64.1064561839 -5.48516570496 24 -10 c 5
 19 34 l 5
 77 34 94.193359375 45.0400390625 97 93 c 4xd4
 103.388779204 202.165214448 106.63207391 315.787844193 106.63207391 430.331351559 c 7
 106.63207391 477.147555243 106.09027535 524.117593288 105 571 c 4
 104 614 69 649 12 648 c 5
 14 692 l 5xcc
EndSplineSet
Fore
SplineSet
14 692 m 1
 66.8863636364 687.5 137.506778292 678.821341993 193 683 c 0
 208.042830399 684.13273012 209.468289254 679.438385264 216 672 c 0
 352 517.121678643 502 383.56693892 677 267 c 1
 686.629869599 320.301885836 690 373.604126849 690 429 c 3
 690 437.272104956 690.035012526 445.455386615 690 454 c 0
 689.169642857 656.644067797 586 656 597 650 c 1
 601 701 l 1
 656.519587699 693.825498252 703.298840942 691.263713704 747.271642729 691.263713704 c 3
 776.164975797 691.263713704 803.846638333 692.369750597 832 694 c 1
 837 642 l 1
 813 636 777.898647808 636.62009902 771 583 c 0
 749.333333333 414.594706023 745 235.304104924 745 55 c 0
 745 36.011627907 753.5 2.98837209302 762 -16 c 1
 714 -26 l 1
 707.802098304 8.25176018775 675.141540558 52.3783345595 645 81 c 0
 501.473794549 217.288953991 352.092243187 342.793565661 191 469 c 1
 173 246 l 2
 161.809017797 107.356164934 240 51.349609375 281 56 c 1
 269 -11 l 1
 230.475274138 -2.82996917899 193.353344449 0.0350683801344 158.148197194 0.0350683801344 c 3
 109.280738727 0.0350683801344 64.1064561839 -5.48516570496 24 -10 c 1
 17 53 l 1
 46 43 77.867742252 71.9876988496 87 136 c 0
 100.589075338 231.252237386 106.63207391 330.388831602 106.63207391 430.331351559 c 3
 106.63207391 453.185096638 103.522522526 475.830134498 103 499 c 0
 101.027964248 586.444657139 36 626 12 627 c 1
 14 692 l 1
EndSplineSet
Position2: "cpsp-1" dx=0 dy=0 dh=50 dv=100
Substitution2: "c2pc-1" n.pcap
Substitution2: "c2sc-1" n.smcp
EndChar

StartChar: O
Encoding: 79 79 40
Width: 845
VWidth: 1159
Flags: HW
AnchorPoint: "Horn" 713.5 573 basechar 0
AnchorPoint: "Middle" 423.697 364.853 basechar 0
AnchorPoint: "Bottom" 422 -15 basechar 0
AnchorPoint: "Ogonek" 486 11 basechar 0
AnchorPoint: "Top" 426 699 basechar 0
LayerCount: 2
Fore
SplineSet
354 615 m 7
 271.611707775 615 205 554.280170066 205 420 c 7
 205 234.798831897 340.46632 64 468 64 c 7
 565.198066667 64 624 174.021894967 624 298 c 7
 624 455.342724045 502.064640884 615 354 615 c 7
428 689 m 7
 635.000298343 689 802 531.097817665 802 338 c 7
 802 150.83382535 643.999766667 -1 430 -1 c 7
 215.999648 -1 43 149.877968525 43 338 c 7
 43 525.390237603 218.000469169 689 428 689 c 7
EndSplineSet
Position2: "cpsp-1" dx=0 dy=0 dh=50 dv=100
Substitution2: "c2pc-1" o.pcap
Substitution2: "c2sc-1" o.smcp
EndChar

StartChar: P
Encoding: 80 80 41
Width: 596
VWidth: 1159
Flags: HW
AnchorPoint: "Bottom" 162 -15 basechar 0
AnchorPoint: "Top" 294 699 basechar 0
LayerCount: 2
Back
SplineSet
266 278 m 31xd6
 373 278 475 335.9609375 475 459 c 7
 475 540 416 613 373 633 c 4
 337 649 285 655 219 655 c 7
 204 655 193 642 193 627 c 4xda
 195 552.334960938 194 421.16796875 195 290 c 5
 217 281 239 278 266 278 c 31xd6
15 687 m 5xea
 41 685 75 683 114 683 c 31
 185 683 224 694 295 694 c 7
 460 694 564 576 564 467 c 7
 564 347.405273438 462 242 258 242 c 7
 235 242 218 246 198 250 c 13
 200 181 200 105 205 74 c 4
 211 33 231 42 302 37 c 13
 298 -10 l 5
 239.656941268 -3.26810860787 199.252400715 2.83436109377 155.423836105 2.83436109377 c 7
 121.125356666 2.83436109377 84.7300046228 -0.902791834913 36 -11 c 5
 22 27 l 5
 96 52.103515625 111 42.2412109375 112 79 c 4
 113.5625 124.883789062 114.34375 177.642234802 114.34375 233.62318182 c 7xd6
 114.34375 356.781265259 110.5625 495.536254883 103 611 c 4
 102 634 82 644 12 645 c 13
 15 687 l 5xea
266 278 m 27xd6
 373 278 475 335.9609375 475 459 c 3
 475 540 416 613 373 633 c 0
 337 649 285 655 219 655 c 3
 204 655 193 642 193 627 c 0xda
 195 552.334960938 194 421.16796875 195 290 c 1
 217 281 239 278 266 278 c 27xd6
15 687 m 1xea
 41 685 75 683 114 683 c 27
 185 683 224 694 295 694 c 3
 460 694 564 576 564 467 c 3
 564 347.405273438 462 242 258 242 c 3
 235 242 218 246 198 250 c 9
 200 181 200 105 205 74 c 0
 211 33 231 42 302 37 c 9
 298 -10 l 1
 239.656941268 -3.26810860787 199.252400715 2.83436109377 155.423836105 2.83436109377 c 3
 121.125356666 2.83436109377 84.7300046228 -0.902791834913 36 -11 c 1
 22 27 l 1
 96 52.103515625 111 42.2412109375 112 79 c 0
 113.5625 124.883789062 114.34375 177.642234802 114.34375 233.62318182 c 3xd6
 114.34375 356.781265259 110.5625 495.536254883 103 611 c 0
 102 634 82 644 12 645 c 9
 15 687 l 1xea
EndSplineSet
Fore
SplineSet
256 290 m 3
 324.937154957 290 410 346.735175807 410 451 c 3
 410 541.992958096 381.616494038 587.755887814 369 608 c 0
 356.201508693 628.536140472 327.023796042 651 304 651 c 3
 276.307692308 651 255.745371449 625.708274796 256 606 c 0
 256.921278717 534.692937061 254 412.994297107 252 290 c 1
 253.000000548 290 254.753999228 290 256 290 c 3
15 687 m 1
 41 685 75 683 114 683 c 3
 185 683 224 694 295 694 c 3
 460 694 564 579 564 467 c 3
 564 337.053558465 437.49754902 244 295 244 c 3
 258 242 l 1
 261.714285714 188.289772727 268.535313188 115.657501706 271 105 c 0
 283 53.1110460687 322 54.6 379 51 c 1
 377 -10 l 1
 292.058537661 -5.74339005174 233.233703408 3.83473781254 169.423844085 3.83473781254 c 3
 122.488579409 3.83473781254 72.683879345 -0.172652444705 6 -11 c 1
 -6 42 l 1
 79.56 66.20703125 105.845482335 76.0375944228 109 110 c 0
 112.407274313 146.683653237 114.34375 188.865709427 114.34375 233.62318182 c 3
 114.34375 344.706201642 107.910532433 455.871893106 101 574 c 0
 99.010989011 608 59 629 11 629 c 1
 15 687 l 1
EndSplineSet
Position2: "cpsp-1" dx=0 dy=0 dh=50 dv=100
Substitution2: "c2pc-1" p.pcap
Substitution2: "c2sc-1" p.smcp
EndChar

StartChar: Q
Encoding: 81 81 42
Width: 785
VWidth: 1361
Flags: HW
AnchorPoint: "Middle" 392.697 364.853 basechar 0
AnchorPoint: "Top" 395 699 basechar 0
AnchorPoint: "Bottom" 343 -15 basechar 0
LayerCount: 2
Fore
SplineSet
369 650 m 7
 280.493670886 650 217 554.230388485 217 415 c 7
 217 235.971916772 293.80608365 67 417 67 c 7
 517.403805887 67 563 168.329876972 563 311 c 7
 563 543.053399096 473.061302682 650 369 650 c 7
565 54 m 5
 690.859872611 -52.7740986017 797.356687898 -102 869 -102 c 7
 872 -102 l 5
 874 -139 l 5
 808.859375 -158.933333333 770.8125 -163 751 -163 c 7
 623.162921348 -163 499.483146068 -101.5 381 1 c 5
 180.36 14.4285714286 45 166.405352619 45 361 c 7
 45 566.273988381 200 690 391 690 c 7
 583 690 743 550.391682708 743 363 c 7
 743 223.68135647 629.734104046 87.5654952077 565 54 c 5
EndSplineSet
Position2: "cpsp-1" dx=0 dy=0 dh=50 dv=100
Substitution2: "salt-1" Q.alt
Substitution2: "c2pc-1" q.pcap
Substitution2: "c2sc-1" q.smcp
EndChar

StartChar: R
Encoding: 82 82 43
Width: 734
VWidth: 1159
Flags: HMW
AnchorPoint: "Bottom" 357 -15 basechar 0
AnchorPoint: "Top" 284 699 basechar 0
LayerCount: 2
Back
SplineSet
178 371 m 13
 219 370 240 367 281 367 c 7
 427 367 456 455.624023438 456 509 c 7
 456 569.38671875 395 665 279 665 c 7
 248 665 185 658 181 615 c 4
 174 538.372070312 176 447.627929688 178 371 c 13
12 693 m 5
 55 692 80 691 123 691 c 4
 192 691 221 707 300 707 c 4
 433 707 543 623.553710938 543 520 c 4
 543 432.505859375 473 373.170898438 393 343 c 5
 512 140 606 6 740 4 c 5
 733 -33 l 5
 555 -38 381 153 307 323 c 5
 298 322 290 322 283 322 c 4
 242 322 219 326 178 327 c 5
 183 231 185 162 190 81 c 4
 192 44 217 39 272 34 c 5
 264 -10 l 5
 220.980060644 -0.858262886928 177.960121289 3.94586051795 134.784678701 3.94586051795 c 7
 97.6709470415 3.94586051795 60.4423114024 0.396012128874 23 -7 c 5
 16 34 l 5
 69 36 84 38 88 69 c 5
 93.3162505402 193.96926758 95.5236239017 277.988241571 95.5236239017 360.943477088 c 7
 95.5236239017 434.029110771 93.8102496759 506.289065339 91 605 c 5
 86 642 75 654 12 656 c 5
 12 693 l 5
EndSplineSet
Fore
SplineSet
236 372 m 1
 249.912621359 369.75 263.087378641 367 281 367 c 3
 346.782857143 367 403 412.913069221 403 491 c 3
 403 527.907401843 362.674186635 645 270 645 c 3
 257.412856487 645 254.989754735 642.113343716 243 565 c 0
 233.387433476 505.039833962 232.333333333 432.611436188 236 372 c 1
12 693 m 1
 46.3603603604 692 72.6396396396 691 142 691 c 0
 227.593220339 691 237.480225989 707 300 707 c 0
 438.473251029 707 553 619.430053059 553 513 c 0
 553 426.000176554 462 355.373626374 421 337 c 1
 546.426512968 151.492230802 618.654178674 18.8879056047 743 17 c 1
 733 -33 l 1
 530.211267606 -37.691011236 319 174.731707317 274 301 c 1
 262 303 l 0
 253.40952381 304.6 248.59047619 305.4 240 307 c 1
 244.2 235.195121951 246.951212992 186.432290942 261 123 c 0
 272.266666667 73.7882064535 307 59 337 55 c 1
 325 -10 l 1
 261.671197312 -0.858262886928 227.696941658 3.94586051795 134.784678701 3.94586051795 c 3
 97.6709470415 3.94586051795 60.4423114024 0.396012128874 23 -7 c 1
 14 52 l 1
 44.3194444444 38.015037594 73.2777777778 55.6090225564 81 102 c 1
 91.2625044024 212.843294048 95.5236239017 287.365134658 95.5236239017 360.943477088 c 3
 95.5236239017 416.959781625 92.2952039842 472.34324643 87 548 c 1
 76.253164557 617.921568627 55.8101265823 641.274509804 12 643 c 1
 12 693 l 1
EndSplineSet
Position2: "cpsp-1" dx=0 dy=0 dh=50 dv=100
Substitution2: "salt-1" R.alt
Substitution2: "c2pc-1" r.pcap
Substitution2: "c2sc-1" r.smcp
EndChar

StartChar: S
Encoding: 83 83 44
Width: 575
VWidth: 1159
Flags: HW
AnchorPoint: "Bottom" 286 -15 basechar 0
AnchorPoint: "Top" 308 699 basechar 0
LayerCount: 2
Fore
SplineSet
28 209 m 1
 72 215 l 1
 72.732421875 222.748046875 90.9258052606 189.010762544 124 150 c 0
 166.8671875 99.4384765625 260.374023438 58 327 58 c 3
 360.080078125 58 390 106.580078125 390 144 c 3
 390 255.940429688 263.889226696 278.628141196 176 327.078125 c 0
 133.088867188 350.733398438 67 394.344726562 67 488 c 3
 67 565.599609375 117 704 309 704 c 3
 354.411132812 704 395.427787119 694.949902199 410 691 c 0
 421.977768538 687.753340438 448.698412698 666 463 702 c 1
 511 690 l 1
 484 603.963867188 497.944441507 629.981109573 518 559 c 0
 523.913085938 538.072265625 513.951171875 500.5078125 450 516 c 1
 450 516 450.637876224 532.270316024 440 550 c 0
 408.442382812 602.595703125 352.98828125 652 283 652 c 3
 280.431640625 652 202 655.12109375 202 556 c 3
 202 467.922851562 289.523891929 469.542467643 370 424 c 0
 486.679534389 357.969546405 528 287.473632812 528 197 c 3
 528 112.811523438 473 -4 281 -4 c 3
 230.38671875 -4 177.215773143 6.56621558826 131 18 c 0
 114.09765625 22.181640625 114.724609375 20.181640625 97 -14 c 1
 57 -6 l 1
 58.0361328125 70.46875 54.9287109375 90.41796875 28 209 c 1
EndSplineSet
Position2: "cpsp-1" dx=0 dy=0 dh=50 dv=100
Substitution2: "c2pc-1" s.pcap
Substitution2: "c2sc-1" s.smcp
EndChar

StartChar: T
Encoding: 84 84 45
Width: 728
VWidth: 1159
Flags: HMW
AnchorPoint: "Bottom" 358 -15 basechar 0
AnchorPoint: "Top" 358 699 basechar 0
LayerCount: 2
Back
SplineSet
125 688 m 4
 250.177127417 683.976157558 375.31580054 682.171572875 500.827254201 682.171572875 c 7
 549.48688767 682.171572875 598.206798689 682.828427124 647 684 c 4
 663.842105263 684 679.631578947 691.2 687 702 c 5
 719 682 l 5
 706.272727273 646 690.818181818 606 689 559 c 5
 640 567 l 5
 636.462154265 541.333333333 627.504415192 524.053744894 635 550 c 4
 648 595 512 607 451 608 c 5
 442.633307652 493.740410847 439.127833418 381.280901679 439.127833418 266.855986024 c 7
 439.127833418 233.22441846 440.255017861 199.238878522 440 165 c 4
 441.424678646 68.4124126452 443.990990991 59.9701492537 523 58 c 5
 513 -7 l 5
 474.745360611 -1.66214334103 425.212355377 0.945200232948 374.874776298 0.945200232948 c 7
 272.048779143 0.945200232948 247.969467552 -3.11635527979 203 -11 c 5
 189 60 l 5
 271 67.1301269531 269 94.2661865502 271 118 c 4
 278.08276253 182.344526361 286.559011868 325.783772532 286.559011868 444.019480346 c 7
 286.559011868 521.913219056 282.473554096 588.279490138 271 610 c 5
 232.531914894 611.5 195.971488432 607.979324229 158 597 c 4
 94.6816879192 588.650728348 82.9166666667 594 53 545 c 5
 -2 573 l 5
 18.6666666667 613.95 48.6333333333 696.9 60 720 c 5
 73 699 138.006170278 688.544564262 125 688 c 4
EndSplineSet
Fore
SplineSet
125 688 m 0
 250.177127417 683.976157558 375.31580054 682.171572875 500.827254201 682.171572875 c 3
 549.48688767 682.171572875 598.192735405 684 647 684 c 0
 663.842105263 684 679.631578947 691.2 687 702 c 1
 719 682 l 1
 702.454545455 630.195121951 682.363636364 572.634146341 680 505 c 1
 629 513 l 1
 634 525 631.942171629 534.710858143 635 550 c 0
 644.186109916 595.930549579 512 607 451 608 c 1
 442.633307652 493.740410847 439.127833418 381.280901679 439.127833418 266.855986024 c 3
 439.127833418 233.22441846 439.495013306 199.236104116 440 165 c 0
 441.424678646 68.4124126452 443.990990991 59.9701492537 523 58 c 1
 513 -7 l 1
 474.745360611 -1.66214334103 425.212355377 0.945200232948 374.874776298 0.945200232948 c 3
 272.048779143 0.945200232948 247.969467552 -3.11635527979 203 -11 c 1
 189 60 l 1
 271 67.1301269531 268.393967379 94.3250661068 271 118 c 0
 278.08276253 182.344526361 286.559011868 325.783772532 286.559011868 444.019480346 c 3
 286.559011868 521.913219056 282.473554096 588.279490138 271 610 c 1
 232.531914894 611.5 196.570440375 604.633403561 158 597 c 4
 90.9957573571 583.739315926 78.6261904762 592.269230769 47 515 c 1
 -3 535 l 1
 18 586.535714286 48.45 690.928571429 60 720 c 1
 73 699 111.98915475 688.418236082 125 688 c 0
EndSplineSet
Position2: "cpsp-1" dx=0 dy=0 dh=50 dv=100
Substitution2: "c2pc-1" t.pcap
Substitution2: "c2sc-1" t.smcp
EndChar

StartChar: space
Encoding: 44 44 46
Width: 200
VWidth: 1159
Flags: HW
LayerCount: 2
Fore
SplineSet
17 -168 m 1
 3 -134 l 1
 37 -128 110.699402838 -88.1560338418 88 -36 c 0
 75 -5 43.5301223747 16.0388209029 16 30 c 0
 9 32.3333333333 5 42.1666666667 5 50 c 3
 5 58.1428571429 9.11433397628 64.0571669881 17 67 c 0
 43 81 61.4645481291 105.442849936 78 129 c 0
 81.1111111111 136 89.5555555556 143 98 143 c 3
 106 143 115.189988138 135.889013671 118 128 c 0
 129.289473684 105 155.569170049 83.4769433169 181 67 c 0
 188 64 194 58 194 50 c 1
 194 47 217 -74 17 -168 c 1
EndSplineSet
Position2: "cpsp-1" dx=0 dy=0 dh=7 dv=14
EndChar

StartChar: period
Encoding: 46 46 48
Width: 200
VWidth: 1159
Flags: HW
LayerCount: 2
Fore
SplineSet
183.25 28.599609375 m 0
 155.529930321 13.677952258 131.770243877 -5.31332869989 117.25 -33.7998046875 c 0
 114.296361541 -40.7998046875 106.911750284 -45 98.0498046875 -45 c 3
 90.0503627232 -45 80.7162853423 -40.7998046875 78.0498046875 -33.7998046875 c 0
 63.5666974815 -5.31332869989 42.4999657107 13.677952258 14.849609375 28.599609375 c 0
 7.849609375 30.9002598377 5.0498046875 40.0996529708 5.0498046875 47 c 3
 5.0498046875 55.8619455963 7.849609375 63.2465568535 14.849609375 66.2001953125 c 0
 42.4999657107 80.912464899 63.5666974815 102.312530003 78.0498046875 130.400390625 c 0
 80.7162853423 137.400390625 90.0503627232 143 98.0498046875 143 c 3
 106.911750284 143 114.296361541 137.400390625 117.25 130.400390625 c 0
 131.770243877 102.312530003 155.529930321 80.912464899 183.25 66.2001953125 c 0
 190.25 63.2465568535 194.450195312 55.8619455963 194.450195312 47 c 3
 194.450195312 40.0996529708 190.25 30.9002598377 183.25 28.599609375 c 0
EndSplineSet
Position2: "cpsp-1" dx=0 dy=0 dh=7 dv=14
EndChar

StartChar: dotlessi
Encoding: 305 305 50
Width: 263
VWidth: 1159
Flags: HMW
AnchorPoint: "Top" 136 465 basechar 0
LayerCount: 2
Fore
SplineSet
196 187 m 7
 196 155.690429688 203.291666667 103.015625 208 73 c 4
 210.249691389 55.7898608763 221.125 41 229 38 c 4
 240.022894965 34.5791015625 249.541666667 34.6669921875 258 34 c 5
 253 -10 l 5
 212.752397017 -4 167.343572443 1 124 1 c 7
 90.5625 1 50.4375 -6 17 -10 c 5
 12.00390625 32.9951171875 l 5
 24.4498605637 34.99609375 43.8988849403 40.2255859375 55 43 c 4
 56.2605329241 43.3095703125 65.5419921875 51.7568359375 72 98 c 4
 74.0234375 115.591796875 78 149.059570312 78 167 c 7
 78 187 74.6103515625 268.946289062 70 292 c 4
 68 302 54.0830078125 305 48 305 c 4
 48 305 48 304.850585938 31.5 304.799804688 c 5
 23 352 l 5
 44.7783203125 353.049804688 115.547851562 377.169921875 201 423 c 5
 219 401 l 5
 216.374023438 396.276367188 213.430664062 370.669921875 212.001953125 362.599609375 c 4
 202.936106818 298.599609375 196 204.875 196 187 c 7
EndSplineSet
Substitution2: "case-1" I
Substitution2: "pcap-1" i.pcap
Substitution2: "smcp-1" i.smcp
EndChar

StartChar: uniFB01
Encoding: 64257 64257 51
Width: 576
VWidth: 1159
Flags: HW
HStem: -7 33<326.576 383.392> -6 36<34 95.891 473.708 547.909> 1 32<191.619 271.026> 360 37<39 113 187 374.27> 701 55<287.006 403.458>
VStem: 114 71<42.7113 360 397 601.139> 396 65<39.2303 341.179>
LayerCount: 2
Back
SplineSet
398 743 m 4
 422.995091099 743 506.363636364 728.8 547 672 c 5
 545 632 524 621.16796875 448 569 c 5
 417.157714843 593.607380319 351.722222223 657 298 657 c 4
 158.790094965 657 240.679666412 555.021407575 237 491 c 4
 235.627908318 467.127390104 231 422.386138614 229 381 c 5
 265.847682119 383.5 299.152317881 383.5 336 386 c 4
 357.778320312 386.547081316 428.547851562 399.11671985 514 423 c 5
 532 401 l 5
 529.374023438 396.276367188 526.151444461 370.714400097 525.001953125 362.599609375 c 4
 515.936106818 298.599609375 509 204.875 509 187 c 4
 509 155.690429688 517.061913604 103.126360923 521 73 c 4
 523.249691389 55.7898608763 533.951601079 40.4977789755 542 38 c 4
 553.022894965 34.5791015625 562.541666667 34.6669921875 571 34 c 5
 566 -10 l 5
 525.752397017 -4 480.343572443 1 437 1 c 4
 403.5625 1 363.4375 -6 330 -10 c 5
 325.00390625 32.9951171875 l 5
 337.449860564 34.99609375 356.887645391 40.2709518147 368 43 c 4
 369.260532924 43.3095703125 380.75818574 51.5011494851 385 98 c 4
 387.0234375 120.180961277 391 162.379458219 391 185 c 4
 391 205 387.001596098 286.832864696 383 310 c 4
 381.272727273 320 368.359326895 322.70236151 364 323 c 4
 317.131578948 326.2 273.868421052 327.8 227 331 c 5
 225 310.850746269 225 292.911129677 225 286 c 4
 225 212.577405858 229.928183619 144.162780189 237 72 c 4
 238.971141164 51.8859276216 251.032217876 41.6468294932 272 40 c 4
 281.846243894 38 291.068493151 38 301 38 c 5
 299 -7 l 5
 254.666666667 -2 191.333333333 0 147 0 c 4
 108.509433962 0 49.4905660377 -3 11 -7 c 5
 10 38 l 5
 19.1666666667 38 29.1847291019 39.8980618579 40 41 c 4
 81.7945679672 45.2583333333 86.6545438454 62.0864772878 93 99 c 4
 100.806002588 144.40998264 107 202.783783784 107 259 c 4
 107 274.210348747 105 302.659574468 105 331 c 5
 76.6216216218 329 49.3783783784 323 21 321 c 5
 21 389 l 5
 49.3783783784 387 76.6216216218 383 105 381 c 5
 105 423.65625 105 472.875 105 486 c 4
 105 591.952606635 156.828375461 643.044699135 244 693 c 4
 299.501542102 724.806178316 330.696296296 743 398 743 c 4
EndSplineSet
Fore
SplineSet
364 335 m 0
 317.131578948 338.2 273.868421052 339.8 227 343 c 1
 225 317.477611941 225 294.754097591 225 286 c 0
 225 212.577405858 229.928183619 144.162780189 237 72 c 0
 238.971141164 51.8859276216 251.032217876 41.6468294932 272 40 c 0
 281.846243894 38 291.068493151 38 301 38 c 1
 299 -7 l 1
 254.666666667 -2 191.333333333 0 147 0 c 0
 108.509433962 0 49.4905660377 -3 11 -7 c 1
 10 38 l 1
 19.1666666667 38 29.1847291019 39.8980618579 40 41 c 0
 81.7945679672 45.2583333333 86.6545438454 62.0864772878 93 99 c 0
 100.806002588 144.40998264 107 202.783783784 107 259 c 0
 107 276.745406871 105 309.936170213 105 343 c 1
 76.6216216218 341 49.3783783784 335 21 333 c 1
 21 401 l 1
 49.3783783784 399 76.6216216218 395 105 393 c 1
 105 435.65625 105 484.875 105 498 c 0
 105 603.952606635 156.828375461 655.044699135 244 705 c 0
 299.501542102 736.806178316 330.696296296 755 398 755 c 0
 422.995091099 755 506.363636364 738.4 547 672 c 1
 545 632 524 621.16796875 448 569 c 1
 417.157714843 596.962932181 351.722222223 669 298 669 c 0
 158.790094965 669 240.679666412 567.021407575 237 503 c 0
 235.627908318 479.127390104 231 434.386138614 229 393 c 1
 265.847682119 395.5 299.152317881 395.5 336 398 c 0
 357.778320312 398.369649538 428.547851562 406.862648548 514 423 c 1
 532 401 l 1
 529.374023438 396.276367188 526.151444461 370.714400097 525.001953125 362.599609375 c 0
 515.936106818 298.599609375 509 204.875 509 187 c 0
 509 155.690429688 517.061913604 103.126360923 521 73 c 0
 523.249691389 55.7898608763 533.951601079 40.4977789755 542 38 c 0
 553.022894965 34.5791015625 562.541666667 34.6669921875 571 34 c 1
 566 -10 l 1
 525.752397017 -4 480.343572443 1 437 1 c 0
 403.5625 1 363.4375 -6 330 -10 c 1
 325.00390625 32.9951171875 l 1
 337.449860564 34.99609375 356.887645391 40.2709518147 368 43 c 0
 369.557128906 43.3095703125 383.760111797 51.5011494851 389 98 c 0
 391.0234375 120.180961277 395 162.379458219 395 185 c 0
 395 206.92 389.002394147 296.608819706 383 322 c 0
 381.272727273 332 368.359326895 334.70236151 364 335 c 0
EndSplineSet
LCarets2: 1 298
Ligature2: "liga-1" f i
EndChar

StartChar: uni0237
Encoding: 567 567 52
Width: 265
VWidth: 1159
Flags: HMW
LayerCount: 2
Fore
SplineSet
-27 -328 m 1
 -21.3571428571 -272.527272727 -20.7861728452 -258.612691618 12 -215 c 0
 27.2377811917 -194.730459691 41.2961329837 -163.500440944 50 -140 c 0
 60 -113 71 -17 71 96 c 3
 71 230.928020724 64.4949526749 253.227034196 55 301 c 0
 52.8678547114 311.727689484 41.3308823529 320 22 320 c 3
 9.37142857143 320 0.758928571429 320 -4 320 c 1
 -10 362 l 1
 63.9718309859 373.189189189 116.605633803 386.243243243 192 431 c 1
 212 408 l 1
 207 395.884615385 201.436470003 372.380409512 199 363 c 0
 187.571428571 319 183 217 183 196 c 3
 183 139 183 -17 183 -84 c 3
 183 -123.980392157 172.513052236 -166.979696522 159 -188 c 0
 132 -230 91.3834005019 -256.793463705 46 -276 c 0
 27.0660834633 -284.012950796 3.29411764706 -321.573529412 2 -335 c 1
 -27 -328 l 1
EndSplineSet
EndChar

StartChar: U
Encoding: 85 85 53
Width: 815
VWidth: 1159
Flags: HW
LayerCount: 2
Fore
SplineSet
10 689 m 1
 46.7376573088 685.5 105.824056147 683.75 168.125 683.75 c 3
 234.100086281 683.75 303.479292494 685.5 356 689 c 5
 360 641 l 5
 305.905837565 636.957095858 257.621617628 631.277096667 259 548 c 0
 259.158393446 540.621923569 248 280.359095982 248 252 c 0
 248 206.739726027 266.846153846 166 292 140 c 0
 330.644425653 100.055608958 371.187192088 74 485 74 c 3
 513.006848994 74 565 90 590 118 c 0
 629.604144853 162.356642236 631.007438531 193.972832054 633 257 c 0
 635.759085781 344.273273933 633.56038234 488.209412498 628 574 c 0
 624.243708613 639.787264358 575.142857143 647.714285714 517 637 c 1
 517 692 l 1
 558.805648452 687.878263908 645.582796237 684.796652821 718.796500645 684.796652821 c 3
 758.941701233 684.796652821 793.893383831 686.299374976 808 690 c 1
 810 637 l 1
 773.102803738 647.757575758 733.56068958 644.021043124 726 594 c 0
 724 583.612361183 720.118894178 472.20397174 719 255 c 0
 718.582684274 173.989092083 690.556422447 119.176797532 649 74 c 0
 595.648 16 516.668 -10 402 -10 c 3
 289.936228814 -10 236.13583692 14.3639576818 193 44 c 0
 134.779220779 84 98 153.143452783 98 213 c 0
 98 241.483529373 102.900467269 536.603661103 103 551 c 0
 103.341284126 614.466814241 84.3224671656 622.485836489 5 633 c 1
 10 689 l 1
EndSplineSet
Position2: "cpsp-1" dx=0 dy=0 dh=50 dv=100
Substitution2: "c2pc-1" u.pcap
Substitution2: "c2sc-1" u.smcp
EndChar

StartChar: V
Encoding: 86 86 54
Width: 841
VWidth: 1159
Flags: HW
AnchorPoint: "Bottom" 417 -15 basechar 0
AnchorPoint: "Top" 431 704 basechar 0
LayerCount: 2
Back
SplineSet
269 694 m 5x60
 269 658 l 5
 241 659 221 658 209 656 c 4
 178 650 186 634 192 620 c 6
 448 102 l 5
 667 613 l 6
 674 631 673 654 647 656 c 4
 641 656 599 658 594 658 c 5
 595 698 l 5
 630.908082394 690.912878475 674.852531431 687.843940271 716.180707465 687.843940271 c 7
 762.324241673 687.843940271 805.206314112 691.66969722 830 698 c 5
 835 656 l 5
 796 655 760 653 727 599 c 4
 705 562.866210938 540 221.599609375 469 60 c 4
 458 34 447 0 443 -27 c 5
 397 -27 l 5
 396 0 384 21 369 57 c 4
 322 169.8125 207 405.51171875 95 612 c 4
 73 653 53 651 6 658 c 5x60
 11 696 l 5xa0
 56.0766726843 688.556145795 88.8397974971 686.071915039 119.686023744 686.071915039 c 7
 163.429124097 686.071915039 203.317315052 691.067737279 269 694 c 5x60
EndSplineSet
Fore
SplineSet
346 694 m 1
 346 691.064453125 346 666.280273438 346 646 c 1
 334 646 318.38119583 644.783892147 298 644 c 0
 246 642 262.340109459 605.731244831 271 589 c 2
 477 191 l 1
 619 569 l 2
 631.13332484 600.93872026 630.104492188 645 583 645 c 0
 569 645 525 645 523 642 c 1
 524 698 l 1
 559.908203125 690.913085938 674.852531431 687.843940271 716.180707465 687.843940271 c 3
 762.324241673 687.843940271 805.206314112 691.66969722 830 698 c 1
 835 636 l 1
 827 655 771 635 713 544 c 0
 687.013030031 510.010110692 537.225027496 220.640192832 470 60 c 0
 459.797688164 33.647895703 459 8 455 -27 c 1
 387 -27 l 1
 388 6 378.607353226 21.8119510525 366 58 c 0
 325.185097557 174.115381644 229.455417583 368.294529531 104 574 c 0
 67.2994538529 640.646890431 34 646 6 643 c 1
 11 696 l 1
 76.0766726843 688.556145795 88.8397974971 686.071915039 119.686023744 686.071915039 c 3
 188.429124097 686.071915039 280.317382812 693.067382812 346 694 c 1
EndSplineSet
Position2: "cpsp-1" dx=0 dy=0 dh=50 dv=100
Substitution2: "c2pc-1" v.pcap
Substitution2: "c2sc-1" v.smcp
EndChar

StartChar: W
Encoding: 87 87 55
Width: 1130
VWidth: 1159
Flags: HW
AnchorPoint: "Bottom" 578 -15 basechar 0
AnchorPoint: "Top" 579 699 basechar 0
LayerCount: 2
Back
SplineSet
1121 693 m 1x70
 1127 657 l 1
 1051 628.323242188 1046 600.708007812 1000 486 c 0
 871 176 830 81 814 42 c 0
 804 19 795 7 793 -15 c 1
 757 -16 l 1
 756 2 753 19 737 58 c 0
 685.33984375 177 634.672851562 296 585 415 c 1
 477.323242188 151 440.088867188 60 426 23 c 0
 419 3 414 -7 413 -21 c 1
 376 -21 l 1
 372 -1 367 24 340 89 c 0
 237 345.071289062 132 550.932617188 123 567 c 0
 117 579.173828125 112 588.913085938 89 623 c 0
 63 654 33 652 5 654 c 1
 11 695 l 1
 42 686 93.25 682 145.375 682 c 3
 197.5 682 250.5 686 285 693 c 1
 293 659 l 1x70
 235 659 212 638.53125 212 600 c 0
 212 588 215 576 220 565 c 10
 421 107 l 1
 563 461 l 1
 510.428710938 586.375 476.0546875 623.561523438 471 631 c 1
 453 656 424 656 399 661 c 1
 405 690 l 1
 438.916666667 684.958333333 481.026041667 682.4375 524.877242477 682.4375 c 3xb0
 576.701388889 682.4375 630.958333333 685.958333333 677 693 c 1x70
 681 658 l 1
 675 658 629 657 619 656 c 0xb0
 582 651 583 627 590 609 c 2
 800 107 l 1
 859 250 912 390 955 515 c 0
 985 607.514648438 973 663.455078125 865 657 c 1
 865 688 l 1
 891.424707408 684.754860494 927.735594389 682.584305724 968.652078053 682.584305724 c 3
 1015.99540112 682.584305724 1069.50477037 685.490279012 1121 693 c 1x70
EndSplineSet
Fore
SplineSet
1121 693 m 1
 1130 644 l 1
 1041 596.646484376 1030.93698895 537.348874336 949 333 c 0
 858 129 817.801757812 67.9951171875 806 42 c 0
 795.012695312 19.205078125 790.095703125 8 787 -15 c 1
 741 -17 l 1
 739.200195312 11.486328125 738.689453125 20.3671875 722 59 c 0
 676.640625 164 639.306640625 269 590 374 c 1
 502 211 434.45607228 56.400411282 424 22 c 0
 419.153846154 2.45454545455 415.692307692 -2.20454545455 415 -21 c 1
 368 -21 l 1
 360.222222222 8.81818181818 355.655374015 47.9050756435 316 143 c 0
 240.428571429 337.768032669 140.528403663 491.344542962 135 500 c 0
 121.854492188 520.581054688 114.962764025 534.702372866 78 588 c 0
 52.4823067644 624.794664449 28 632.882352941 5 636 c 1
 11 695 l 1
 42 686 93.25 682 145.375 682 c 3
 197.5 682 286.5 686 321 693 c 1
 332 648 l 1
 305 647 276 635.0625 276 581 c 0
 276 562.485351562 287.933348905 510.499968149 296 494 c 2
 450 179 l 1
 559 433 l 1
 494.857421875 572.75 449.736328125 606.124023438 443 613 c 1
 427 625 407 639 389 650 c 1
 398 690 l 1
 437.575195312 684.958007812 498.709960938 682.4375 549.876953125 682.4375 c 3
 594.887695312 682.4375 684.01171875 685.958007812 724 693 c 1
 728 647 l 1
 723 647 708.506835938 647.6484375 704 647 c 0
 636.653320312 637.31640625 642.736328125 599.509765625 651 579 c 2
 811 188 l 1
 830 231 848.99153233 265.871538254 889 398 c 0
 933 543.310546876 944 655 827 651 c 1
 827 688 l 1
 853.424804688 684.754882812 927.735594389 682.584305724 968.652078053 682.584305724 c 3
 1015.99540112 682.584305724 1069.50477037 685.490279012 1121 693 c 1
EndSplineSet
Position2: "cpsp-1" dx=0 dy=0 dh=50 dv=100
Substitution2: "c2pc-1" w.pcap
Substitution2: "c2sc-1" w.smcp
EndChar

StartChar: X
Encoding: 88 88 56
Width: 761
VWidth: 1159
Flags: HW
AnchorPoint: "Bottom" 371 -15 basechar 0
AnchorPoint: "Top" 364 699 basechar 0
LayerCount: 2
Back
SplineSet
13 685 m 5x90
 57.995726729 682.979465194 91.5563485075 681.795874747 121.969454011 681.795874747 c 7
 169.962021553 681.795874747 210.11678477 684.743198768 275 692 c 5
 276 658 l 5
 270 656 252 655 237 653 c 4
 212 648 210.559570312 629.696289062 221 615 c 6
 378 394 l 5
 434.1953125 471.537109375 479.984375 542.701171875 506 582 c 4
 520 602 531 631 498 643 c 4
 492 645 448 654 442 656 c 5
 447 686 l 5
 487.585712798 683.584183762 528.871765767 681.868707696 570.181401645 681.868707696 c 7
 614.37006491 681.868707696 658.585712798 683.831632476 702 689 c 5
 704 654 l 5
 686 652 638 646 594 603 c 4
 577.572265625 586.200195312 563.198242188 567.299804688 402 372 c 5
 457 307.396484375 623 112.559570312 643 90 c 4
 680 49 699 46 749 36 c 5
 742 -2 l 5x60
 713.157233926 3.8521554354 672.607337968 6.55911179773 629.84557086 6.55911179773 c 7
 570.309176868 6.55911179773 506.485189515 1.31182235955 464 -8 c 5
 461 25 l 5
 472 31 498 35 510 39 c 4
 546 51 532 80 517 101 c 4
 485 148.5859375 435 223.068359375 362 311 c 5
 293 222.696289062 237 137.473632812 201 81 c 4
 190 64 183 36 215 31 c 4
 229 29 253 26 263 25 c 5
 263 -6 l 5
 215.659693502 -2.91258870663 174.674126 -0.619519787796 134.593382787 -0.619519787796 c 7
 96.7821846861 -0.619519787796 59.7762418928 -2.66025403784 19 -8 c 5
 17 25 l 5
 27 27 79 38 121 79 c 4
 137 94.357421875 148 108.690429688 335 337 c 5
 127 588.328125 117 600.638671875 102 615 c 4
 66 648 33 655 12 659 c 5
 13 685 l 5x90
EndSplineSet
Fore
SplineSet
13 685 m 1
 57.995726729 682.979465194 91.5563485075 681.795874747 121.969454011 681.795874747 c 3
 193.796708345 681.795874747 253.893647058 684.743198768 351 692 c 1
 352 649 l 1
 350 649 343.980295237 649.075755469 340 648 c 0
 303 638 308.213627592 608.521998447 316 583 c 0
 334 524 363.617423657 469.63925684 392 420 c 1
 409 444 430.657442938 497.643607344 440 521 c 0
 470 596 476.382717752 633.996379154 425 640 c 0
 412.087838844 641.508673018 403.9 643.529411765 392 644 c 1
 402 691 l 1
 457.412277941 685.660381644 513.780740745 681.868707696 570.181401645 681.868707696 c 3
 614.37006491 681.868707696 658.585712798 683.831632476 702 689 c 1
 704 643 l 1
 684.036363636 639.666666667 666.086569291 621.544472603 582 558 c 0
 566.486418737 546.276340112 444 422 414 384 c 1
 460.556016598 329.247375055 603.682005406 160.879621995 618 145 c 0
 684.846341024 70.8628978919 689.320754717 66.4074074074 753 51 c 1
 742 -2 l 1
 713.157233926 3.8521554354 672.607337968 6.55911179773 629.84557086 6.55911179773 c 3
 540.15427391 6.55911179773 444.003737769 1.31182235955 380 -8 c 1
 377 34 l 1
 387 34 396.042433834 33.8646065427 409 38 c 0
 456 53 432.650526371 113.150040092 421 142 c 0
 407.682355234 174.978211056 389.835820896 224.572440733 349 281 c 1
 306.678571429 226.678423447 284.052677861 169.473807629 270 132 c 0
 246 68 250.189708373 43.0810291627 292 38 c 0
 321.929430181 34.3628020361 322 32 322 32 c 1
 323 -6 l 1
 253.539194952 -2.91258870663 193.402480075 -0.619519787796 134.593382787 -0.619519787796 c 3
 96.7821846861 -0.619519787796 59.7762418928 -2.66025403784 19 -8 c 1
 17 35 l 1
 34 60 62.5509979427 61.2015782396 138 122 c 0
 151.732333324 133.0658083 240 228 321 326 c 1
 174 512 117.096970451 579.169186287 108 587 c 0
 52.5057676881 628.539390141 33 640 12 647 c 1
 13 685 l 1
EndSplineSet
Position2: "cpsp-1" dx=0 dy=0 dh=50 dv=100
Substitution2: "c2pc-1" x.pcap
Substitution2: "c2sc-1" x.smcp
EndChar

StartChar: Y
Encoding: 89 89 57
Width: 735
VWidth: 1159
Flags: HW
AnchorPoint: "Bottom" 393 -15 basechar 0
AnchorPoint: "Top" 387 699 basechar 0
LayerCount: 2
Back
SplineSet
274 651 m 1xb0
 274 651 252 649 237 649 c 0xd0
 219 649 204 639 215 622 c 0
 306 476.708007812 396 373.2265625 401 368 c 1
 469 478.5 534 584.791015625 536 589 c 0
 548 609 554 633 528 643 c 0
 516 648 497 650 481 652 c 1
 483 691 l 1
 506.158416846 687.343407866 568.314609615 682.572593564 628.046975448 682.572593564 c 3
 666.327781965 682.572593564 703.613081447 684.532048312 729 690 c 1xb0
 729 647 l 1
 664 645 639 627 611 600 c 0
 547 534.271484375 480 420.551757812 431 335 c 1
 430 285 426 233 444 80 c 0
 449 41 469 36 550 32 c 1
 545 -11 l 1
 490.359793369 -3.57312618602 440.297000037 0.770765249282 390.099720947 0.770765249282 c 3
 344.365920606 0.770765249282 298.520487799 -2.83496465054 249 -11 c 1
 237 31 l 1
 316 43.8798828125 353 55.83984375 353 100 c 2
 349 298 l 1
 342 309.404296875 241 469.0703125 114 608 c 0
 87 636 65 636 6 652 c 1
 10 692 l 1
 45.1714158843 688.297745696 113.467325179 684.214750089 174.244228645 684.214750089 c 3xd0
 211.964454466 684.214750089 246.788458268 685.787466223 269 690 c 1
 274 651 l 1xb0
EndSplineSet
Fore
SplineSet
353 636 m 1
 353 636 335.935551857 635.947692167 329 635 c 0
 314.36328125 633 289.723166228 619.765844051 294 607 c 0
 344.861459567 481.5747637 408.827956989 409.156557579 412 405 c 1
 437.688888889 468.5 462.826019041 529.036249047 463 532 c 0
 482.5 565.555555556 490.138346931 608.288174401 454 628 c 0
 443 634 431.80859375 636 428 637 c 1
 430 691 l 1
 453.158203125 687.34375 568.314609615 682.572593564 628.046975448 682.572593564 c 3
 666.327781965 682.572593564 703.613081447 684.532048312 729 690 c 1
 728 628 l 1
 670 638.285714286 627.310701454 589.687912464 583 554 c 0
 527.869537671 509.597834177 485.695726496 433.065266826 459 362 c 1
 457.461538462 315.333333333 450.582782452 269.305667668 479 124 c 0
 491.30237638 66.1947604831 521.702933027 51.0833333333 553 51 c 1
 546 -11 l 1
 491.359754013 -3.57267244696 441.296924621 0.771484375 391.099609375 0.771484375 c 3
 343.421101436 0.771484375 295.626214158 -2.83446581408 244 -11 c 1
 224 50 l 1
 285.060344828 57.719811481 321 94.9539846692 321 161 c 2
 319 288 l 1
 314 320 265.300939231 439.960501397 131 568 c 0
 93.9483517119 606.37371422 57.6794871795 608.909090909 5 637 c 1
 10 692 l 1
 45.1714158843 688.297745696 113.467325179 684.214750089 174.244228645 684.214750089 c 3
 211.964454466 684.214750089 322.788085938 685.787109375 345 690 c 1
 353 636 l 1
EndSplineSet
Position2: "cpsp-1" dx=0 dy=0 dh=50 dv=100
Substitution2: "c2pc-1" y.pcap
Substitution2: "c2sc-1" y.smcp
EndChar

StartChar: Z
Encoding: 90 90 58
Width: 710
VWidth: 1159
Flags: HW
AnchorPoint: "Bottom" 357 -15 basechar 0
AnchorPoint: "Top" 366 699 basechar 0
LayerCount: 2
Back
SplineSet
12 563 m 1
 59 672 49 709 76 719 c 1
 96 694.189453125 132 685.918945312 144 685 c 0
 176.526367188 683.471679688 533.125 681.942382812 640 683.533203125 c 0
 651.415039062 683.935546875 659.982421875 684.420898438 665 685 c 1
 677 663 l 1
 657.573242188 640.099609375 l 0
 168 41 l 1
 244 41 321 39 397 39 c 0
 553 39 646 80 671 155 c 1
 698 141 l 9
 661 50 649 14 624 -27 c 1
 603 -16 587 -3 503 -2 c 0
 352 0 108 8 29 1 c 1
 19 28 l 1
 58 49 90.6767578125 85.4267578125 116 116 c 0
 257 287.215820312 401 463.65234375 536 638 c 0
 540 642 l 1
 176 642 l 2
 119 642 78 622.393554688 40 545 c 1
 12 563 l 1
EndSplineSet
Fore
SplineSet
7 531 m 1
 78.0576923077 665.153846154 29.5714285714 714 87 723 c 1
 98.8524064171 703.189453125 112.995273288 692.133980445 126 689 c 0
 159.019596687 681.042680127 525.809301634 678.299480603 635 685.533203125 c 0
 645.957797759 686.259141045 654.183125 687.63128459 659 689 c 1
 671 664 l 1
 652.573242188 640.099609375 l 0
 251 58 l 1
 262.615720524 55 274.384279476 54 286 54 c 0
 463.848420407 54 647 133 669 192 c 1
 700 172 l 1
 661 61.5 648.351351351 17.7857142857 622 -32 c 1
 585.782608696 -21.1111111111 585.587317917 -6.18774352097 503 -4 c 0
 352 6.40112962635e-016 108 16 29 2 c 1
 14 41 l 1
 50.248447205 53.5940594059 75.0165102582 89.3746832232 95 118 c 0
 209.790625 282.431640624 326.6875 452.3046875 432 624 c 0
 434 628 l 1
 186 627 l 2
 135.833854639 626.797717156 54.2898550725 511.709694604 43 507 c 1
 7 531 l 1
EndSplineSet
Position2: "cpsp-1" dx=0 dy=0 dh=50 dv=100
Substitution2: "c2pc-1" z.pcap
Substitution2: "c2sc-1" z.smcp
EndChar

StartChar: parenleft
Encoding: 40 40 59
Width: 383
VWidth: 1515
Flags: HW
LayerCount: 2
Fore
SplineSet
342 719 m 1
 373 671 l 1
 194.977112787 584.486470238 109 435.00725 109 214 c 3
 109 -10.1514803536 180.279802299 -138.026891945 371 -241 c 1
 345 -297 l 1
 149.145296552 -189.830662083 37 -16.1980453831 37 214 c 3
 37 442.735654762 149.866666667 617.951160714 342 719 c 1
EndSplineSet
Position2: "cpsp-1" dx=0 dy=0 dh=50 dv=100
Position2: "'case' vertical ajustments for all-caps-1" dx=0 dy=125 dh=0 dv=0
EndChar

StartChar: zero
Encoding: 48 48 63
Width: 502
VWidth: 1159
Flags: HW
LayerCount: 2
Fore
SplineSet
229 340 m 3
 194.584897358 340 183 290.559106649 183 259 c 3
 183 149.53729986 199.636826739 50 279 50 c 3
 310.587801688 50 322 89.9886378307 322 134 c 3
 322 249.437668794 310.633333333 340 229 340 c 3
260 388 m 3
 366.235384616 388 453 300.396658459 453 194 c 3
 453 90.6567749887 371.837998822 7 261 7 c 3
 149.949283379 7 61 91.3497106516 61 194 c 3
 61 297.899665537 152.655712995 388 260 388 c 3
EndSplineSet
Substitution2: "'zero' Slashed Zero lookup 22-1" zero.alt
Substitution2: "dnom-1" zero.denom
Substitution2: "numr-1" zero.numerator
Substitution2: "lnum-1" zero.proportionallining
Substitution2: "tnum-1" zero.tabulartext
EndChar

StartChar: one
Encoding: 49 49 64
Width: 371
VWidth: 1159
Flags: HW
LayerCount: 2
Fore
SplineSet
76 386 m 1
 139.27860881 381.885484376 247.517338102 382.83778125 315 396 c 1
 315 374 l 1
 263.307349398 361.538709677 264.374735715 343.989602554 259 320 c 0
 257.094726562 311.496 245 246.299 245 200 c 3
 245 149.261 256.921100253 74.0358900061 259 69 c 0
 271.438202247 37.9837398374 326.561797753 31.1803399852 321 34 c 1
 321 6 l 1
 233.866833448 12.4775390625 153.407952096 13.2900390625 66 6 c 1
 63 32 l 1
 48.3225806452 33.4717948718 102.202008704 39.32697108 127 73 c 0
 133.83147141 82.2764099962 147 102.4492 147 200 c 3
 147 292.507168635 138.638762369 312.628363024 136 318 c 0
 124.428571429 341.555555556 132.148857143 359.818111111 74 364 c 1
 76 386 l 1
EndSplineSet
Substitution2: "dnom-1" one.denom
Substitution2: "numr-1" one.numerator
Substitution2: "tnum-1" one.tabulartext
Substitution2: "lnum-1" one.proportionallining
EndChar

StartChar: two
Encoding: 50 50 65
Width: 445
VWidth: 1159
Flags: HW
LayerCount: 2
Fore
SplineSet
58 367 m 1
 84.217030084 414.314453125 122.99376166 458 190 458 c 3
 265.449275362 458 327 405 327 335 c 3
 327 248.063197026 181.057971014 128.323420074 168 109 c 1
 339 114 l 2
 390.496532409 113.952458298 413.697802198 132.652173913 418 147 c 1
 439 129 l 1
 439 129 373.484237074 31.4614325069 366 -22 c 1
 332.743169399 10 259.387180975 3.15985756639 187 4 c 0
 97 5 38 1 33 1 c 1
 27 18 l 1
 39.4120171674 72.338762215 215 157.070153853 215 315 c 3
 215 354.4625 180.395604396 376 148 376 c 3
 113.376344086 376 93.0537634409 365.384615385 78 353 c 1
 58 367 l 1
EndSplineSet
Substitution2: "dnom-1" two.denom
Substitution2: "numr-1" two.numerator
Substitution2: "tnum-1" two.tabulartext
Substitution2: "lnum-1" two.proportionallining
EndChar

StartChar: three
Encoding: 51 51 66
Width: 388
VWidth: 1159
Flags: HW
LayerCount: 2
Fore
SplineSet
81 -199 m 1
 185.79505814 -143.064676617 216 -117.044776119 216 -21 c 3
 216 58.1666666666 173.25 110.887387388 138 131 c 1
 134.444444445 131 108.666666666 119.2 90 120 c 1
 78 151 l 1
 127.342105263 167.327868852 203 219.032786885 203 317 c 3
 203 363.661971831 171.79032258 368 160 368 c 3
 121.88271605 368 114.774410774 356.725 87 347 c 1
 77 369 l 1
 88.8498185118 409.626064421 166.882032668 448 200 448 c 3
 260.609090909 448 313 404.636363636 313 342 c 3
 313 270.530232559 222.722772277 189.627906977 219 186 c 1
 267.347107438 171.595564075 336 102.506024096 336 6 c 3
 336 -138.3 141.162162162 -221.175 93 -228 c 1
 81 -199 l 1
EndSplineSet
Substitution2: "dnom-1" three.denom
Substitution2: "numr-1" three.numerator
Substitution2: "tnum-1" three.tabulartext
Substitution2: "lnum-1" three.proportionallining
EndChar

StartChar: four
Encoding: 52 52 67
Width: 463
VWidth: 1159
Flags: HW
LayerCount: 2
Fore
SplineSet
236 68.5 m 1
 236 130.945043103 249.6328125 199.788395322 232 242 c 1
 232 242 137.286953125 124.894455482 70 68.5 c 1
 236 68.5 l 1
347 413.5 m 1
 347.390008224 390.370117188 349.873765067 371.428133552 348 346.5 c 0
 340 240.06986532 339.01953125 188.683516479 332 68 c 1
 362.128433463 64.128964334 404.917847736 75.044946449 438 109.5 c 1
 438 109.5 454.3203125 102.83984375 459 100.5 c 1
 459 100.5 436.29624721 34.9245903201 420 -7 c 1
 390.381138393 3.79077148438 356.938536352 2.06811523438 332 2 c 1
 330 -29 332 -143 364 -169 c 1
 297.96 -195.880136986 260.706666667 -223.332191781 237 -252.5 c 1
 237 -252.5 210.029730903 -232.428351151 206 -223.5 c 1
 243.147058824 -195.334047109 232.25 -58 234 0 c 1
 88.6535615779 0 45.8804780876 1.17647058823 2 -20 c 1
 2 -20 -16.2053571429 -0.36254882813 -22 5 c 1
 -6.64338781575 21.1907942697 300.864772938 374.149911707 322.5 429.299804688 c 1
 347 413.5 l 1
EndSplineSet
Substitution2: "dnom-1" four.denom
Substitution2: "numr-1" four.numerator
Substitution2: "tnum-1" four.tabulartext
Substitution2: "lnum-1" four.proportionallining
EndChar

StartChar: five
Encoding: 53 53 68
Width: 362
VWidth: 1159
Flags: HW
LayerCount: 2
Fore
SplineSet
95 393.5 m 1
 164.029580966 395.450195312 255.460635717 395.425009147 272 398.5 c 0
 292.824932392 402.759765625 303.625469501 428.610351562 313 448.5 c 1
 313 448.5 335.540364583 437.672712054 341 435.5 c 1
 308.726472077 386.856283426 293.762976153 278.730806193 278 280.5 c 0
 245.159940733 283.372070312 188.713954741 277.5 122 277.5 c 1
 122 277.5 120.877441406 243.431963075 120 216.5 c 1
 204.923076923 224.961538462 316 180.410595414 316 48.5 c 3
 316 -96.6894086516 152.909090909 -207.931688805 40 -217 c 1
 40 -217 40.509765625 -185.129211426 37 -178 c 1
 110.24137931 -181.355450237 214 -104.870658694 214 8 c 3
 214 57.0624133695 178.465714286 121.967741935 63 111 c 1
 75.16 176.507246377 90.34 290.163643973 95 393.5 c 1
EndSplineSet
Substitution2: "dnom-1" five.denom
Substitution2: "numr-1" five.numerator
Substitution2: "tnum-1" five.tabulartext
Substitution2: "lnum-1" five.proportionallining
EndChar

StartChar: six
Encoding: 54 54 69
Width: 487
VWidth: 1159
Flags: HW
LayerCount: 2
Fore
SplineSet
376 625 m 1
 376 625 384.19921875 611.919921876 392 601 c 1
 259.993006993 525.282926829 194 431.496175915 194 274 c 3
 194 159.709743008 240.049183955 48 305 48 c 3
 331.301720163 48 340 67.7567940764 340 106 c 3
 340 220.865759719 306.973759232 303 254 303 c 3
 251.004836906 303 249 303 247 303 c 1
 240 340 l 1
 252.203006897 350.588109091 282.606882112 358 320 358 c 3
 381.824962963 358 442 271.518430209 442 178 c 3
 442 72.2079953984 340.024180882 -4 260 -4 c 3
 128.855799569 -4 74 136.379382885 74 214 c 3
 74 406.173375152 199.664132867 567.697668293 376 625 c 1
EndSplineSet
Substitution2: "dnom-1" six.denom
Substitution2: "numr-1" six.numerator
Substitution2: "tnum-1" six.tabulartext
Substitution2: "lnum-1" six.proportionallining
EndChar

StartChar: seven
Encoding: 55 55 70
Width: 420
VWidth: 1159
Flags: HW
LayerCount: 2
Fore
SplineSet
95 429 m 1
 96.2666666667 406.656432748 120.211440407 398.635422708 128 398 c 0
 248.801325893 388.14453125 423.909090909 394 438 402 c 1
 438 402 442.759765624 387.80078125 449 380 c 1
 396 352 184 -74 188 -166 c 1
 188 -166 115.359375 -172.439453124 67 -174 c 1
 161.887057035 -28.169072165 221.6294607 67.2477029269 311 247 c 0
 317.195873294 259.461852258 306.994352321 277.161057996 292 280 c 0
 237.904154549 290.2421875 209.62153036 295.875916253 149 288 c 0
 74.7309096047 278.35100017 64.443858168 266.018181818 43 226 c 1
 43 226 23.48046875 234.880859376 11 238 c 1
 17.5217391304 251.450704225 63.0853579187 385.470007062 71 429 c 5
 95 429 l 1
EndSplineSet
Substitution2: "dnom-1" seven.denom
Substitution2: "numr-1" seven.numerator
Substitution2: "tnum-1" seven.tabulartext
Substitution2: "lnum-1" seven.proportionallining
EndChar

StartChar: eight
Encoding: 56 56 71
Width: 468
VWidth: 1159
UnlinkRmOvrlpSave: 1
Flags: HW
LayerCount: 2
Fore
SplineSet
220 589 m 3
 204.980007994 589 177 578.038447325 177 526 c 3
 177 386 425 329.536613408 425 155 c 3
 425 63.2286175481 345.377938028 -1 235 -1 c 3
 162.084516471 -1 75 50.5344860896 75 146 c 3
 75 310.109719395 301 325.631035528 301 474 c 3
 301 506.135942746 277.329716371 589 220 589 c 3
248 625 m 3
 310.393682803 625 390 600.426407143 390 497 c 3
 390 358.037395467 182 345.686604313 182 192 c 3
 182 122.679550526 243.221947165 42 285 42 c 3
 303.839173828 42 323 59.1397678086 323 108 c 3
 323 168.389018194 293.660080998 237.169893018 255.142578124 270.799804688 c 0
 181.28413404 335.286148955 106 397.213337363 106 484 c 3
 106 581.45503823 205.22861365 625 248 625 c 3
EndSplineSet
Substitution2: "dnom-1" eight.denom
Substitution2: "numr-1" eight.numerator
Substitution2: "lnum-1" eight.proportionallining
Substitution2: "tnum-1" eight.tabulartext
EndChar

StartChar: uniFB00
Encoding: 64256 64256 73
Width: 642
VWidth: 1159
Flags: HW
HStem: -6 39<34 100.133 318.611 384.133 475.174 568.568> 1 32<191.619 269.028 475.619 566.018> 360 37<39 113 187 399 471 624> 669 55<273.933 387.321> 701 55<557.254 661.117>
VStem: 114 71<42.7113 360 397 588.557> 400 69<44.5312 360 397 610.446>
LayerCount: 2
Fore
SplineSet
388 394 m 1
 388 431.375 388 474.5 388 486 c 0
 388 526.023145071 394.444639136 558.923035689 406.7578125 586.991210938 c 1
 380.905047765 605.153668463 335.719188771 639 298 639 c 0
 158.790094965 639 242.11568587 536.922690266 237 473 c 0
 235.627908318 455.85512562 231 423.722772277 229 394 c 1
 264.027218865 397.229104512 298.086901493 398.030495841 327.834960938 399.916015625 c 0
 352.178656327 401.458985706 362.881665175 395.77029323 388 394 c 1
504 690 m 1
 511.546875 695.431640625 518.720176727 700.255095165 527 705 c 0
 582.501542102 736.806178316 613.696296296 755 681 755 c 0
 697.607476636 755 753 749 780 725 c 1
 778 685 757 674.16796875 681 622 c 1
 660.438476562 635.142578125 616.814814815 669 581 669 c 0
 441.790094965 669 524.471402395 559.60244179 520 491 c 0
 518.627908318 469.948698546 514 430.495049505 512 394 c 1
 555.390728476 398 594.609271524 398 638 402 c 1
 638 334 l 1
 594.210526316 338 553.789473684 340 510 344 c 1
 508 312.656716419 508 284.750646164 508 274 c 0
 508 204.69456067 512.928183619 140.11626915 520 72 c 0
 521.971141164 51.8859276216 534.032217876 41.6468294932 555 40 c 0
 580.464423865 38 604.315068494 38 630 38 c 1
 628 -7 l 1
 570.25 -2 487.75 0 430 0 c 3
 396.01681613 0 366.810218238 -1.06164844281 329 -6 c 1
 329 -6 326.639834968 31.3608176903 324.541015625 41.4453125 c 1
 331.293514777 41.3356932001 338.7155883 40.1760643881 346 41 c 0
 361.762565781 43.2583333333 369.733108678 62.5435137349 376 99 c 0
 383.806002588 144.40998264 390 202.783783784 390 259 c 0
 390 276.956661715 388 310.542553191 388 344 c 1
 361.416979343 342.126497629 353.106936913 334.32117104 326.948242188 336.358398438 c 1
 297.919907607 332.633170743 261.979398828 340.804687654 227 344 c 1
 225 312.656716419 225 284.750646164 225 274 c 0
 225 204.69456067 229.928183619 135.396642982 237 72 c 0
 239.118404147 51.8809945871 253.261175768 40.6404455938 275 40 c 0
 281.068534312 39.8058910524 287.06348296 40.2862257136 293 40.3662109375 c 1
 288 30.34061831 288 -7 288 -7 c 1
 250.48472954 -0.991473594093 193.761899303 0 147 0 c 3
 108.510362038 0 49.4905660377 -3 11 -7 c 1
 10 38 l 1
 19.1666666667 38 29.1847291019 39.8980618579 40 41 c 0
 81.7945679672 45.2583333333 86.6545438454 62.0864772878 93 99 c 0
 100.806002588 144.40998264 107 202.783783784 107 259 c 0
 107 276.956661715 105 310.542553191 105 344 c 1
 76.6216216218 342 49.3783783784 336 21 334 c 1
 21 402 l 1
 49.3783783784 400 76.6216216218 396 105 394 c 1
 105 468 l 2
 105 573.952606635 156.828375461 625.044699135 244 675 c 0
 299.501542102 706.806178316 330.696296296 725 398 725 c 0
 415.781742661 725 473.168561071 718.094899116 504 690 c 1
EndSplineSet
Substitution2: "salt-1" uniFB00.alt
LCarets2: 1 311
Ligature2: "liga-1" f f
EndChar

StartChar: question
Encoding: 63 63 74
Width: 378
VWidth: 1159
Flags: HW
LayerCount: 2
Fore
SplineSet
38 492.399804687 m 1
 41.9014688845 519.328017973 43.4736611293 542.380497476 43.4736611293 562.114468497 c 1
 43.4736611293 655.29013738 25.7406411468 675.684553005 25.7406411468 692.231460073 c 1
 25.7406411468 703.12914134 33.3515144789 697.658857614 54 699.6 c 1
 85.0365217391 636.480851064 91.4109432179 637.6 122 637.6 c 3
 206.092625698 637.6 301 560.899201803 301 444.800195313 c 3
 301 290.164765934 222.256616056 270.738628361 212 265.800195313 c 0
 158.621363636 239.800195312 131.212772727 230.737856973 126 191 c 1
 126 191 112.788 189.799804688 108 189.799804688 c 1
 101.553247403 226.531212661 95.7431640625 257.860439135 95.7431640625 287.9140625 c 3
 95.7431640625 339.904752178 103.657762667 402.800195313 156 402.800195313 c 3
 175.781641313 402.800195313 271 345.295890228 271 426.800195313 c 3
 271 470.05994862 211.666078562 489.970221086 74.7650980508 489.970221086 c 3
 63.9831662508 489.970221086 51.8320474111 490.744867372 38 492.399804687 c 1
EndSplineSet
Refer: 48 46 N 1 0 0 1 18 0 2
Position2: "cpsp-1" dx=0 dy=0 dh=50 dv=100
Substitution2: "smcp-1" question.smcp
Substitution2: "pcap-1" question.pcap
EndChar

StartChar: exclam
Encoding: 33 33 75
Width: 266
VWidth: 1159
Flags: HW
LayerCount: 2
Fore
SplineSet
97 210 m 1
 97 339.598765432 93 437.296296296 79 533 c 0
 71 580.777 23 605.174 27 656 c 1
 189 676 251 732 261 670 c 1
 229 631.469254237 233 578.06542794 221 533 c 0
 199 408 163 342 163 208 c 1
 97 210 l 1
EndSplineSet
Refer: 48 46 N 1 0 0 1 23 0 2
Substitution2: "pcap-1" exclam.pcap
Substitution2: "smcp-1" exclam.smcp
Position2: "cpsp-1" dx=0 dy=0 dh=50 dv=100
EndChar

StartChar: paragraph
Encoding: 182 182 76
Width: 591
VWidth: 1159
UnlinkRmOvrlpSave: 1
Flags: HW
LayerCount: 2
Fore
SplineSet
368 665 m 1
 424 681 l 1
 412 44 l 1
 360 68 l 1
 368 665 l 1
557 737 m 1
 559 651 l 1
 525.302325582 650.375 395.516665468 660.515274261 352 641 c 0
 307.472940708 617.699335921 302 603.02399867 302 205 c 3
 302 126.6 335.989506059 103.71582912 329 93 c 0
 333.074310017 81.5299479167 469.093457944 65.9450954861 478 80 c 1
 462 -4 l 1
 265.646337534 39.9281113153 227.503859992 74.3524598142 174 137 c 0
 120.504854369 201.754716981 96.269546119 282.848154597 79 345 c 0
 75.8564320452 356.267169579 72.7265625 365.478619026 72.7265625 374.544921875 c 3
 72.7265625 380.48197883 75.0121644413 388.913372013 78 397 c 0
 106.846153846 474.697674418 154.9453194 585.668358191 253 654 c 0
 353.675324675 724.154761905 557 737 557 737 c 1
EndSplineSet
Position2: "cpsp-1" dx=0 dy=0 dh=50 dv=100
EndChar

StartChar: ampersand
Encoding: 38 38 78
Width: 676
VWidth: 1159
Flags: HW
LayerCount: 2
Fore
SplineSet
186.5 330.400390625 m 1
 155.398274005 313.733957119 137 278.205436675 137 260 c 3
 137 142.911830508 185.312470588 85 285 85 c 3
 319.756579176 85 340.114661605 112.03442546 356.5 124.400390625 c 1
 285 300 221.608330189 315.998653337 186.5 330.400390625 c 1
160.5 561.400390625 m 1
 129.004438416 561.400390625 133 541 133 544 c 3
 133 473.487482244 193.679076305 446.854847301 233.5 414.400390625 c 1
 252.9846 432.984829221 262.5 446.192609923 262.5 467.400390625 c 3
 262.5 483.478751281 242.369489362 561.400390625 160.5 561.400390625 c 1
671.5 442.599609375 m 1
 615.928350308 442.599609375 594.677622317 406.735164397 559 357 c 0
 511.999054725 291.479946021 484.189559643 269.306658352 450.5 196.400390625 c 1
 493.461734315 83.1064227662 535.582063142 65.0276270032 562.861987023 65.0276270032 c 3
 609.295674455 65.0276270032 619.331355172 88.8807864154 633 129 c 1
 673 113 l 1
 647.254183333 44.6106373832 631.402675 1 520 1 c 3
 476.36744507 1 411.87012987 20.2610056816 386 74 c 1
 360 40 315.323327549 -5 199 -5 c 3
 65.9999505882 -5 17 104.852415254 17 172 c 3
 17 262.31533652 80.7601724138 331.181132906 153.5 354.400390625 c 1
 113.95446988 385.194187489 81 437.306300793 81 506 c 3
 81 588.857120567 156 619.27268697 231 646 c 1
 324.146020725 613.741188676 362.5 562.163167433 362.5 479.400390625 c 3
 362.5 478.663767818 292.486472727 414.127785362 276.5 394.400390625 c 1
 348.32884097 366.503806551 392.392349057 311.393103847 424 244 c 1
 453.561696453 295.99489403 506.694095991 390.56972689 510 406 c 0
 519.336608204 449.578523179 476.314759746 477.228236607 456.5 485.599609375 c 1
 472 528 l 1
 524.435653543 506.483 615.574929134 487.655 678 489 c 1
 671.5 442.599609375 l 1
EndSplineSet
Substitution2: "pcap-1" ampersand.pcap
Substitution2: "smcp-1" ampersand.smcp
Position2: "cpsp-1" dx=0 dy=0 dh=50 dv=100
EndChar

StartChar: quotesingle
Encoding: 39 39 79
Width: 200
VWidth: 1159
Flags: HW
LayerCount: 2
Fore
SplineSet
32 705.700195312 m 1
 168 705.700195312 l 1
 166.670571428 567.768195312 135.427714286 622.368195313 132 439.700195312 c 1
 68 439.700195312 l 1
 64.4136285714 622.122195313 33.5292285714 568.080195312 32 705.700195312 c 1
EndSplineSet
Position2: "cpsp-1" dx=0 dy=0 dh=7 dv=14
EndChar

StartChar: bracketleft
Encoding: 91 91 85
Width: 246
VWidth: 1515
Flags: HW
LayerCount: 2
Fore
SplineSet
105 663 m 1
 105 -176 l 1
 219 -194 l 1
 219 -236 l 1
 37 -236 l 1
 37 723 l 1
 219 723 l 1
 219 683 l 1
 105 663 l 1
EndSplineSet
Position2: "cpsp-1" dx=0 dy=0 dh=50 dv=100
Position2: "'case' vertical ajustments for all-caps-1" dx=0 dy=90 dh=0 dv=0
EndChar

StartChar: asterisk
Encoding: 42 42 87
Width: 362
VWidth: 1159
Flags: HW
LayerCount: 2
Fore
SplineSet
188.004816085 525.514700556 m 1
 160.034912703 457.87062601 189.050294115 433.448989217 156.764982561 371.264536536 c 1
 110.764982561 363.264536536 63.2416217341 416.746266375 53.2416217341 452.746266375 c 1
 95.863426478 507.358787187 122.239915844 486.106800174 170.09785044 534.298965416 c 1
 97.753110193 536.543399553 85.5119987981 504.945653345 16.1421305664 513.581321837 c 1
 -7.8578694336 559.581321837 33.9022724639 620.40672246 57.9022724639 638.40672246 c 1
 124.768032012 617.673010125 107.453831294 585.538303619 172.78868506 554.795527946 c 1
 155.110854064 619.264691014 118.181093932 618.181634015 108.459890255 693.980318873 c 1
 138.459890255 725.980318873 210.544067585 713.972537058 242.544067585 689.972537058 c 1
 239.972758817 615.165948177 207.013394581 620.032179776 194.767574183 557.127630002 c 1
 249.019205586 595.860473915 242.211974933 628.845126184 306.18178841 659.950979352 c 1
 338.18178841 645.950979352 360.797655218 586.040287748 342.797655218 534.040287748 c 1
 271.777172208 512.901933873 267.174778663 546.974747102 203.862295038 537.519078164 c 1
 258.110981347 494.694963606 285.622335006 514.351367172 337.969079664 461.097944706 c 1
 333.969079664 421.097944706 273.968911824 388.972366066 227.968911824 388.972366066 c 1
 186.277281915 452.125449714 218.657513105 468.762100016 188.004816085 525.514700556 c 1
EndSplineSet
EndChar

StartChar: acutecomb
Encoding: 769 769 92
Width: 0
VWidth: 1159
Flags: HW
AnchorPoint: "TopMark" -216 403 mark 0
AnchorPoint: "Top" -198.5 402 mark 0
AnchorPoint: "TopMark" -191 616 basemark 0
LayerCount: 2
Fore
SplineSet
-237.222 452.25 m 5
 -216.2935625 513.283085 -172.712875 601.563 -143.688 658.936 c 5
 -143.688 658.936 -88.6934 641.772 -45.5782 605.24 c 5
 -95.313328125 565.93837 -152.341828125 499.70444 -203.882 420.902 c 5
 -237.222 452.25 l 5
EndSplineSet
EndChar

StartChar: uni0302
Encoding: 770 770 93
Width: 0
VWidth: 1159
Flags: HW
AnchorPoint: "TopMark" -198.5 587 basemark 0
AnchorPoint: "TopMark" -200.5 384 mark 0
AnchorPoint: "Top" -198.5 401 mark 0
LayerCount: 2
Fore
SplineSet
-86.5 435.6 m 5
 -105.550195312 421.600390625 l 5
 -197 487.162109375 l 5
 -289.449804687 421.600390625 l 5
 -308.5 435.6 l 5
 -215.9 606.8 l 5
 -179.1 606.8 l 5
 -86.5 435.6 l 5
EndSplineSet
EndChar

StartChar: gravecomb
Encoding: 768 768 94
Width: 0
VWidth: 1159
Flags: HW
AnchorPoint: "TopMark" -195 625 basemark 0
AnchorPoint: "Top" -198.5 409 mark 0
AnchorPoint: "TopMark" -196 410 mark 0
LayerCount: 2
Fore
SplineSet
-166.332 456.698 m 5
 -199.67 425.35 l 5
 -251.210171875 504.15044 -308.238671875 570.385385 -357.972 609.688 c 5
 -314.858 646.218 -259.866 663.382 -259.866 663.382 c 5
 -230.839125 606.011 -187.2624375 517.7321 -166.332 456.698 c 5
EndSplineSet
EndChar

StartChar: uni030A
Encoding: 778 778 98
Width: 0
VWidth: 1159
Flags: HW
AnchorPoint: "TopMark" -200.5 382 mark 0
AnchorPoint: "TopMark" -198.5 562 basemark 0
AnchorPoint: "Top" -198.5 395 mark 0
LayerCount: 2
Fore
SplineSet
-198 541.242375 m 3
 -219.182598921 541.242375 -238.795570312 523.983062579 -238.795570312 500.446757812 c 3
 -238.795570312 476.632555756 -219.966412686 460.757625 -198 460.757625 c 3
 -176.817401079 460.757625 -157.204429688 478.016937421 -157.204429688 501.553242188 c 3
 -157.204429688 523.779349194 -176.033587314 541.242375 -198 541.242375 c 3
-198 580.638945312 m 3
 -154.149427456 580.638945312 -116.56390625 546.387132885 -116.56390625 502.797148438 c 3
 -116.56390625 455.815246931 -155.71569029 421.361054688 -198 421.361054688 c 3
 -241.850572544 421.361054688 -279.43609375 452.498014353 -279.43609375 499.202851562 c 3
 -279.43609375 546.183949776 -240.28430971 580.638945312 -198 580.638945312 c 3
EndSplineSet
EndChar

StartChar: uni031B
Encoding: 795 795 99
Width: 0
VWidth: 1159
Flags: HW
AnchorPoint: "Horn" -73.5 341.8 mark 0
LayerCount: 2
Fore
SplineSet
-25.236328125 384.76953125 m 3
 -25.236328125 392.775961692 -42.0119737763 406.390716169 -58.8623046875 426.607421875 c 1
 -40.7308259266 466.943729203 -9.43129973703 492.322265625 19.20703125 492.322265625 c 3
 62.270997807 492.322265625 75.625 455.857421875 75.625 444.775390625 c 3
 75.625 399.205078125 -15.2378927954 330.428 -84.5 330 c 1
 -85 348 l 1
 -58.3714613716 348.804825931 -25.236328125 360.841803263 -25.236328125 384.76953125 c 3
EndSplineSet
EndChar

StartChar: tildecomb
Encoding: 771 771 100
Width: 0
VWidth: 1159
Flags: HW
AnchorPoint: "TopMark" -214 389 mark 0
AnchorPoint: "TopMark" -198.5 538 basemark 0
AnchorPoint: "Top" -210 382 mark 0
LayerCount: 2
Fore
SplineSet
-350.352 428.208 m 5
 -324.48151256 495.613820194 -282.319909702 546.837085937 -276.109695312 546.837085937 c 7
 -233.28128263 546.837085937 -189.345179402 514.054242187 -142.6578125 514.054242187 c 7
 -129.56747865 514.054242187 -115.492166214 532.704745383 -108.208 556.648 c 5
 -67.6386 541.078 l 5
 -87.6815178525 478.935746631 -133.03126025 418.054242187 -137.9918125 418.054242187 c 7
 -175.05014411 418.054242187 -234.569824033 451.945085938 -278.436671875 451.945085938 c 7
 -295.434579313 451.945085938 -310 413.542 -307.02 414.29 c 5
 -350.352 428.208 l 5
EndSplineSet
EndChar

StartChar: uni0306
Encoding: 774 774 105
Width: 0
VWidth: 1159
Flags: HW
AnchorPoint: "TopMark" -200.5 396 mark 0
AnchorPoint: "TopMark" -202 541 basemark 0
AnchorPoint: "Top" -198.5 393 mark 0
LayerCount: 2
Fore
SplineSet
-332.554127066 541.53740717 m 5
 -299.791078458 563.713350938 l 5
 -285.832803381 541.530964545 -242.797093347 527.712 -197.748 527.712 c 4
 -152.893933052 527.712 -109.781553654 541.43082091 -95.235802593 563.600580442 c 5
 -62.4217185974 541.63471796 l 5
 -82.7247327411 473.659544641 -141.371677727 442.274 -198.026 442.274 c 4
 -254.704454162 442.274 -312.981450477 473.599390449 -332.554127066 541.53740717 c 5
EndSplineSet
EndChar

StartChar: uni0313
Encoding: 787 787 111
Width: 0
VWidth: 1159
Flags: HW
HStem: 438.94 204.12
VStem: -218.13 116.64
AnchorPoint: "TopMark" -178 410 mark 0
AnchorPoint: "TopMark" -167 631 basemark 0
AnchorPoint: "Top" -179 414 mark 0
LayerCount: 2
Fore
SplineSet
-226.23046875 410.58984375 m 1
 -237.5703125 438.129882812 l 1
 -210.030273438 442.990234375 -150.333007812 475.263671875 -168.719726562 517.509765625 c 0
 -179.25 542.620117188 -204.740234375 559.661132812 -227.040039062 570.969726562 c 0
 -232.709960938 572.860351562 -235.950195312 580.825195312 -235.950195312 587.169921875 c 3
 -235.950195312 593.765625 -232.6171875 598.556640625 -226.23046875 600.940429688 c 0
 -205.169921875 612.280273438 -190.213867188 632.079101562 -176.8203125 651.16015625 c 0
 -174.299804688 656.830078125 -167.459960938 662.5 -160.620117188 662.5 c 3
 -154.139648438 662.5 -146.696289062 656.740234375 -144.419921875 650.349609375 c 0
 -135.275390625 631.719726562 -113.989257812 614.286132812 -93.3896484375 600.940429688 c 0
 -87.7197265625 598.509765625 -82.8603515625 593.650390625 -82.8603515625 587.169921875 c 1
 -82.8603515625 584.740234375 -64.23046875 486.73046875 -226.23046875 410.58984375 c 1
EndSplineSet
EndChar

StartChar: uni0315
Encoding: 789 789 113
Width: 0
VWidth: 1159
Flags: HW
AnchorPoint: "TopRight" -110.5 531 mark 0
LayerCount: 2
Fore
SplineSet
-69.75 659.244882813 m 5
 28.25 630.244882813 l 5
 10.5188608392 574.058349407 -25.4764552448 495.719358836 -106 450.494 c 5
 -126 464.494 l 5
 -92.911754717 522.455199389 -77.0080754717 589.134928735 -69.75 659.244882813 c 5
EndSplineSet
EndChar

StartChar: Circumflex
Encoding: 58020 58020 159
Width: 281
VWidth: 1159
Flags: HMW
AnchorPoint: "Top" 140 699 mark 0
LayerCount: 2
Back
SplineSet
279.505 761.361 m 5
 252.097 747.855 l 5
 140.5 792.263 l 5
 28.9033 747.855 l 5
 1.49512 761.361 l 5
 121.846 859.4 l 5
 159.154 859.4 l 5
 279.505 761.361 l 5
EndSplineSet
Fore
SplineSet
279.504882812 769.361328125 m 1
 261.09765625 741.854492188 l 1
 140.5 774.263671875 l 1
 19.9033203125 741.854492188 l 1
 1.4951171875 769.361328125 l 1
 121.845703125 876.400390625 l 1
 159.154296875 876.400390625 l 1
 279.504882812 769.361328125 l 1
EndSplineSet
EndChar

StartChar: Breve
Encoding: 58023 58023 162
Width: 321
VWidth: 1159
Flags: HW
AnchorPoint: "Top" 162 699 mark 0
LayerCount: 2
Fore
SplineSet
16.7646 838.464 m 1
 55.185453125 857.798148438 l 1
 70.2126056991 838.80658977 115.074225826 829.280885061 160.081786268 829.280885061 c 3
 205.019954782 829.280885061 250.103534059 838.766814096 265.813546875 857.798148438 c 1
 304.235 838.464 l 1
 283.3205 777.7865 221.529825 747.44775 159.9293125 747.44775 c 3
 98.3288 747.44775 36.91845 777.7865 16.7646 838.464 c 1
EndSplineSet
EndChar

StartChar: Dotaccent
Encoding: 58025 58025 164
Width: 156
VWidth: 1159
Flags: HW
HStem: 751 108<33.1421 122.858>
VStem: 23.0001 110<760.993 849.046>
AnchorPoint: "Top" 76 699 mark 0
LayerCount: 2
Back
SplineSet
-3.9111328125 805.088867188 m 7
 -3.9111328125 849.446289062 32.734375 885.421875 78 885.421875 c 7
 123.265625 885.421875 159.911132812 849.446289062 159.911132812 805.088867188 c 7
 159.911132812 760.728515625 123.265625 724.578125 78 724.578125 c 7
 32.734375 724.578125 -3.9111328125 760.728515625 -3.9111328125 805.088867188 c 7
EndSplineSet
Fore
Refer: 2360 57345 S 0.934998 0 0 0.917999 78 805 2
EndChar

StartChar: Ring
Encoding: 58026 58026 165
Width: 281
VWidth: 1159
Flags: HW
AnchorPoint: "Top" 132 699 mark 0
LayerCount: 2
Fore
SplineSet
139.5 868.246 m 3
 114.908 868.246 92.1377 848.208 92.1377 820.884 c 3
 92.1377 793.56 113.998 775.344 139.5 775.344 c 3
 164.092 775.344 186.862 795.382 186.862 822.706 c 3
 186.862 848.208 165.002 868.246 139.5 868.246 c 3
139.5 920.98990625 m 3
 194.213635857 920.98990625 241.109695312 878.406025169 241.109695312 824.209945312 c 3
 241.109695312 765.587521255 192.258654322 722.60025 139.5 722.60025 c 3
 84.7863483387 722.60025 37.8897046875 761.312234375 37.8897046875 819.380210937 c 3
 37.8897046875 878.000285257 86.7409821745 920.98990625 139.5 920.98990625 c 3
EndSplineSet
EndChar

StartChar: Uni030B
Encoding: 58027 58027 166
Width: 300
VWidth: 1159
Flags: HW
AnchorPoint: "Top" 87 699 mark 0
LayerCount: 2
Fore
SplineSet
16 757.6 m 1
 25 793.6 50.5369127517 868.156626506 78 921 c 1
 78 921 131.994862385 895.315959596 166 874.6 c 1
 118.441176471 831.997355363 100.323529412 808.759549198 50.5 731.300195312 c 1
 16 757.6 l 1
118.942 758.984 m 1
 125.682 775.986 180.788706598 852.875299749 224.644 898.04 c 1
 224.644 898.04 268.35341118 856.819223926 294.516 826.368 c 1
 237.790805454 799.047476225 213.916140326 782.292819822 143.886 723.944 c 1
 118.942 758.984 l 1
EndSplineSet
EndChar

StartChar: eogonek
Encoding: 281 281 253
Width: 409
VWidth: 1159
UnlinkRmOvrlpSave: 1
Flags: HW
HStem: -326 60.1279<280.116 355.674> 425 168
VStem: 53 185 193.562 69.21<-249.43 -117.14>
AnchorPoint: "Top" 209 465 basechar 0
LayerCount: 2
Fore
SplineSet
364.069335938 45.6806640625 m 1
 284.984375 -24.414828629 266.330078125 -97.8814107863 266.330078125 -153.823242188 c 3
 266.330078125 -189.192382812 288.750976562 -211.658203125 323.349609375 -211.658203125 c 3
 326.250976562 -211.658203125 331.442382812 -212.745117188 347.256835938 -209.223632812 c 1
 340.311523438 -204.868164062 356.475585938 -219.8046875 358.387695312 -226.29296875 c 1
 330.8984375 -280.849609375 285.590820312 -303.658203125 245.120117188 -303.658203125 c 3
 195.778320312 -303.658203125 151.912109375 -266.974609375 151.912109375 -202.493164062 c 3
 151.912109375 -146.52688396 203.487304688 -29.1611366987 357.892578125 66.0888671875 c 1
 364.069335938 45.6806640625 l 1
EndSplineSet
Refer: 4 101 N 1 0 0 1 0 0 3
Substitution2: "smcp-1" eogonek.smcp
Substitution2: "case-1" Eogonek
Substitution2: "pcap-1" eogonek.pcap
EndChar

StartChar: uni0328
Encoding: 808 808 254
Width: 0
VWidth: 1159
Flags: HW
AnchorPoint: "Ogonek" -104.35 21.6582 mark 0
LayerCount: 2
Back
SplineSet
-94.3691 15.543 m 1
 -184.622 -62 -198.229 -98.8815 -198.229 -170 c 3
 -198.229 -213.865 -172.893 -239.872 -140.834 -239.872 c 3
 -121.081 -239.872 -97.3641 -229.184 -73.0273 -205.6 c 9
 -73.0273 -205.6 -61.9188 -215.927 -59.2285 -224 c 1
 -86.2326 -276.788 -131.729 -300 -173.229 -300 c 3
 -223.201 -300 -267.438 -262.154 -267.438 -198.835 c 3
 -267.438 -146.411 -224.333 -45 -101.068 36.7617 c 1
 -94.3691 15.543 l 1
EndSplineSet
Fore
SplineSet
-94.2801921875 16.3389296875 m 1
 -173.366025672 -42.1621448725 -192.01953125 -103.476342512 -192.01953125 -150.165039062 c 3
 -192.01953125 -185.533807331 -169.599046276 -208 -135 -208 c 3
 -132.098672979 -208 -126.907979676 -209.086989474 -111.092773438 -205.565429688 c 1
 -118.038400809 -201.209874246 -101.873989885 -216.146508508 -99.9619140625 -222.634765625 c 1
 -127.451791662 -277.191478292 -172.758761993 -300 -213.229492188 -300 c 3
 -262.572026434 -300 -306.4375 -263.316575783 -306.4375 -198.834960938 c 3
 -306.4375 -149.744838522 -254.862947963 -46.7993373111 -100.457289062 36.7470328125 c 1
 -94.2801921875 16.3389296875 l 1
EndSplineSet
EndChar

StartChar: Aogonek
Encoding: 260 260 255
Width: 730
VWidth: 0
HStem: -346.802 72.7783<509.644 579.002> 245 42<247 437.657> 692 20G<358 405.73>
VStem: 360 43<632.023 712> 417.273 71.958<-253.556 -112.611>
LayerCount: 2
Fore
SplineSet
247 287 m 1
 300 282 410 283 459 283 c 1
 420 383 394 443 352 545 c 9
 311 444 284 378 247 287 c 1
515.106 9.30371 m 0
 528.580338516 25.1898171388 540.25 48 535 76 c 0
 512 139 498 173 475 236 c 1
 415 246 318 252 231 245 c 9
 204.87 183.38 185 147 164 87 c 0
 152 51 176 29 247 34 c 9
 245 -10 l 1
 190 1 82 4 27 -5 c 9
 27 -5 23 20 22 34 c 1
 71 48 95 57 106 80 c 0
 198 289 276 470 344 640 c 0
 359 678 356 679 360 712 c 9
 403 712 l 9
 408.46 684.7 403 681 417 642 c 0
 489.318 423.284 532.922 291.261 632 78.1982 c 0
 640 60.9938 671.846 35.0799 702 32 c 9
 702 32 701 8 700 -4 c 1
 648.463 32.9972 584.223 32.6444 544 -14 c 0
 498.216367131 -67.0927599884 489.231445312 -140.721568606 489.231445312 -196.747070312 c 3
 489.231445312 -237.611373161 518.631004142 -274.0234375 550.14453125 -274.0234375 c 3
 569.969724697 -274.0234375 593.77495698 -267.592408263 618.200195312 -253.40234375 c 9
 618.200195312 -253.40234375 629.310038072 -263.730014861 632 -271.801757812 c 1
 605.823 -315.298757812 555.232 -346.801757812 515 -346.801757812 c 3
 465.302222486 -346.801757812 417.2734375 -298.236689929 417.2734375 -235.232421875 c 3
 417.2734375 -105.15651352 478.973157111 -33.2965417808 515.106 9.30371 c 0
EndSplineSet
Validated: 33
Position2: "cpsp-1" dx=0 dy=0 dh=50 dv=100
Substitution2: "c2pc-1" aogonek.pcap
Substitution2: "c2sc-1" aogonek.smcp
EndChar

StartChar: Uni0328
Encoding: 58029 58029 257
Width: 0
VWidth: 1159
Flags: W
HStem: -338.23 73.7197<-184.546 -117.498>
VStem: -275.584 71.875<-244.983 -118.496>
AnchorPoint: "Ogonek" -105.35 23.6582 mark 0
LayerCount: 2
Fore
SplineSet
-92.1719 12.3926 m 1
 -164.514989866 -37.5177021671 -203.708984375 -122.700132364 -203.708984375 -187.03125 c 3
 -203.708984375 -228.469229743 -175.522824414 -264.510742188 -144.514648438 -264.510742188 c 3
 -123.539764965 -264.510742188 -98.3555048772 -255.777742187 -72.5146484375 -236.510742188 c 9
 -72.5146484375 -236.510742188 -61.4052257941 -246.838961447 -58.7158203125 -254.911132812 c 1
 -85.7705506897 -302.647325281 -138.205109564 -338.23046875 -179.78515625 -338.23046875 c 3
 -228.965068015 -338.23046875 -275.583984375 -289.420252063 -275.583984375 -227.85546875 c 3
 -275.583984375 -144.145292738 -241.514987387 -38.8975355005 -98.8711 45.1113 c 1
 -92.1719 12.3926 l 1
EndSplineSet
Validated: 1
EndChar

StartChar: Eogonek
Encoding: 280 280 258
Width: 672
VWidth: 0
UnlinkRmOvrlpSave: 1
HStem: -347.889 73.7197<484.634 553.852> -9 35<56 102.007> 333 36<205 473.393> 657 31<48 108.489>
VStem: 124 81<87.2765 333 369 603.172> 395.766 71.875<-257.592 -149.807> 497 36<249 305.348> 538 30<537 619.889>
AnchorPoint: "Top" 330 699 basechar 0
LayerCount: 2
Fore
SplineSet
48 688 m 1
 247 678 548 685 574 691 c 1
 606 663 579 670 568 537 c 1
 538 534 l 1
 527 570 546 617 510 628 c 0
 447 646 328 651 247 641 c 0
 229 639 216 625 215 607 c 0
 211 525.313559322 206 444.635593221 205 369 c 1
 269 371 429 371 443 372 c 0
 480 377 485 403 501 447 c 1
 535 440 l 1
 518 376 522 313 533 249 c 1
 497 240 l 1
 477 311 484 324 443 328 c 0
 399 333 298 332 205 333 c 1
 204 235.613545816 208 147.262948207 220 81 c 0
 224 64 233 50 250 49 c 0
 343 40 414 32 490 58 c 0
 550.414440108 78.6680979317 560.916666667 101 601 177 c 1
 629 170 l 1
 601.909278218 96.0751847998 563.005363884 18.4683882549 538.489257812 -19.9775390625 c 0
 508.313510966 -67.2988618945 467.640625 -148.391015834 467.640625 -206.689453125 c 0
 467.640625 -242.779181534 495.826784961 -274.168945312 526.834960938 -274.168945312 c 0
 547.809960937 -274.168945312 572.993960937 -265.436945313 598.834960938 -246.168945312 c 1
 598.834960938 -246.168945312 609.943822568 -256.497164572 612.633789062 -264.569335938 c 1
 585.578932221 -312.305955472 533.145209671 -347.888671875 491.565429688 -347.888671875 c 0
 442.385016588 -347.888671875 395.765625 -303.499671875 395.765625 -247.513671875 c 0
 395.765625 -172.157942368 443.587456716 -80.3722695124 506.53125 0.1865234375 c 1
 339.095538761 1.71494210433 168.066908792 9.38041107576 58 -9 c 1
 48 26 l 1
 101 36 124 49 124 77 c 1
 128 154.430970149 128 531.529850746 122 616 c 0
 121 643 116 643 43 657 c 1
 48 688 l 1
EndSplineSet
Position2: "cpsp-1" dx=0 dy=0 dh=50 dv=100
Substitution2: "c2pc-1" eogonek.pcap
Substitution2: "c2sc-1" eogonek.smcp
EndChar

StartChar: Iogonek
Encoding: 302 302 259
Width: 341
VWidth: 0
UnlinkRmOvrlpSave: 1
Flags: HW
HStem: -346.889 73.7197<164.804 231.852> -10 40<16.125 119.789> 652 43<21.3488 120.801>
VStem: 73.7656 71.875<-253.641 -109.865> 131 90<41.0295 293.416> 137.915 75.6029<80.3904 534.592>
LayerCount: 2
Fore
SplineSet
207.177734375 3.734375 m 1xf0
 167.264648438 -46.17578125 145.640625 -131.358398438 145.640625 -195.689453125 c 3
 145.640625 -237.126953125 173.827148438 -273.168945312 204.834960938 -273.168945312 c 3
 225.810546875 -273.168945312 250.994140625 -264.435546875 276.834960938 -245.168945312 c 9
 276.834960938 -245.168945312 287.944335938 -255.497070312 290.633789062 -263.569335938 c 1
 263.579101562 -311.305664062 211.14453125 -346.888671875 169.564453125 -346.888671875 c 3
 120.384765625 -346.888671875 73.765625 -298.078125 73.765625 -236.513671875 c 3
 73.765625 -152.803710938 98.1953125 -47.5556640625 200.478515625 36.453125 c 1
 207.177734375 3.734375 l 1xf0
EndSplineSet
Refer: 34 73 N 1 0 0 1 0 0 3
Position2: "cpsp-1" dx=0 dy=0 dh=50 dv=100
Substitution2: "c2pc-1" iogonek.pcap
Substitution2: "c2sc-1" iogonek.smcp
EndChar

StartChar: iogonek
Encoding: 303 303 260
Width: 263
VWidth: 0
UnlinkRmOvrlpSave: 1
Flags: HW
HStem: -326 60.1279<121.017 198.674> -7 33<33 87 184 254> 572 102<98.589 183.411>
VStem: 36.5625 69.209<-252.6 -120.517> 89 104<581.438 664.599> 97 71<57 330>
LayerCount: 2
Fore
SplineSet
168 12.9248046875 m 5xe4
 113.924804688 -74.3896484375 105.771484375 -115.919921875 105.771484375 -196 c 7
 105.771484375 -239.865234375 131.106445312 -265.872070312 163.166015625 -265.872070312 c 7
 182.918945312 -265.872070312 206.635742188 -255.18359375 230.97265625 -231.599609375 c 5
 230.97265625 -231.599609375 242.081054688 -241.926757812 244.771484375 -250 c 5
 217.768554688 -302.788085938 172.271484375 -326 130.771484375 -326 c 7
 80.798828125 -326 36.5625 -288.154296875 36.5625 -224.834960938 c 7xf0
 36.5625 -167.208984375 66.80859375 -55.732421875 153.30078125 34.1435546875 c 5
 168 12.9248046875 l 5xe4
EndSplineSet
Refer: 8 105 N 1 0 0 1 0 0 3
Substitution2: "smcp-1" iogonek.smcp
Substitution2: "case-1" Iogonek
Substitution2: "pcap-1" iogonek.pcap
EndChar

StartChar: uogonek
Encoding: 371 371 262
Width: 506
VWidth: 0
UnlinkRmOvrlpSave: 1
Flags: HW
HStem: -324.658 60.1279<313.017 390.674> -18.7812 20G<319.052 378.615> -11 55<171 272> 338 31<291 350>
VStem: 69 76<71 327> 228.562 69.21<-251.259 -142.76> 358 65<36 52 75 331>
LayerCount: 2
Fore
SplineSet
379 -20 m 1xde
 308.413085938 -92.994140625 297.771484375 -127.711914062 297.771484375 -194.658203125 c 3
 297.771484375 -238.5234375 323.107421875 -264.530273438 355.166015625 -264.530273438 c 3
 374.918945312 -264.530273438 398.635742188 -253.841796875 422.97265625 -230.2578125 c 1
 422.97265625 -230.2578125 434.081054688 -240.584960938 436.771484375 -248.658203125 c 1
 409.767578125 -301.446289062 364.271484375 -324.658203125 322.771484375 -324.658203125 c 3
 272.798828125 -324.658203125 228.561523438 -286.8125 228.561523438 -223.493164062 c 3
 228.561523438 -173.491210938 265.803710938 -76.765625 372.30078125 1.21875 c 1
 379 -20 l 1xde
EndSplineSet
Refer: 20 117 N 1 0 0 1 0 0 3
Substitution2: "smcp-1" uogonek.smcp
Substitution2: "case-1" Uogonek
Substitution2: "pcap-1" uogonek.pcap
EndChar

StartChar: uni0327
Encoding: 807 807 268
Width: 0
VWidth: 1159
UnlinkRmOvrlpSave: 1
Flags: HW
AnchorPoint: "Bottom" -193 -15 mark 0
LayerCount: 2
Fore
SplineSet
-289.175 -200.003 m 5
 -287.141375 -178.812476563 l 5
 -259.427713249 -172.685640071 -233 -166.379864222 -233 -138 c 7
 -233 -126.608762875 -237.923717606 -105.802633103 -251.63671875 -99.12890625 c 5
 -250.123046875 -75.462890625 l 5
 -244.218127184 -72.3276264489 -237.274903293 -71.3571468019 -231.521 -67.0766 c 4
 -204.676151188 -47.1056992254 -207.201324376 -41.6230990903 -185.623976562 5.4326228125 c 5
 -143.623976562 13.4325828125 l 5
 -143.623976562 13.4325828125 -159.449106975 -37.6299504127 -165.071734375 -46.9286890625 c 5
 -154.233586051 -55.2830551046 -132.572 -72.8934564263 -132.572 -111.429 c 7
 -132.572 -180.25 -220.06 -229.425 -289.175 -200.003 c 5
EndSplineSet
EndChar

StartChar: cedillafloating
Encoding: 58084 58084 269
Width: 0
VWidth: 1159
Flags: W
VStem: -195 63.126<-165.104 -94.3473>
AnchorPoint: "Bottom" -193 -15 mark 0
LayerCount: 2
Fore
SplineSet
-289.175 -200.003 m 1
 -285.141 -177.812 l 1
 -239 -188 -195 -161.724 -195 -125 c 3
 -195 -109.445 -206 -85 -236.636 -95.1289 c 1
 -241.123 -72.4629 l 1
 -199.113 -38.5203 -131.874 -44.0724 -131.874 -109.349 c 3
 -131.874 -179.786 -219.751 -230.116 -289.175 -200.003 c 1
EndSplineSet
Validated: 33
EndChar

StartChar: Uni0327
Encoding: 58030 58030 281
Width: 0
VWidth: 1159
Flags: W
VStem: -194.928 70.897<-182.621 -103.12>
AnchorPoint: "Bottom" -191 -15 mark 0
LayerCount: 2
Fore
SplineSet
-302.112 -226.844 m 1
 -297.393 -200.881 l 1
 -243.408 -212.801 -194.928 -182.057 -194.928 -139.091 c 0
 -194.928 -120.892 -206.823 -92.29 -240.667 -104.142 c 1
 -245.892 -77.6221 l 1
 -241.051 -73.5835 -235.91 -70.2296 -230.581 -67.5294 c 0
 -201.19 -48.4085 -207.089 -43.3329 -187.571 4.44336 c 1
 -142.571 12.4434 l 1
 -142.571 12.4434 -152.525 -33.2849 -173.391 -61.6674 c 1
 -145.899 -69.2159 -124.031 -91.6921 -124.031 -124.709 c 0
 -124.031 -204.066 -223.518 -260.771 -302.112 -226.844 c 1
EndSplineSet
Validated: 33
EndChar

StartChar: Cedillafloating
Encoding: 58085 58085 282
Width: 0
VWidth: 1159
Flags: W
VStem: -194.928 70.8965<-182.621 -103.74>
AnchorPoint: "Bottom" -193 -15 mark 0
LayerCount: 2
Fore
SplineSet
-302.112 -226.844 m 1
 -297.393 -200.881 l 1
 -243.408 -212.801 -194.928 -182.057 -194.928 -139.091 c 3
 -194.928 -120.892 -206.798 -92.29 -240.642 -104.142 c 1
 -245.892 -77.6221 l 1
 -199.032 -34.292 -124.031 -58.5156 -124.031 -124.709 c 3
 -124.031 -204.066 -223.518 -260.771 -302.112 -226.844 c 1
EndSplineSet
Validated: 33
EndChar

StartChar: Uni030F
Encoding: 58034 58034 295
Width: 300
VWidth: 1159
Flags: HW
AnchorPoint: "Top" 87 699 mark 0
LayerCount: 2
Fore
SplineSet
158 757.6 m 1
 123.5 731.300195312 l 1
 73.6764705882 808.759549198 55.5588235294 831.997355363 8 874.6 c 1
 42.0043376147 895.315959596 96 921 96 921 c 1
 123.463087248 868.156626506 149 793.6 158 757.6 c 1
53.0958 757.856 m 1
 28.1504 722.814 l 1
 -41.879340326 781.164819822 -65.752805454 797.917476225 -122.476 825.238 c 1
 -96.3186111797 855.691223926 -52.6074 896.91 -52.6074 896.91 c 1
 -8.75070659815 851.747299749 46.3554 774.858 53.0958 757.856 c 1
EndSplineSet
EndChar

StartChar: uni01EA
Encoding: 490 490 308
Width: 845
VWidth: 0
UnlinkRmOvrlpSave: 1
Flags: HW
HStem: -346.889 73.7197<406.804 473.852> -7 50<342.523 545.448> 657 49<304.396 495.712>
VStem: 43 93<267.4 455.825> 315.766 71.875<-253.641 -127.154> 701 101<222.803 442.21>
AnchorPoint: "Middle" 417.697 364.853 basechar 0
AnchorPoint: "Top" 420 699 basechar 0
LayerCount: 2
Fore
SplineSet
499.177734375 3.734375 m 1
 426.834960938 -46.17578125 387.640625 -131.358398438 387.640625 -195.689453125 c 3
 387.640625 -237.126953125 415.827148438 -273.168945312 446.834960938 -273.168945312 c 3
 467.810546875 -273.168945312 492.994140625 -264.435546875 518.834960938 -245.168945312 c 9
 518.834960938 -245.168945312 529.944335938 -255.497070312 532.633789062 -263.569335938 c 1
 505.579101562 -311.305664062 453.14453125 -346.888671875 411.564453125 -346.888671875 c 3
 362.384765625 -346.888671875 315.765625 -298.078125 315.765625 -236.513671875 c 3
 315.765625 -152.803710938 349.834960938 -47.5556640625 492.478515625 36.453125 c 1
 499.177734375 3.734375 l 1
EndSplineSet
Refer: 40 79 N 1 0 0 1 0 0 3
Position2: "cpsp-1" dx=0 dy=0 dh=50 dv=100
EndChar

StartChar: uni01EB
Encoding: 491 491 309
Width: 505
VWidth: 0
UnlinkRmOvrlpSave: 1
Flags: HW
HStem: -326 60.1279<272.366 350.024> -11 39<199.926 327.747> 374 45<168.903 305.133>
VStem: 32 76<130.211 291.037> 187.912 69.209<-252.6 -139.048> 395 78<107.641 276.826>
AnchorPoint: "Top" 251 465 basechar 0
AnchorPoint: "Middle" 255 206 basechar 0
LayerCount: 2
Fore
SplineSet
360.98046875 13.54296875 m 1
 270.727539062 -74.0302734375 257.12109375 -115.682617188 257.12109375 -196 c 3
 257.12109375 -239.865234375 282.45703125 -265.872070312 314.515625 -265.872070312 c 3
 334.268554688 -265.872070312 357.986328125 -255.18359375 382.322265625 -231.599609375 c 9
 382.322265625 -231.599609375 393.431640625 -241.926757812 396.12109375 -250 c 1
 369.1171875 -302.788085938 323.62109375 -326 282.12109375 -326 c 3
 232.149414062 -326 187.912109375 -288.154296875 187.912109375 -224.834960938 c 3
 187.912109375 -172.674804688 223.05859375 -76.5009765625 320.63671875 8 c 9
 360.98046875 13.54296875 l 1
EndSplineSet
Refer: 14 111 N 1 0 0 1 0 0 3
Substitution2: "case-1" uni01EA
EndChar

StartChar: thorn
Encoding: 254 254 317
Width: 515
VWidth: 1159
Flags: W
HStem: -348 32<8.34375 55.6963> -342 34<151.753 229> -10 46<184.803 329.513> 369 43<198.188 323.819> 654 29<16 45.5305>
VStem: 67 82<-302.037 -18.4171> 80 65<-197.411 7 69.4004 345.78 368 599.495> 406 69<130.435 275.055>
LayerCount: 2
Fore
SplineSet
145 332 m 9x3b
 144 241 143 189 143 98 c 3
 143 92 147 85 154 79 c 0
 185 52 227 36 268 36 c 3
 345 36 406 96 406 180 c 3
 406 270 352 369 251 369 c 3
 207 369 155 342 145 332 c 9x3b
76 31 m 24
 79.1289 217.79 80 367 80 510 c 3
 80 570 80 607 76 627 c 0
 71 654 64 656 46 656 c 3
 36 656 25 654 16 654 c 1
 11 683 l 1
 48 690 104 718 154 759 c 1
 175 743 l 1
 165 717 157 687 156 667 c 0
 151 599 145 484 145 368 c 1xbb
 178 382 234 412 294 412 c 3
 399 412 475 315 475 223 c 3
 475 94 363.004 -10 225 -10 c 3
 198 -10 170 -2 144 7 c 1
 144 -75 144 -247 149 -284 c 0
 151 -299 170 -303 181 -304 c 0
 197 -305 216 -307 230 -308 c 1
 229 -342 l 1x7d
 190 -341 159 -339 117 -339 c 3
 87 -339 39 -344 9 -348 c 1
 6 -316 l 1
 17 -315 25 -313 36 -311 c 0
 59 -305 65 -294 67 -266 c 0xbd
 72 -214 74.0589 -84.8672 76 31 c 24
EndSplineSet
Validated: 1
Substitution2: "pcap-1" thorn.pcap
Substitution2: "case-1" Thorn
Substitution2: "smcp-1" thorn.smcp
EndChar

StartChar: Thorn
Encoding: 222 222 318
Width: 594
VWidth: 1159
Flags: W
HStem: -9 35<33 79.7574> 178 45<189.142 391.092> 519 42<188.8 373.894> 661 31<15.871 81.5947>
VStem: 103 86.1416<54.7783 182.945 226.958 514.181 554.895 640.551> 465 87<299.251 431.707>
LayerCount: 2
Fore
SplineSet
300 652.244140625 m 1
 269.541015625 652.76953125 239.069335938 648.46484375 211 641 c 0
 193.498046875 636.344726562 190 622 189 604 c 0
 188.240234375 587.23828125 187.66015625 570.91015625 187.219726562 554.89453125 c 1
 223.961914062 557.525390625 259.918945312 561 309 561 c 3
 442 561 552 478 552 375 c 3
 552 258.262695312 417.193359375 178 292 178 c 3
 251.719726562 178 228.8125 181.861328125 189.141601562 182.9453125 c 1
 190.319335938 145.3203125 192.446289062 106.4140625 198 75 c 0
 201.80078125 58.8486328125 209.211914062 38.1826171875 306 36.1611328125 c 1
 302 -10.6103515625 l 1
 253.839897611 0.765337346976 217.431629665 6.17477902914 177.51514646 6.17477902914 c 3
 138.247715333 6.17477902914 95.5852303172 0.939824883774 35 -9 c 1
 25 26 l 1
 78 36 103 49 103 77 c 1
 104.6 108.20234375 105.4 187.70734375 105.4 277.3266875 c 3
 105.4 411.755703125 103.6 568.941992187 100 620 c 0
 99 647 85 647 12 661 c 1
 17 692 l 1
 64.3137479468 686.877828443 116.634803726 684.064503692 169.426581172 684.064503692 c 3
 212.805530712 684.064503692 256.502306442 685.964030206 298 690.04296875 c 1
 300 652.244140625 l 1
189.073242188 226.958007812 m 1
 228.5625 225.396484375 249.3671875 223 290 223 c 3
 436 223 465 311 465 364 c 3
 465 424 404 519 288 519 c 3
 266.518554688 519 216.749023438 516.599609375 187.26171875 510.466796875 c 1
 185.9765625 417.948242188 187.340820312 313.534179688 189.073242188 226.958007812 c 1
EndSplineSet
Validated: 33
Position2: "cpsp-1" dx=0 dy=0 dh=50 dv=100
Substitution2: "c2pc-1" thorn.pcap
Substitution2: "c2sc-1" thorn.smcp
EndChar

StartChar: AE
Encoding: 198 198 319
Width: 1067
VWidth: 1159
Flags: HW
AnchorPoint: "Top" 580.585 694 basechar 0
AnchorPoint: "Bottom" 569.957 -15 basechar 0
LayerCount: 2
Back
SplineSet
396 687 m 5
 522.544075369 676.064349747 608.353950894 673.145507812 644.385742188 673.145507812 c 7
 826.508787142 673.145507812 907 676 970 689 c 5
 985 676 987.794921875 672.63352728 987.794921875 664.500976562 c 5
 987.794921875 649.040313493 973.993318252 622.230475425 968 520 c 5
 926 514 l 5
 924.041666667 529.211267606 918 575 903 586 c 4
 870.256373105 610.011993056 820.928610581 621.48046875 772.520507812 621.48046875 c 7
 740.839884353 621.48046875 687.959571717 617.280939294 682 612 c 4
 675.577247652 606.308623697 669.028544724 576.528504366 668 568 c 4
 660.8 508.29891946 651.8 435.32889162 650 379 c 5
 693.526294379 383 808.553323745 382.596533604 818 385 c 4
 857.37890625 395.018960674 875.5 458.860867275 886 473 c 5
 930 459 l 5
 921.80116304 422.984751602 918.487043501 387.241354127 918.487043501 351.507580443 c 5
 918.487043501 311.772223021 922.305508732 272.048352585 928 232 c 5
 880 214 l 5
 858.5 277.883217865 864.027292478 309.695293573 818 322 c 4
 788.075 330 713.251220414 328.4 650 330 c 5
 648.4 255.370750071 657.32413596 170.910349427 674 125 c 4
 679.200094778 110.683610291 687.762623921 85.6497728427 695 81 c 4
 721.208031479 64.1622135287 750.886001638 64.0600482459 774.565037958 64.0600482459 c 7
 784.108635019 64.0600482459 808.099209045 68.0391614651 846 83 c 4
 884 98 943 154 989 199 c 5
 1022 191 l 5
 997.768554688 100.682617188 993.922851562 76.7529296875 981 6 c 5
 771.166162132 8.90711542778 749.146786484 12.139752967 676.196411738 12.139752967 c 5
 590.049215819 12.139752967 566.001852573 7.31372559336 448 -11 c 5
 431 34 l 5
 474 44 511 79.5294117647 511 115 c 5
 513.955612619 133.220859411 515.890351072 175.788285048 516.630859375 226.087890625 c 5
 458.892885345 243.359643257 355.08909961 251.0847832 278.916992188 238 c 5
 251.632855331 195.49 230.02105535 176.585729929 208.958 129 c 4
 191.535441538 89.6388936528 205.976 24 246.874 56 c 5
 239.599367187 -8 l 5
 207.951493817 -2.05998618452 156.803466685 1.29633238866 108.670055793 1.29633238866 c 5
 76.3231281557 1.29633238866 45.3376628074 1.6174622949 22.546925 -4 c 5
 22.546925 -4 18.2831458846 29.3333333333 19.9364765625 48 c 5
 50.4621359267 68.8913043478 99.5897567303 85.445498728 119.304 115 c 4
 242.852196459 300.21661113 356.057342769 475.935167696 451.09375 627.84765625 c 5
 432.765151941 634.482719793 411.116110638 640.842621729 388 650 c 5
 396 687 l 5
499.955078125 608.53125 m 5
 474.997845748 566.824208453 356.908389215 369.619898207 311.875 297 c 5
 356.011771036 287.416690358 469.427182865 290.709642557 516.76953125 290.991210938 c 5
 517.142741909 410.849620961 510.230980368 577.370679898 508 593 c 4
 506.858053784 601 504.574161353 606 499.955078125 608.53125 c 5
EndSplineSet
Fore
SplineSet
396 687 m 1
 522.544075369 676.064349747 608.353950894 673.145507812 644.385742188 673.145507812 c 3
 826.508787142 673.145507812 907 676 970 689 c 1
 985 676 987.794921875 672.63352728 987.794921875 664.500976562 c 1
 987.794921875 649.040313493 973.993318252 622.230475425 968 520 c 1
 926 514 l 1
 924.041666667 529.211267606 918 575 903 586 c 0
 870.256373105 610.011993056 820.928610581 621.48046875 772.520507812 621.48046875 c 3
 740.839884353 621.48046875 687.959571717 617.280939294 682 612 c 0
 675.577247652 606.308623697 669.028544724 576.528504366 668 568 c 0
 660.8 508.29891946 651.8 435.32889162 650 379 c 1
 693.526294379 383 808.553323745 382.596533604 818 385 c 0
 857.37890625 395.018960674 875.5 458.860867275 886 473 c 1
 930 459 l 1
 921.80116304 422.984751602 918.487043501 387.241354127 918.487043501 351.507580443 c 1
 918.487043501 311.772223021 922.305508732 272.048352585 928 232 c 1
 880 214 l 1
 858.5 277.883217865 864.027292478 309.695293573 818 322 c 0
 788.075 330 713.251220414 328.4 650 330 c 1
 648.4 255.370750071 657.32413596 170.910349427 674 125 c 0
 679.200094778 110.683610291 687.762623921 85.6497728427 695 81 c 0
 721.208031479 64.1622135287 750.886001638 64.0600482459 774.565037958 64.0600482459 c 3
 784.108635019 64.0600482459 808.099209045 68.0391614651 846 83 c 0
 884 98 943 154 989 199 c 1
 1022 191 l 1
 997.768554688 100.682617188 993.922851562 76.7529296875 981 6 c 1
 771.166162132 8.90711542778 749.146786484 12.139752967 676.196411738 12.139752967 c 1
 590.049215819 12.139752967 566.001852573 7.31372559336 448 -11 c 1
 431 34 l 1
 474 44 511 79.5294117647 511 115 c 1
 513.955612619 133.220859411 515.890351072 175.788285048 516.630859375 226.087890625 c 1
 458.892885345 243.359643257 355.08909961 251.0847832 278.916992188 238 c 1
 251.632855331 195.49 231.274982933 176.010703741 208.958 129 c 0
 180 68 194 52 254 48 c 1
 247.599609375 -8 l 1
 214.017939447 -2.05998618452 159.744587663 1.29633238866 108.670055793 1.29633238866 c 1
 76.3231281557 1.29633238866 45.3376628074 1.6174622949 22.546925 -4 c 1
 22.546925 -4 18.2831458846 29.3333333333 19.9364765625 48 c 1
 50.4621359267 68.8913043478 99.5897567303 85.445498728 119.304 115 c 0
 242.852196459 300.21661113 356.057342769 475.935167696 451.09375 627.84765625 c 1
 432.765151941 634.482719793 411.116110638 640.842621729 388 650 c 1
 396 687 l 1
499.955078125 608.53125 m 1
 474.997845748 566.824208453 356.908389215 369.619898207 311.875 297 c 1
 356.011771036 287.416690358 469.427182865 290.709642557 516.76953125 290.991210938 c 1
 517.142741909 410.849620961 510.230980368 577.370679898 508 593 c 0
 506.858053784 601 504.574161353 606 499.955078125 608.53125 c 1
EndSplineSet
Position2: "cpsp-1" dx=0 dy=0 dh=50 dv=100
Substitution2: "c2pc-1" ae.pcap
Substitution2: "c2sc-1" ae.smcp
EndChar

StartChar: ae
Encoding: 230 230 322
Width: 578
VWidth: 1159
Flags: HW
AnchorPoint: "Top" 283.52 465 basechar 0
AnchorPoint: "Bottom" 280.52 -15 basechar 0
LayerCount: 2
Fore
SplineSet
356 350 m 7
 321.656442949 350 332.066444025 247.566990476 332.51953125 241 c 5
 368.266667197 251.963208333 395.667847591 260.209479167 429.798828125 270 c 5
 413.576504921 318.459770115 377.097329424 350 356 350 c 7
335.696289062 214 m 5
 331.97833901 130.927289157 377.775146491 67 452.158203125 67 c 5
 490.144202907 67 513.685176448 82.1555555556 529.740234375 98 c 5
 556.48046875 62 l 5
 514.053066856 30.5441176471 453.442492722 -9 383.739257812 -9 c 5
 318.854305257 -9 267.656336879 29.815033524 246 83 c 5
 225.017493317 63.5648501389 153.531614121 -8 90 -8 c 7
 51.5030865374 -8 25 26.2 25 68 c 7
 25 99.1605090154 33.7364592055 129.028273235 36 137 c 4
 39.385511296 148.923076923 49.535354111 162.453228232 61 168 c 4
 126.30945414 199.59771701 164.77336906 197.717829228 231.149414062 212.887695312 c 5
 230.941330217 227.969241356 230.544097551 241.67390518 230.005859375 254.091796875 c 5
 230 260.293791376 227.815727625 275.881374383 224.022460938 291.045898438 c 4
 217.090751941 318.757123743 181.600505688 348 174 348 c 7
 172.888888889 348 163 344.03474007 163 341 c 7
 163 334.333333333 169.033482143 317.37037037 170.0390625 312 c 5
 58.0390625 265 l 5
 51.8168402778 277.75 44.0390625 303.25 44.0390625 316 c 5
 44.0390625 326.585365854 51.002025463 335.926829268 67.0390625 347 c 5
 141.071866828 391.625 208.293455756 410 225.51953125 410 c 5
 241.684969895 410 291.93535108 377.229232411 306.180664062 362.27734375 c 5
 343.067465208 396.975065839 377.076511337 411 388 411 c 5
 448.446027739 411 504.459079542 372.267501898 532.859375 323 c 4
 549 295 559.305306527 293.933333333 563 295 c 5
 561 271 l 5
 489.366573935 253.9 409.212445976 233.542857143 335.696289062 214 c 5
229.563476562 182.689453125 m 5
 196.484601875 174.163903903 156.881254913 175.087479306 145 156 c 4
 140.553517458 148.856634747 134 137.0766 134 117 c 7
 134 100.712154961 149.120268797 70 176 70 c 7
 195.015574171 70 229.775939699 101.586285242 236.560546875 109.82421875 c 5
 231.564165879 130.958429286 229.301258938 155.524884467 229.563476562 182.689453125 c 5
EndSplineSet
Substitution2: "pcap-1" ae.pcap
Substitution2: "case-1" AE
Substitution2: "smcp-1" ae.smcp
EndChar

StartChar: germandbls
Encoding: 223 223 327
Width: 579
VWidth: 1159
Flags: W
HStem: -9 40<37 88.8477 173.148 208.525 365.019 460.981> 356 30<40 95.2842> 705 51<244.321 344.378>
VStem: 100 65<36.3341 356 396.595 588.58> 276 67<305.481 354.885> 301 22<88.2815 107.227> 396.559 58.286<487.211 649.856> 477 62<53.3627 166.162>
LayerCount: 2
Fore
SplineSet
312 756 m 0xfb
 411.877 756 454.845 679.623 454.845 588.779 c 0
 454.845 446.016 343 385.103 343 345 c 0xfb
 343 322 360.358 300 417 276 c 1
 495.85 246.667 539 186.985 539 128 c 0
 539 33.1543 458.812 -9 408 -9 c 0
 365.699560976 -9 332.401317073 2 300 16 c 1
 304 30 306 44 306 59 c 0
 306 68.3555 304.571 95.6445 301 105 c 1
 323 112 l 1xf7
 342.104493506 56.8506 380.314818182 31 426 31 c 0
 451.5 31 477 56.9092 477 106 c 0
 477 163.711 429.343 194.988 396 212 c 0
 347 237 276 253 276 324 c 0
 276 346 396.559 432.484 396.559 571.703 c 0
 396.559 648.474 347.395 705 278 705 c 0
 190.602 705 180.067 591.244 171 454 c 1
 167.34 417.394 165 295.325 165 249 c 0
 165 182.096 166.167 119.272 172 54 c 0
 172.739 39 177.174 34 189 33 c 0
 196.534 32 203.466 32 211 31 c 1
 208 -6 l 1
 182.625 -1 146.375 1 121 1 c 0
 97.2266 1 60.7734 -2 37 -6 c 1
 36 30 l 1
 47 31 61 31 72 33 c 1
 89.5947 40 91.8652 53 93 81 c 1
 97.375 120.633 100 172.459 100 222 c 0
 99.4055 259.124 99.1645 308.001 99.0667 356 c 1
 40 356 l 1
 40 386 l 1
 59.9402 389.935 79.0951 397.74 99.0097 401.801 c 1
 99 418.369 99 434.298 99 449 c 0
 99 579.533 140.062 647.199 205 704 c 0
 235.911 731 265.237 756 312 756 c 0xfb
EndSplineSet
Validated: 1
MultipleSubs2: "case-2" S S
Substitution2: "pcap-1" uni1E9E.pcap
Substitution2: "case-1" uni1E9E
Substitution2: "smcp-1" uni1E9E.smcp
EndChar

StartChar: greater
Encoding: 62 62 333
Width: 463
VWidth: 0
Flags: HW
LayerCount: 2
Fore
SplineSet
62 339.2 m 1
 116 412 l 1
 412 201 l 1
 70 -7 l 1
 52 24 l 1
 297 170.2 l 1
 62 339.2 l 1
EndSplineSet
Position2: "'case' vertical ajustments for all-caps-1" dx=0 dy=90 dh=0 dv=0
EndChar

StartChar: braceleft
Encoding: 123 123 336
Width: 266
VWidth: 1515
Flags: HW
LayerCount: 2
Fore
SplineSet
239.5 708.300195312 m 1
 239.5 708.300195312 239.5 694.480195312 239.5 670.300195312 c 1
 200.230711864 669.277916831 176.5 636.051547509 176.5 535.700195312 c 3
 176.5 467.143236201 200 457.390412698 200 390 c 3
 200 334.827073456 122.308805861 257.261164743 110.5 243.300195313 c 1
 122.308805861 229.339163276 200 153.773067607 200 96.599590625 c 3
 200 33.2084539511 176.5 14.4562458278 176.5 -49.1006046875 c 3
 176.5 -147.452251771 195.2013001 -182.677529238 239.5 -183.699804687 c 1
 239.5 -221.699804687 l 1
 164.128042925 -229.474988525 81.5 -179.472596465 81.5 0.2997953125 c 3
 81.5 44.3096270108 92 85.5113782517 92 102.599590625 c 3
 92 149.457743785 66.5083595122 209.109971607 11.5 230.300195313 c 1
 11.5 257.300195313 l 1
 68.5083595122 278.323444465 92 338.501489418 92 384 c 3
 92 397.087930592 81.5 447.289814087 81.5 486.300195312 c 3
 81.5 666.072953207 170.216278219 716.075382123 239.5 708.300195312 c 1
EndSplineSet
Position2: "cpsp-1" dx=0 dy=0 dh=50 dv=100
Position2: "'case' vertical ajustments for all-caps-1" dx=0 dy=90 dh=0 dv=0
EndChar

StartChar: asciitilde
Encoding: 126 126 339
Width: 394
VWidth: 0
Flags: HW
LayerCount: 2
Back
SplineSet
13.8662109375 176.646484375 m 5
 45.3271484375 242.755859375 108.74609375 310.608398438 115.53515625 310.608398438 c 7
 163.168945312 310.608398438 238.890625 268.947265625 291.548828125 268.947265625 c 7
 302.698242188 268.947265625 316.426757812 295.602539062 330 323.4609375 c 5
 381 307.4609375 l 5
 357.426757812 239.602539062 289.266601562 159.947265625 284.548828125 159.947265625 c 7
 241.502929688 159.947265625 154.469726562 206.608398438 105.53515625 206.608398438 c 7
 93.63671875 206.608398438 68.734375 168.762695312 62 158 c 5
 13.8662109375 176.646484375 l 5
EndSplineSet
Fore
SplineSet
16 172 m 1
 46.6451612903 241.511111111 114.827956989 308 111 308 c 3
 154.977272727 308 248.045454545 269 291 269 c 3
 298.454545455 269 320.818181818 293.391304348 332 320 c 1
 378 308 l 1
 354.176470588 245.134020619 301.388235294 165 297 165 c 3
 253.118918919 165 146.740540541 204 99 204 c 3
 89.25 204 67.5 176.307692308 57 159 c 1
 16 172 l 1
EndSplineSet
Position2: "cpsp-1" dx=0 dy=0 dh=50 dv=100
Position2: "'case' vertical ajustments for all-caps-1" dx=0 dy=90 dh=0 dv=0
EndChar

StartChar: kgreenlandic
Encoding: 312 312 345
Width: 520
VWidth: 1159
Flags: W
HStem: -5 33<33.6364 85.0934 314.455 358.094 457 501.545> 344 29<39.7931 76.7086> 374 27<269 299.949 413.248 459.333> 395 20G<145.5 187>
VStem: 105 64<42.314 204 227 346.994>
LayerCount: 2
Fore
SplineSet
179 211 m 1xe8
 169 204 l 1
 169 140.25 171.723635175 78.5727361869 175 54 c 0
 177 39 185.619315018 37.1522739927 196 33 c 0
 206 29 216 28 230 27 c 1
 225 -7 l 1
 191 -1 172 4 130 4 c 3
 100 4 64 -3 34 -5 c 1
 32 28 l 1
 43 29 54.2438024311 30.030722479 64 33 c 0
 87 40 93.3132247115 48.0575369992 96 76 c 0
 101 128 105 170 105 235 c 3
 105 253.368013699 103.27297056 281.632471039 101 318 c 0
 100 334 94 348 77 348 c 3
 71 348 51 345 41 344 c 1
 36 373 l 1
 88 381.884615385 124 387.538461538 167 415 c 1xd8
 187 399 l 1
 181 385 174.184346429 357.982026431 173 347 c 0
 171 328.454705882 168 273.908529412 167 227 c 1
 201.5858 255.29682906 250.733796152 297.620653704 285 330 c 0
 291.596571429 336.233333333 301 348.518518519 301 355 c 3
 301 373 277 372 267 374 c 1
 269 401 l 1
 295 399 330 399 357 399 c 3
 388.166666667 399 428.777777778 399 459 403 c 1
 461 371 l 1
 400.820895522 364.000222222 364.689666047 341.369176033 333 319 c 2
 231 247 l 1
 297.824402928 186.179636497 367.532605558 122.858938129 446 52 c 1
 462 37 490 29 504 28 c 1
 501 -6 l 1
 467 0 449 4 407 4 c 3
 377 4 345 -3 315 -5 c 1
 312 28 l 1
 348 33 348 37 359 38 c 1
 296.777686305 99.8038948798 205.773756239 186.901875399 179 211 c 1xe8
EndSplineSet
Validated: 1
MultipleSubs2: "case-2" K quoteleft
EndChar

StartChar: OE
Encoding: 338 338 346
Width: 1081
VWidth: 1159
Flags: W
HStem: -7 49<336.528 518.419> 3.06988 37.3024<639.125 901.73> 334 36<614 882.393> 650 44<298.396 500.529>
VStem: 37 93<266.365 448.041> 531 93<373.564 620.777> 534.995 79.0053<90.5 334 370 605.156> 906 36<248.75 306.348 394.846 442.094> 947 30<539 620.59> 1007 28<152.034 171.75>
LayerCount: 2
Fore
SplineSet
385 650 m 3xbdc0
 244 650 130 535.515933333 130 377 c 3
 130 202.722537538 273 42 443 42 c 3
 495.7 42 533 62.631 533 92 c 1
 534.422110588 116.770777747 534.994687396 175.604459673 534.994687396 244.572312164 c 0xbbc0
 534.994687396 369.591771373 533.113224845 527.911675418 531 577 c 0
 528.17 641.262 448.642 650 385 650 c 3xbdc0
424 -7 m 3
 210 -7 37 145.659140762 37 336 c 3
 37 527.127628169 212 694 422 694 c 3
 507.490017004 694 461.789007914 684.96875 696.956054688 684.96875 c 3
 838.863027557 684.96875 966.475003159 689.186881304 983 693 c 1
 994.145145837 683.247997393 998.133414459 677.741599913 998.133414459 669.087387512 c 0
 998.133414459 652.893580795 984.168856119 625.677987617 977 539 c 1
 947 536 l 1
 936 572 955 619 919 630 c 0
 856 648 737 653 656 643 c 0
 638 641 625 627 624 609 c 0xbdc0
 620 526.970338983 615 445.953389831 614 370 c 1
 678 372 838 372 852 373 c 0
 889 378 894 404 910 448 c 1
 944 441 l 1
 935.800908316 410.132831309 932.486685813 379.498275435 932.486685813 348.871954284 c 0
 932.486685813 315.997648821 936.305294619 283.132831309 942 250 c 1
 906 241 l 1
 886 312 893 325 852 329 c 0
 808 334 707 333 614 334 c 1
 613 236.227091633 617 147.525896414 629 81 c 0
 633 64 642 50 659 49 c 0
 704.831179232 44.5647245905 745.319436302 40.3723092792 783.696225476 40.3723092792 c 0
 823.193090286 40.3723092792 860.453436792 44.8130178498 899 58 c 0
 958 78 968 101 1007 177 c 1
 1035 170 l 1
 1019 104 1008 62 996 0 c 1
 886.301 -0.545565 771.508 3.06988 667.928 3.06988 c 3x7bc0
 487.932 3.06988 491.022 -7.00001 424 -7 c 3
EndSplineSet
Validated: 33
Position2: "cpsp-1" dx=0 dy=0 dh=50 dv=100
Substitution2: "c2pc-1" oe.pcap
Substitution2: "c2sc-1" oe.smcp
EndChar

StartChar: uni2605
Encoding: 9733 9733 347
Width: 821
VWidth: 0
Flags: HW
LayerCount: 2
Fore
SplineSet
827.419921875 447.927539062 m 1
 569.83984375 260.332226562 l 1
 668.011914062 -41.9599609375 l 1
 410.431835938 145.636328125 l 1
 152.851757812 -41.9599609375 l 1
 251.023828125 261.304101562 l 1
 -6.55665 447.927539062 l 1
 311.287890625 446.955664062 l 1
 410.431835938 750.219726562 l 1
 508.60390625 447.927539062 l 1
 827.419921875 447.927539062 l 1
EndSplineSet
EndChar

StartChar: uni2606
Encoding: 9734 9734 348
Width: 821
VWidth: 30
Flags: HW
LayerCount: 2
Fore
SplineSet
578.104492188 367.850585938 m 5
 449.6484375 368.21484375 l 1
 410.673828125 489.641601562 l 5
 372.368164062 367.197265625 l 1
 243.494140625 367.74609375 l 5
 348.91796875 292.317382812 l 1
 307.122070312 169.850585938 l 5
 410.428710938 249.856445312 l 1
 514.147460938 169.883789062 l 5
 471.939453125 291.299804688 l 1
 578.104492188 367.850585938 l 5
827.580078125 448.087695312 m 1
 570 260.492382812 l 1
 668.172070312 -41.7998046875 l 1
 410.591992188 145.796484375 l 1
 153.011914062 -41.7998046875 l 1
 251.183984375 261.464257812 l 1
 -6.39649375 448.087695312 l 1
 311.448046875 447.115820312 l 1
 410.591992188 750.379882812 l 1
 508.7640625 448.087695312 l 1
 827.580078125 448.087695312 l 1
EndSplineSet
EndChar

StartChar: uni261C
Encoding: 9756 9756 349
Width: 2241
Flags: W
HStem: -39.8809 34.5928<702.366 803.644>
VStem: 65.4062 47.9922<389.495 407.811>
LayerCount: 2
Fore
SplineSet
65.4062 488.98 m 1
 133.471 493.169 171.866 495.579 238.634 514.306 c 1
 246.596 504.546 534.656 534.515 542.911 561.332 c 1
 564.898 551.482 577.512 547.037 605.929 570.229 c 1
 773.769 556.794 986.458 616.839 1106 648 c 1
 1329.25 569.701 1572.25 468.729 1696.18 430.638 c 1
 1739.57 483.052 1793.53 507.924 1848.05 516.793 c 1
 2110.43 547.303 l 1
 2163.02 255.056 2175.68 -29.6611 2148.35 -306.85 c 1
 1892.24 -297.519 l 1
 1875.45 -261.822 1858.65 -226.126 1841.85 -190.43 c 1
 1814.48 -179.761 1789.09 -165.358 1754.94 -149.172 c 1
 1614.8 -241.059 1469.34 -206.779 1327.96 -171.926 c 1
 1302.89 -235.181 1261.64 -288.312 1185.82 -267.69 c 1
 1164.81 -330.418 1107.45 -355.95 1072.25 -326.185 c 0
 999.4 -264.557 891.756 -230.288 835.198 -172.483 c 1
 682.232 -206.512 560.41 -112.538 687.913 48.1104 c 1
 660.334 112.992 745.543 185.467 777.889 271.683 c 1
 695.375 282.243 590.004 307.018 566.297 298.763 c 0
 515.511 281.073 363.284 309.172 334.218 317.119 c 1
 176.398 304.119 59.9014 331.849 65.4062 488.98 c 1
227.493 480.275 m 1
 178.401 472.663 150.689 468.371 101.594 460.757 c 1
 93.8691 413.082 244.447 408.912 227.493 480.275 c 1
1084.38 592.183 m 0
 825.397 554.269 996.286 546.32 636.788 522.399 c 0
 585.692 519 590.137 488.802 569.033 486.987 c 0
 550.55 485.4 544.591 511.314 526.415 507.695 c 0
 434.1 489.321 365.902 488.599 263.3 476.39 c 1
 250.997 394.928 192.292 410.334 113.398 407.811 c 1
 114.412 376.567 264.124 347.652 350.099 377.665 c 1
 407.623 368.682 461.089 357.379 523.575 380.384 c 1
 604.456 372.626 651.254 355.211 727.339 401.371 c 1
 807.605 356.047 974.055 358.16 1064.13 421.6 c 1
 1070.94 421.779 1071.33 413.38 1077.52 410.565 c 1
 1051.33 362.256 1084.46 312.087 1114.36 315.387 c 0
 1130.39 317.154 1149.22 354.088 1163.9 376.21 c 0
 1172.19 388.706 1208.8 379.251 1202.08 365.563 c 0
 1164.56 289.234 1183.03 221.194 1302.92 308.083 c 0
 1330.21 327.857 1391.28 329.565 1389.06 296.334 c 0
 1387.54 273.576 1345.13 302.372 1303.25 264.596 c 0
 1210.07 180.539 1123.04 118.563 1008.84 107.013 c 1
 996.464 98.4824 989.483 93.6709 977.105 85.1396 c 1
 876.257 142.62 705.042 54.8047 694.435 -5.28809 c 1
 757.921 -1.57617 796.29 11.3975 834.737 -28.0469 c 1
 861.688 11.0107 922.306 3.84277 985.483 11.0127 c 1
 998.435 5.33398 1005.74 2.13281 1018.69 -3.54395 c 1
 1031.07 4.98828 1038.05 9.79883 1050.42 18.3291 c 1
 1063.43 11.9795 1070.77 8.39844 1083.78 2.04883 c 1
 1093.29 11.6924 1098.66 17.1289 1108.17 26.7725 c 1
 1169 0.666992 1265.6 3.79102 1298.85 55.3369 c 0
 1307.77 69.1582 1331.21 74.7871 1353.92 73.9941 c 0
 1497.96 68.9609 1697.02 60.1641 1760.13 150.666 c 0
 1796.28 202.51 1766.13 361.801 1721.3 387.54 c 1
 1551.99 437.4 1391.01 515.096 1175.49 584.343 c 0
 1141.59 595.234 1119.66 597.348 1084.38 592.183 c 0
823.456 -100.385 m 1
 821.674 -60.501 792.91 -39.6387 757.787 -39.8809 c 0
 715.507 -40.1699 663.499 -75.8311 669.326 -101.442 c 0
 672.815 -116.764 791.04 -134.5 823.456 -100.385 c 1
1825.2 474.796 m 1
 1793.57 452.477 1775.72 439.887 1744.09 417.571 c 1
 1790.28 409.132 l 1
 1834.35 392.028 1910.85 90.5078 1840.19 -91.3711 c 1
 1844.61 -94.3838 1847.1 -96.085 1851.52 -99.1006 c 1
 1989.62 -17.6104 1923.24 389.222 1825.2 474.796 c 1
EndSplineSet
Validated: 33
EndChar

StartChar: uni261E
Encoding: 9758 9758 350
Width: 2241
Flags: HMW
LayerCount: 2
Fore
SplineSet
2162.17 488.98 m 1
 2167.68 331.849 2051.18 304.119 1893.36 317.119 c 1
 1864.29 309.172 1712.07 281.073 1661.28 298.763 c 0
 1637.57 307.018 1532.2 282.243 1449.69 271.683 c 1
 1482.03 185.467 1567.24 112.992 1539.66 48.1104 c 1
 1667.17 -112.538 1545.34 -206.512 1392.38 -172.483 c 1
 1335.82 -230.288 1228.18 -264.557 1155.32 -326.185 c 0
 1120.13 -355.95 1062.77 -330.418 1041.76 -267.69 c 1
 965.937 -288.312 924.688 -235.181 899.613 -171.926 c 1
 758.235 -206.779 612.779 -241.059 472.641 -149.172 c 1
 438.485 -165.358 413.094 -179.761 385.725 -190.43 c 1
 368.927 -226.126 352.131 -261.822 335.333 -297.519 c 1
 79.2285 -306.85 l 1
 51.9014 -29.6611 64.5586 255.056 117.149 547.303 c 1
 379.524 516.793 l 1
 434.047 507.924 488.01 483.052 531.394 430.638 c 1
 655.332 468.729 898.328 569.701 1121.58 648 c 1
 1241.12 616.839 1453.81 556.794 1621.65 570.229 c 1
 1650.07 547.037 1662.68 551.482 1684.67 561.332 c 1
 1692.92 534.515 1980.98 504.546 1988.94 514.306 c 1
 2055.71 495.579 2094.11 493.169 2162.17 488.98 c 1
2000.08 480.275 m 1
 1983.13 408.912 2133.71 413.082 2125.98 460.757 c 1
 2076.89 468.371 2049.18 472.663 2000.08 480.275 c 1
1143.19 592.183 m 0
 1107.92 597.348 1085.99 595.234 1052.09 584.343 c 0
 836.569 515.096 675.586 437.4 506.281 387.54 c 1
 461.443 361.801 431.295 202.51 467.448 150.666 c 0
 530.558 60.1641 729.622 68.9609 873.661 73.9941 c 0
 896.366 74.7871 919.808 69.1582 928.726 55.3369 c 0
 961.981 3.79102 1058.58 0.666992 1119.41 26.7725 c 1
 1128.92 17.1289 1134.29 11.6924 1143.8 2.04883 c 1
 1156.8 8.39844 1164.14 11.9795 1177.15 18.3291 c 1
 1189.53 9.79883 1196.51 4.98828 1208.89 -3.54395 c 1
 1221.83 2.13281 1229.14 5.33398 1242.09 11.0127 c 1
 1305.27 3.84277 1365.89 11.0107 1392.84 -28.0469 c 1
 1431.29 11.3975 1469.66 -1.57617 1533.14 -5.28809 c 1
 1522.54 54.8047 1351.32 142.62 1250.47 85.1396 c 1
 1238.09 93.6709 1231.11 98.4824 1218.74 107.013 c 1
 1104.54 118.563 1017.5 180.539 924.325 264.596 c 0
 882.445 302.372 840.035 273.576 838.518 296.334 c 0
 836.301 329.565 897.366 327.857 924.653 308.083 c 0
 1044.55 221.194 1063.02 289.234 1025.5 365.563 c 0
 1018.77 379.251 1055.38 388.706 1063.68 376.21 c 0
 1078.36 354.088 1097.19 317.154 1113.21 315.387 c 0
 1143.12 312.087 1176.25 362.256 1150.06 410.565 c 1
 1156.25 413.38 1156.63 421.779 1163.45 421.6 c 1
 1253.52 358.16 1419.97 356.047 1500.24 401.371 c 1
 1576.32 355.211 1623.12 372.626 1704 380.384 c 1
 1766.49 357.379 1819.95 368.682 1877.48 377.665 c 1
 1963.45 347.652 2113.17 376.567 2114.18 407.811 c 1
 2035.29 410.334 1976.58 394.928 1964.28 476.39 c 1
 1861.67 488.599 1793.48 489.321 1701.16 507.695 c 0
 1682.99 511.314 1677.03 485.4 1658.54 486.987 c 0
 1637.44 488.802 1641.88 519 1590.79 522.399 c 0
 1231.29 546.32 1402.18 554.269 1143.19 592.183 c 0
1404.12 -100.385 m 1
 1436.54 -134.5 1554.76 -116.764 1558.25 -101.442 c 0
 1564.08 -75.8311 1512.07 -40.1699 1469.79 -39.8809 c 0
 1434.67 -39.6387 1405.9 -60.501 1404.12 -100.385 c 1
402.373 474.796 m 1
 304.342 389.222 237.955 -17.6104 376.058 -99.1006 c 1
 380.473 -96.085 382.967 -94.3838 387.383 -91.3711 c 1
 316.725 90.5078 393.227 392.028 437.294 409.132 c 1
 483.483 417.571 l 1
 451.853 439.887 434.009 452.477 402.373 474.796 c 1
EndSplineSet
Validated: 33
EndChar

StartChar: uni211F
Encoding: 8479 8479 429
Width: 831
UnlinkRmOvrlpSave: 1
Flags: HW
HStem: -10 44<264 272> 323 44<178 306.579>
VStem: 88 90<71.4111 283.488 429.868 640.189> 456 87<441.267 575.707>
LayerCount: 2
Fore
SplineSet
485 -72 m 5
 591 95.0902527076 741 461.097472924 737 479 c 5
 626 519 l 5
 617.75 542.192771084 663.209090147 573.033501641 692 596 c 5
 739.19 579.23 765.81 569.77 813 553 c 5
 773 475 572.146067416 -19.3583460949 537 -97 c 5
 485 -72 l 5
EndSplineSet
Refer: 43 82 N 1 0 0 1 0 0 2
EndChar

StartChar: uni2123
Encoding: 8483 8483 430
Width: 841
UnlinkRmOvrlpSave: 1
Flags: HW
HStem: 658 36<188.341 269 596.689 669.375 765.391 828.825> 658 38<10.0789 73.9741>
VStem: 397 46<-27 41.9461>
LayerCount: 2
Fore
SplineSet
201 -72 m 1x20
 307 95.0902527076 457 461.097472924 453 479 c 1
 342 519 l 1
 333.75 542.192771084 379.209090147 573.033501641 408 596 c 1
 455.19 579.23 481.81 569.77 529 553 c 1
 489 475 288.146067416 -19.3583460949 253 -97 c 1
 201 -72 l 1x20
EndSplineSet
Refer: 54 86 N 1 0 0 1 0 0 2
EndChar

StartChar: estimated
Encoding: 8494 8494 431
Width: 752
VWidth: 0
Flags: W
HStem: -9 50.917<266.135 484.333> 310.923 51.15<191.384 562.454> 632.006 50.917<264.706 485.147>
VStem: 30.1973 161.187<217.349 310.923 362.073 455.702> 562.454 159.576<362.073 456.3>
LayerCount: 2
Fore
SplineSet
632.777 191.846 m 1
 676.861 166.441 l 1
 673.98 161.581 l 2
 613.377 59.3301 501.767 -9 376 -9 c 0
 189.553 -9 30.1973 142.604 30.1973 338.341 c 0
 30.1973 525.945 184.438 682.615 375.52 682.923 c 2
 376.044 682.923 l 2
 564.48 682.923 722.035 529.016 722.03 336.942 c 0
 722.03 329.967 721.813 323.039 721.4 316.168 c 2
 721.084 310.923 l 1
 191.384 310.923 l 1
 191.384 107.399 l 1
 242.467 66.2236 307.069 41.917 376 41.917 c 0
 483.087 41.917 578.216 100.053 629.964 187.113 c 2
 632.777 191.846 l 1
191.384 566.668 m 1
 191.384 362.073 l 1
 562.454 362.073 l 1
 562.454 565.158 l 1
 511.302 606.997 446.18 632.006 376.044 632.006 c 2
 375.598 632.006 l 2
 305.803 631.894 241.805 607.323 191.384 566.668 c 1
EndSplineSet
Validated: 33
EndChar

StartChar: uni2023
Encoding: 8227 8227 436
Width: 614
Flags: HW
LayerCount: 2
Back
Fore
SplineSet
567 309.641375 m 1
 567 273 l 1
 536 241 408.480382217 194.442089414 342 161 c 0
 208.352928118 93.7705831604 150.644194739 -25.5166015625 115.133789062 -25.5166015625 c 3
 91.3318047637 -25.5166015625 64.0565465934 -7.59282119609 48.240234375 6.640625 c 1
 48.5572932676 43.5228422491 60.2449939089 524.43593952 36.1602 571 c 1
 37.000006272 574.504285327 69.7161038711 599.279296875 88.5673828125 599.279296875 c 3
 118.078452666 599.279296875 233.828459921 463.959387316 308 425 c 0
 405.645910675 373.710450803 524.329501916 343.336738199 567 309.641375 c 1
EndSplineSet
EndChar

StartChar: dagger
Encoding: 8224 8224 437
Width: 442
Flags: HW
LayerCount: 2
Fore
SplineSet
316 370 m 1
 260 262 258 250 234 -18 c 1
 208 -18 l 1
 180 266 178.880859376 282.899414062 126 370 c 1
 182 440.535947712 192 459.411764705 208 522 c 1
 128 502 l 2
 66.3069281172 482 72.3636363636 458 44 458 c 3
 40.9356884267 458 5 507 5 534 c 3
 5 561.691470071 42.916015625 612 46 612 c 3
 72.9736842105 612 73.2222369267 590 128 572 c 2
 208 552 l 1
 186 623 l 2
 172 666.601325356 144 684.743902439 144 706 c 3
 144 705.945985373 194.747200147 747.000004958 222 747 c 1
 249.137723104 746.999994957 300 705.944487245 300 710 c 3
 300 686.178571429 272 668.329078352 258 623 c 2
 236 552 l 1
 316 572 l 2
 376.242035743 592 369.947368421 614 398 614 c 3
 401.487181061 614 439 565.332249773 439 538 c 3
 439 511.347635566 399.349184102 460 396 460 c 3
 369.333333333 460 370.444536057 484 316 502 c 2
 234 522 l 1
 250 460.405228758 260 441.529411765 316 370 c 1
EndSplineSet
EndChar

StartChar: daggerdbl
Encoding: 8225 8225 438
Width: 442
Flags: HW
LayerCount: 2
Fore
SplineSet
142 369 m 1
 187.073170732 439.538961039 195.12195122 459.409090909 208 522 c 1
 134 502 l 2
 79.258634774 482 83 458 57 458 c 3
 56.0504882812 458 5 504.636363636 5 534 c 3
 5 563.466666667 60.4335222942 612 58 612 c 3
 83 612 84.1131035941 590 134 572 c 2
 208 552 l 1
 186 620 l 2
 172 656.974467527 144 679.512195122 144 700 c 3
 144 704.282051282 192.533333333 747 222 747 c 3
 251.466666667 747 300 705.27027027 300 704 c 3
 300 681 272 656.877978154 258 620 c 2
 236 552 l 1
 310 572 l 2
 364.862535759 592 360 614 386 614 c 3
 383.7255383 614 439 567.363636364 439 538 c 3
 439 508.533333333 383.763253349 460 385 460 c 3
 360 460 359.650481171 484 310 502 c 2
 234 522 l 1
 246.87804878 460.402597403 254.926829268 440.532467532 300 369 c 1
 254.926829268 298.452229299 246.87804878 275.598726115 234 213 c 1
 309 233 l 2
 363.756614436 253 360 277 386 277 c 3
 385.949511719 277 438 230.363636364 438 201 c 3
 438 171.533333333 382.860184833 123 384 123 c 3
 359.328947368 123 358.244440014 145 309 163 c 2
 234 183 l 1
 256 115 l 2
 270 77.2927156837 298 54 298 33 c 3
 298 31.2307692308 249.466666667 -12 220 -12 c 3
 190.533333333 -12 142 31 142 25 c 3
 142 49.6428571429 170 75.514564697 184 115 c 2
 206 183 l 1
 133 163 l 2
 78.1597736995 143 83 121 57 121 c 3
 59.2744616997 121 4 167.636363636 4 197 c 3
 4 226.466666667 59.2367466518 275 58 275 c 3
 83 275 83.2326203021 251 133 233 c 2
 208 213 l 1
 195.12195122 274.605095541 187.073170732 297.458598726 142 369 c 1
EndSplineSet
EndChar

StartChar: longs
Encoding: 383 383 445
Width: 357
VWidth: 1159
Flags: W
HStem: -6 36<34 97.3708 215.17 284.568> 1 32<191.619 282.018> 356 25<46 67.3182> 701 55<273.459 377.117>
VStem: 113 72<42.1466 356 403 602.768>
AnchorPoint: "Top" 262 748 basechar 0
AnchorPoint: "Bottom" 156 -15 basechar 0
LayerCount: 2
Fore
SplineSet
359 756 m 3x78
 391 756 441 745 466 723 c 1
 465 696 466 696 417 659 c 1
 378 677 347 701 309 701 c 3
 206 701 201 609 191 498 c 0
 187.339 461.394 185 339.326 185 293 c 3
 185 211 186 134 191 54 c 0
 192 39 198 34 214 33 c 0x78
 239 32 262 32 287 31 c 1
 284 -6 l 1xb8
 242 -1 182 1 140 1 c 3x78
 110 1 64 -2 34 -6 c 1
 33 30 l 1xb8
 44 31 58 31 69 33 c 0
 100 40 104 53 106 81 c 0
 111 133 114 201 114 266 c 3
 114 285.149 113 320.574 113 356 c 1
 46 356 l 1
 46 381 l 1
 113 403 l 1
 113 439.562 113 481.75 113 493 c 3
 113 601 156 657 224 704 c 0
 263 731 300 756 359 756 c 3x78
EndSplineSet
Validated: 1
Substitution2: "case-1" S
Substitution2: "pcap-1" s.pcap
Substitution2: "smcp-1" s.smcp
EndChar

StartChar: ohorn
Encoding: 417 417 448
Width: 505
VWidth: 0
UnlinkRmOvrlpSave: 1
Flags: HW
HStem: -11 39<199.926 327.747> 365.36 24.3843<349.604 421.731> 374 45<168.903 305.133> 382.741 20G<338.441 342.053>
VStem: 32 76<130.211 291.037> 395 78<107.641 276.826> 442.501 86.0273<403.736 481.559>
AnchorPoint: "Top" 251 465 basechar 0
AnchorPoint: "Bottom" 249 -15 basechar 0
AnchorPoint: "Middle" 255 206 basechar 0
LayerCount: 2
Fore
SplineSet
334.482421875 402.741210938 m 5x9a
 349.62424831 396.926343349 372.471667174 389.744140625 386.686523438 389.744140625 c 7
 411.796269819 389.744140625 442.501138157 408.271731058 442.501138157 441.560602678 c 7
 442.501138157 449.63955766 438.983530489 459.025418514 428.6640625 470.818359375 c 5
 444.576416165 489.781030223 464.379979468 500.219391987 482.796821553 500.219391987 c 7
 512.365850716 500.219391987 528.528388939 475.09191665 528.528388939 445.9790134 c 7
 528.528388939 396.089685559 450.426516037 365.359813167 388.72825766 365.359813167 c 7xca
 357.132622939 365.359813167 342.400200021 377.606700862 334.482421875 402.741210938 c 5x9a
EndSplineSet
Refer: 14 111 N 1 0 0 1 0 0 2
Substitution2: "smcp-1" ohorn.smcp
Substitution2: "case-1" Ohorn
Substitution2: "pcap-1" ohorn.pcap
EndChar

StartChar: uhorn
Encoding: 432 432 449
Width: 526
VWidth: 0
UnlinkRmOvrlpSave: 1
Flags: W
HStem: -11 55<175.733 263.795> 338 31<292 351.243> 402 20G<128 167>
VStem: 70 76<75.1633 330.249> 359 64<36.0058 52 76.9705 331.63> 493.501 86.0273<404.739 481.559>
AnchorPoint: "Top" 265 465 basechar 0
AnchorPoint: "Bottom" 256 -15 basechar 0
LayerCount: 2
Fore
SplineSet
410 375 m 5
 418.121414362 381.745491074 430.375771951 388.077148438 438 390.077148438 c 5
 462.968647592 396.077148438 493.500976562 408.485648026 493.500976562 441.560546875 c 7
 493.500976562 449.639517266 489.983409974 459.025396022 479.6640625 470.818359375 c 5
 495.576431876 489.781246013 515.380014732 500.219726562 533.796875 500.219726562 c 7
 563.365825233 500.219726562 579.528320312 475.092318034 579.528320312 445.979492188 c 7
 579.528320312 396.08959691 501.426629866 370.359375 439.728515625 365.359375 c 5
 422.413060772 365.359375 414.339204806 368.517835056 410 375 c 5
285 369 m 1
 339.422818792 375.199161305 395.899328859 382.557301496 438 390.077148438 c 1
 445 378 l 1
 431 335.584 423 173.632 423 137 c 3
 423 107 426.284077022 81.1592297825 429 54 c 0
 430 44 433 36 443 36 c 3
 447 36 473 43 493 48 c 1
 499 17 l 1
 463 8 419.410107664 -9.647473084 386 -18 c 0
 382 -19 381 -22 376 -22 c 3
 359 -22 359 0 354 52 c 1
 313 34 236 -11 178 -11 c 3
 140 -11 102.934188969 5.51320688895 86 44 c 0
 75 69 70 95 70 143 c 3
 70 198 73 255 73 312 c 0
 73 322 69 331 59 331 c 3
 49 331 28 319 22 317 c 1
 12 348 l 1
 53 359 107 394 149 422 c 1
 167 406 l 1
 152 336 146 254 146 177 c 3
 146 106 161 44 232 44 c 3
 269 44 322 69 353 85 c 1
 354 154 359 291 359 298 c 3
 359 337 329 337 292 338 c 1
 285 369 l 1
EndSplineSet
Substitution2: "smcp-1" uhorn.smcp
Substitution2: "case-1" Uhorn
Substitution2: "pcap-1" uhorn.pcap
EndChar

StartChar: yen
Encoding: 165 165 451
Width: 463
VWidth: 1159
UnlinkRmOvrlpSave: 1
Flags: HW
HStem: -195.143 27.832<290.394 317.58> -20 36<93 383> 80 36<93 383>
VStem: 207.261 75.8369<-163.561 112.389>
LayerCount: 2
Fore
SplineSet
274.890625 169.708984375 m 1
 274.314622807 115.248982948 272.283654214 50.1171047102 283.09765625 -128.499023438 c 0
 285.015173967 -160.170886375 292.119204273 -161.0586431 320.783203125 -167.310546875 c 1
 317.580078125 -195.142578125 l 1
 274.689595576 -186.83690152 222.038207283 -183.218788643 178.485351562 -198.678710938 c 1
 171.08984375 -171.665039062 l 1
 195.610467016 -162.26863286 206.390990071 -155.268664903 207.260742188 -117.220703125 c 0
 207.787638441 -104.621204106 205.843021338 150.767976016 205.118164062 143.750976562 c 1
 204.034116885 150.049303618 155.095264654 248.178623374 87.2695828038 343.999997223 c 0
 76.0701508093 359.82210075 59.2291043945 378.720580661 49 385 c 1
 139 433 l 1
 144.933661013 402.938576204 168.652866704 351.939024868 181.091541944 327.999991964 c 0
 221.31584563 250.585724695 252.239236655 211.848881796 255.486328125 207.837890625 c 1
 299.730787717 303.031969433 321.320964056 356.628741888 331 433 c 1
 345.5 424.066173481 396.25 400.848034565 418 391 c 1
 345.004852928 317.965777551 314.263107929 249.458544383 274.890625 169.708984375 c 1
EndSplineSet
Refer: 1970 58113 N 0.29 0 0 1.125 93 -2 2
Refer: 1970 58113 N 0.29 0 0 1.125 93 98 2
Position2: "'lnum-2' vertical adjustment" dx=0 dy=190 dh=0 dv=0
EndChar

StartChar: eth
Encoding: 240 240 453
Width: 471
VWidth: 1159
UnlinkRmOvrlpSave: 1
Flags: HW
LayerCount: 2
Back
SplineSet
300 284 m 5
 276.727272727 341.56 190.493926147 340 204 340 c 7
 193.707692308 340 132 336.581113428 132 281 c 7
 132 169.607062372 198.353027344 70 312 70 c 7
 318.34531764 70 321 122.194546084 321 168 c 7
 321 314.381994739 206 576 63 695 c 5
 67.7662192294 702.780807573 77.2373046875 727.453125 77.2373046875 727.453125 c 5
 260.283740169 675.166289781 435 439.719447105 435 235 c 7
 435 113.962890625 360.284179688 -5 193 -5 c 7
 102.911132812 -5 28 65.923828125 28 171 c 7
 28 328.381823418 183.423728814 408 287 408 c 7
 280.807367625 408 268.33465882 413.689971152 262 420 c 5
 300 284 l 5
EndSplineSet
Fore
SplineSet
317 252 m 1
 289.606060606 342.451428571 219.897774431 340 204 340 c 3
 193.707692308 340 132 336.581113428 132 281 c 3
 132 171.718776829 201.975613382 74 284 74 c 3
 310.086305853 74 321 124.064156448 321 168 c 3
 321 314.381994739 206 576 63 695 c 1
 67.7662192294 702.780807573 77.2373046875 727.453125 77.2373046875 727.453125 c 1
 260.283740169 675.166289781 435 439.719447105 435 235 c 3
 435 113.962890625 360.284179688 -5 193 -5 c 3
 102.911132812 -5 28 65.923828125 28 171 c 3
 28 328.381823418 183.423728814 408 287 408 c 3
 300.700506505 408 316.117932241 409.896657051 326 412 c 1
 317 252 l 1
EndSplineSet
Refer: 1970 58113 N 0.284488 0.177084 -0.547233 0.872389 85.756 489.958 2
Substitution2: "pcap-1" eth.pcap
Substitution2: "case-1" Eth
Substitution2: "smcp-1" eth.smcp
EndChar

StartChar: quotereversed
Encoding: 8219 8219 462
Width: 200
VWidth: 1159
Flags: HW
HStem: 451 252
VStem: 29 141
LayerCount: 2
Fore
SplineSet
180.8046875 416 m 1
 -19.1953125 510 3.8046875 631 3.8046875 634 c 1
 3.8046875 642 9.8046875 648 16.8046875 651 c 0
 42.2353515625 667.4765625 68.515625 689 79.8046875 712 c 0
 82.6142578125 719.888671875 91.8046875 727 99.8046875 727 c 3
 108.249023438 727 116.693359375 720 119.8046875 713 c 0
 136.33984375 689.442382812 154.8046875 665 180.8046875 651 c 0
 188.690429688 648.057617188 192.8046875 642.142578125 192.8046875 634 c 3
 192.8046875 626.166992188 188.8046875 616.333007812 181.8046875 614 c 0
 154.274414062 600.0390625 122.8046875 579 109.8046875 548 c 0
 87.10546875 495.84375 160.8046875 456 194.8046875 450 c 1
 180.8046875 416 l 1
EndSplineSet
Position2: "cpsp-1" dx=0 dy=0 dh=7 dv=14
EndChar

StartChar: uni20B9
Encoding: 8377 8377 466
Width: 426
VWidth: 1159
UnlinkRmOvrlpSave: 1
Flags: W
HStem: -42 23<381.506 409> 283 31<32 113.386> 460.095 28.999<33.25 411.25>
VStem: 248 79<400.509 544.149>
LayerCount: 2
Fore
SplineSet
33.25 666.09375 m 1
 411.25 666.09375 l 1
 411.25 637.094726562 l 1
 33.25 637.094726562 l 1
 33.25 666.09375 l 1
33.25 489.09375 m 1
 411.25 489.09375 l 1
 411.25 460.094726562 l 1
 33.25 460.094726562 l 1
 33.25 489.09375 l 1
32.5 666 m 1
 57.25390625 666 67.658203125 666 96 666 c 0
 222.431640625 666 327 583 327 480 c 0
 327 393 262.599609375 334 189 304 c 1
 265.474609375 110.581054688 332.772460938 -13.0947265625 412 -19 c 1
 409 -42 l 1
 258 -39 178 134 114 284 c 1
 100.875 283 89.2080078125 283 79 283 c 0
 60.6474609375 283 50.3525390625 285.400390625 32 286 c 1
 32 316 l 1
 49.912109375 315.5 59.087890625 314 77 314 c 3
 219.663085938 314 248 410.737304688 248 469 c 3
 248 534.418945312 188.37890625 638 75 638 c 3
 61.8720703125 638 35.193359375 638 33.5 638 c 1
 32.5 666 l 1
EndSplineSet
EndChar

StartChar: eng
Encoding: 331 331 467
Width: 499
VWidth: 1159
Flags: W
HStem: -319 60<162.258 279.828> -5 33<20.3636 69> 335 29<32 79.6511> 338 61<245.574 353.747> 396 20G<129 175>
VStem: 95 75<72.7464 318.176 330 331.265> 379 69<-89.8607 313.154>
LayerCount: 2
Fore
SplineSet
329 -267 m 4xd6
 284.360294118 -296 253 -319 194 -319 c 7
 162 -319 112 -308 87 -286 c 5
 88 -259 87 -259 136 -222 c 5
 165.972222222 -237.857142857 189.796296296 -259 219 -259 c 7
 247.822033898 -259 296.27809609 -258.437912348 316 -237 c 4
 342.595265849 -208.090672547 360.595200234 -175.050461911 367 -146 c 4
 373.749647059 -115.385402827 379 -41.9109823322 379 143 c 7
 379 192.5 376.549026451 266.820841347 374 287 c 4
 369 328.328358209 348 358 293 358 c 7xd6
 245 358 203 344.4 170 324 c 5
 168 234.329113924 161 109.430379747 161 71 c 7
 161 27.80589946 195.795590225 30.6204409775 232 27 c 5
 228 -7 l 5
 189 -1 159 4 117 4 c 7
 87 4 51 -1 21 -5 c 5
 18 28 l 5
 55.449092135 34.8089258427 78.318284601 37.5524032329 87 76 c 4
 94 107 95 167 95 199 c 7
 95 219 92.9313485794 287.976104104 86 308 c 4
 77 334 72 336 54 336 c 7
 44 336 41 335 32 335 c 5
 30 364 l 5
 67 371 104 375 154 416 c 5xee
 175 401 l 5
 170 387.056338028 167 366.915492958 167 346 c 5
 215 377 267 415 330 415 c 7
 403 415 448 375 448 304 c 7
 448 213.433607383 445 119.425469455 445 -84 c 7
 445 -134 432.819094368 -164.880515375 419 -186 c 4
 396.752808989 -220 368.44138087 -241.377070309 329 -267 c 4xd6
EndSplineSet
Validated: 1
Substitution2: "smcp-1" eng.smcp
Substitution2: "case-1" Eng
Substitution2: "pcap-1" eng.pcap
EndChar

StartChar: Eng
Encoding: 330 330 468
Width: 836
VWidth: 1159
Flags: W
HStem: -241 62<483.653 578.44> -10 44<23.3182 86.8179 186.794 270.067> 655 39<771.217 833> 663 38<601.079 678.507>
VStem: 97 55<66.5393 314.07> 105 56<351.62 550> 676.266 70.7344<-86.2532 70.0219>
LayerCount: 2
Fore
SplineSet
628 -189 m 0xe6
 589 -216 552 -241 493 -241 c 3
 461 -241 411 -230 386 -208 c 1
 387.224489796 -178.046875 386 -178.046875 446 -137 c 1
 485 -155 508.349151158 -179 554 -179 c 3
 640.616503398 -179 676.265625 -76.9678502479 676.265625 -13.4755859375 c 3
 676.265625 48.2626834417 640.03404243 103.097021502 604 139.090820312 c 0
 459.896 279.614068929 313.026 416.065410818 161 550 c 1xe6
 152 154 l 2
 149.672574689 52.4216563039 186 44.674796748 277 35 c 1
 269 -11 l 1
 229.225006617 -2.55029543162 191.72886241 0.193359375 156.584960938 0.193359375 c 0
 107.789937357 0.193359375 63.5294692282 -6.59829339283 24 -10 c 1
 19 34 l 1
 77 34 94.2505340003 45.0370931165 97 93 c 0xea
 106 246.782786885 108.836453881 409.412965035 105 571 c 0
 104 614 69 649 12 648 c 1
 14 692 l 1
 53 688 104.987806691 684 146 684 c 0
 161 684 162.224003945 680.217054625 169 673 c 0
 318.792 516.927864326 473.300161891 367.004316767 636 223.227539062 c 0
 659.155 202.310678333 682.86 176.9488472 699 154 c 1
 708 281.98180798 710.135155394 409.964631854 709 545 c 0
 708 667 656 656 597 663 c 1
 602 701 l 1xd6
 658.737273127 693.806776525 706.285370634 691.3984375 751.0625 691.3984375 c 0
 778.931628397 691.3984375 805.747514379 692.483615703 833 694 c 1
 837 655 l 1
 788 649 766.708243919 651.026764413 763 609 c 0
 748 442.189493433 745 264.596148366 745 86 c 0
 745 63 747 43 747 0 c 3
 747 -86.94 692.388915009 -144.42305884 628 -189 c 0xe6
EndSplineSet
Validated: 33
Position2: "cpsp-1" dx=0 dy=0 dh=50 dv=100
Substitution2: "c2pc-1" eng.pcap
Substitution2: "c2sc-1" eng.smcp
EndChar

StartChar: circumcombhigh
Encoding: 58081 58081 471
Width: 0
VWidth: 1159
Flags: HW
LayerCount: 2
Back
SplineSet
-71.2197 465.56 m 1
 -93.3955 450.319 l 1
 -197.5 518.507 l 1
 -301.604 450.319 l 1
 -323.78 465.56 l 1
 -215.364 583.681 l 1
 -179.636 583.681 l 1
 -71.2197 465.56 l 1
EndSplineSet
Fore
SplineSet
-71.2197265625 473.559570312 m 1
 -85.3955078125 451.318359375 l 1
 -198 491.013671875 l 1
 -308.604492188 451.318359375 l 1
 -323.780273438 473.559570312 l 1
 -215.364257812 591.680664062 l 1
 -179.635742188 591.680664062 l 1
 -71.2197265625 473.559570312 l 1
EndSplineSet
EndChar

StartChar: a.pcap
Encoding: 57347 57347 643
Width: 472
VWidth: 1159
Flags: HW
AnchorPoint: "Top" 250 465 basechar 0
AnchorPoint: "Bottom" 239 -15 basechar 0
LayerCount: 2
Back
SplineSet
162 135 m 5
 181.775682136 128.75 228.542531483 130 247 130 c 5
 240.247465587 158.035531851 213.506161645 206.178448016 200 223 c 5
 187.46 191.888270548 173.4 161.667701198 162 135 c 5
229 -9 m 5
 229 -9 227 16.2 226 26 c 5
 256.737903226 27.4384615385 262.324136354 50.9962123774 262 60 c 4
 261.64 73.3333333333 261.159765625 76.6669921875 259 90 c 5
 242.291779891 101.454101562 171.6640625 108 147 99 c 5
 142.333007812 84.9306640625 144.854529626 89.9201138837 140 75 c 4
 132.667698907 52.464599917 157.618181818 19.724137931 197 27 c 5
 204 -7 l 5
 180.194854707 -2.9169921875 134.692966475 -0.875 92.8076171875 -0.875 c 7
 64.1616020146 -0.875 37.2803998316 -1.9169921875 21 -4 c 5
 21 -1.84615384615 17.25 14.3076923077 16 24 c 5
 42.6758974359 31.8 74.4411327476 56.0040512644 78 63 c 4
 135.555555556 176.141538462 191.1339469 297.023858401 226 390 c 4
 229 398 228.25 400 228 415 c 5
 272 415 l 5
 273.5 395 272.714556618 397.912072667 275 391 c 4
 316 267 346 166 407 37 c 4
 412.676576496 24.9954365905 438.428571429 21 451 21 c 5
 451 19 455 5 458 -3 c 5
 430.144146125 -0.380859375 391.688941703 1.0947265625 352.567382812 1.0947265625 c 7
 305.810757446 1.0947265625 258.02446553 -1.97302783621 229 -9 c 5
EndSplineSet
Fore
SplineSet
162 135 m 1
 183.17161264 128.75 233.239651352 130 253 130 c 1
 245.385439917 158.035531851 215.230352493 206.178448016 200 223 c 1
 187.46 191.888270548 173.4 161.667701198 162 135 c 1
229 -9 m 1
 229 -9 227 16.2 226 26 c 1
 261.860887097 27.4384615385 268.243227947 50.9915575149 268 60 c 0
 267.64 73.3333333333 267.159765625 76.6669921875 265 90 c 1
 247.396696671 101.454101562 172.985351562 108 147 99 c 1
 142.333007812 84.9306640625 144.854529626 89.9201138837 140 75 c 0
 132.667698907 52.464599917 157.618181818 19.724137931 197 27 c 1
 204 -7 l 1
 180.194854707 -2.9169921875 134.692966475 -0.875 92.8076171875 -0.875 c 3
 64.1616020146 -0.875 37.2803998316 -1.9169921875 21 -4 c 1
 21 -1.84615384615 17.25 14.3076923077 16 24 c 1
 42.6758974359 31.8 74.4411327476 56.0040512644 78 63 c 0
 135.555555556 176.141538462 191.1339469 297.023858401 226 390 c 0
 229 398 228.25 400 228 415 c 1
 272 415 l 1
 273.5 395 272.714556618 397.912072667 275 391 c 0
 317.863636364 267 349.227272727 166 413 37 c 0
 418.746548116 25.3758349591 440.142857143 21 451 21 c 1
 451 19 455 5 458 -3 c 1
 430.144146125 -0.380859375 391.688941703 1.0947265625 352.567382812 1.0947265625 c 3
 305.810757446 1.0947265625 258.02446553 -1.97302783621 229 -9 c 1
EndSplineSet
EndChar

StartChar: b.pcap
Encoding: 57348 57348 644
Width: 444
VWidth: 1159
Flags: W
HStem: -3 27<63 101.5 199.158 282.264> 206 19<180 244.724> 380 27<64 93.7519 188.586 243.278>
VStem: 112 69<32.2366 168 225 376.759> 272 78<256.992 359.866> 312 78<46.6076 169.261>
AnchorPoint: "Bottom" 218 -15 basechar 0
AnchorPoint: "Top" 213 465 basechar 0
LayerCount: 2
Fore
SplineSet
61 22 m 1xf4
 73 23 106 25 108 55 c 0
 110 56 112 106 112 168 c 3
 112 255.721679688 107 331.956054688 107 333 c 0
 106 358 105 372 94 377 c 0
 89 378 65 381 60 382 c 1
 64 407 l 1
 72 407 104 401 136 401 c 3
 166 401 207 407 236 407 c 3
 315 407 350 342 350 305 c 3xf8
 350 265 302 229 280 222 c 1
 340 209.672851562 390 166.52734375 390 109 c 1
 390 41.5927734375 330 -3 239 -3 c 3
 209 -3 171 1 138 1 c 3
 103 1 69 -2 63 -2 c 1
 61 22 l 1xf4
226 226 m 0
 252 230 272 256 272 290 c 3
 272 316 257 380 216 380 c 3
 214 380 202 379 200 379 c 0
 187 376 188 361 186 351 c 0
 181 288 181 227 180 225 c 1
 221 225 225 225 226 226 c 0
215 205 m 3
 212.171572875 205 167 206 179 206 c 1
 179 154.27734375 179 104.666992188 181 73 c 0
 182 45 185 37 199 32 c 0
 202 30 229 24 237 24 c 3
 286 24 312 55.599609375 312 103 c 3xf4
 312 154.515625 285 205 215 205 c 3
EndSplineSet
Validated: 37
EndChar

StartChar: c.pcap
Encoding: 57349 57349 645
Width: 500
VWidth: 1159
Flags: W
HStem: -6 29<245.082 356.638> 301 101<393 438> 387 27<231.619 347.46>
VStem: 56 86<120.275 291.515> 393 24<302.184 348.314> 422 21<91.7148 107>
AnchorPoint: "Bottom" 287 -15 basechar 0
AnchorPoint: "Top" 298 465 basechar 0
LayerCount: 2
Fore
SplineSet
56 200 m 3xbc
 56 304.921875 136 414 307 414 c 3xbc
 333 414 357 414 387 405 c 0
 416 397 425 402 438 402 c 1
 457 391 l 1
 430 357 418 338 417 319 c 0
 416 300 412 301 393 301 c 1xdc
 391 317 391 344 372 359 c 0
 345 377 325 387 292 387 c 3
 208 387 142 324.090820312 142 214 c 3
 142 96 227 23 304 23 c 3
 354 23 397 57 422 111 c 1
 443 105 l 1
 438 73 435 60 429 27 c 1
 392 9 339 -6 286 -6 c 3
 174 -6 56 73 56 200 c 3xbc
EndSplineSet
Validated: 33
EndChar

StartChar: d.pcap
Encoding: 57350 57350 646
Width: 560
VWidth: 1159
Flags: W
HStem: -5 29<62 100.639 167.023 325.741> 384 25<60 94.3433 192.381 307.805>
VStem: 106.984 72.0158<33.7617 374.573> 421 83<108.01 292.458>
AnchorPoint: "Bottom" 258 -15 basechar 0
AnchorPoint: "Top" 269 465 basechar 0
LayerCount: 2
Fore
SplineSet
242 24 m 3
 362 24 421 89.1845703125 421 203 c 3
 421 311.599609375 342 384 244 384 c 3
 232 384 217 380 196 373 c 0
 182.416922293 368.472307431 181 361 181 351 c 0
 179.029670691 281.781279512 176.627986095 224.265598663 176.627986095 163.376149987 c 3
 176.627986095 131.556047419 177.283882181 98.8145744436 179 63 c 0
 179 53 182.976943523 42.5115282384 196 36 c 0
 208 30 223 24 242 24 c 3
60 404 m 1
 85 403 111 401 136 401 c 3
 186 401 213 409 263 409 c 3
 426 409 504 303.909179688 504 205 c 3
 504 42.3525390625 365 -5 249 -5 c 3
 207 -5 183 -1 140 -1 c 3
 96 -1 81 -4 62 -7 c 1
 61 18 l 1
 90 20 100.387381387 18.5856776998 103 54 c 0
 105.781598043 91.7048563991 106.984157786 136.983545335 106.984157786 181.330678414 c 3
 106.984157786 248.584835938 104.218401957 313.696516917 100 347 c 0
 96 378 98 376 60 378 c 1
 60 404 l 1
EndSplineSet
Validated: 1
EndChar

StartChar: e.pcap
Encoding: 57351 57351 647
Width: 468
VWidth: 1159
Flags: HW
HStem: -6 23<67.1739 93.9636> -0.384672 26.9515<195.945 319.04> 192 24<177 317.415> 385 19<63 93.1367>
VStem: 110.134 66.8664<38.1614 192 216 368.351> 339 23<135.174 172.751> 358 20<303 348.27> 397 19<105.592 116.842>
AnchorPoint: "Bottom" 243 -15 basechar 0
AnchorPoint: "Top" 243 465 basechar 0
LayerCount: 2
Fore
SplineSet
63 404 m 1xbd
 103.716719432 402.132260577 156.294170747 401.38082533 207.075831097 401.38082533 c 3
 292.238349339 401.38082533 372.35031404 403.494191539 383 406 c 1
 390.208111566 399.821618658 392.821397686 394.350133538 392.821397686 386.87609291 c 3
 392.821397686 372.575379949 383.254052737 350.943231223 378 303 c 1
 358 301 l 1xbb
 353 312 362 342 339 359 c 0
 323.391176948 369.405882035 289.594297724 375.159005515 255.490292348 375.159005515 c 0
 237.156255068 375.159005515 218.733456777 373.496323728 203 370 c 0
 194 369 187 359 187 351 c 0
 182 303.595703125 178 259.282226562 177 216 c 1
 213 216 281 217 295 220 c 0
 325 225 330 238 341 267 c 1
 362 263 l 1
 357.43132713 246.552777669 355.576114593 226.348456416 355.576114593 205.820027424 c 3
 355.576114593 181.41543193 358.198071009 156.552777669 362 137 c 1
 339 131 l 1
 327 188 327 180 294 186 c 0
 268 193 229 192 177 192 c 1
 177 135.8046875 177 88.8046875 189 51 c 0
 191 43 196 38 205 36 c 0
 228.90497088 30.8440258887 248.196177712 26.5668639769 266.889851974 26.5668639769 c 3
 288.078150051 26.5668639769 308.498796122 32.0617475763 334 48 c 0
 373 73 376 85 397 120 c 1
 416 115 l 1
 407 75 398 33 391 -4 c 1
 327.763113226 -2.83969015085 258.690885532 -0.384671863407 194.928927487 -0.384671863407 c 3x7d
 147.722224945 -0.384671863407 103.918409428 -1.74165738677 69 -6 c 1
 63 17 l 1
 92 24 101 27 105 53 c 1
 108.66076927 73.893146043 110.133582353 141.57388693 110.133582353 207.545044419 c 3
 110.133582353 267.721717716 108.908131846 326.475936346 107 347 c 0
 105 375 99 376 60 385 c 1
 63 404 l 1xbd
EndSplineSet
EndChar

StartChar: f.pcap
Encoding: 57352 57352 648
Width: 439
VWidth: 1159
Flags: W
HStem: -6 23<72.1739 94.6323> 189 28<184 307.35> 381 21<64 97.5596> 394 20G<363.972 372.887>
VStem: 116.138 66.8616<36.4442 189 217 370.948> 329 23<133.174 169.278> 358 21<305 337.985>
AnchorPoint: "Bottom" 168 -15 basechar 0
AnchorPoint: "Top" 231 465 basechar 0
LayerCount: 2
Fore
SplineSet
257 -9 m 1xde
 225.3281573 -1.08203932499 196.72135955 2.65631459995 165.884572849 2.65631459995 c 3
 138.30331234 2.65631459995 108.93806067 -0.334368540005 74 -6 c 1
 68 17 l 1
 96 25 111 34 114 67 c 1
 115.392304845 83.6587099277 116.138438763 136.543798164 116.138438763 192.542328907 c 3
 116.138438763 257.203862505 115.143593539 326.016652779 113 348 c 0
 111 369 98 373 60 381 c 1
 64 402 l 1xee
 97.6728004421 400.426504652 139.664583252 399.546257835 181.498092776 399.546257835 c 3
 272.596369746 399.546257835 362.944097209 403.720486043 365 414 c 1
 380.774414062 406.60546875 385 398 385 383 c 3
 385 367 380.521484375 343.536132812 379 305 c 1
 358 303 l 1
 352 320 353 346 328 358 c 0
 291 376 241 377 200 371 c 0
 191 370 189 362 189 352 c 0
 185 305.625976562 184 259.251953125 184 217 c 1
 213 217 278 220 286 221 c 0
 314 226 321 248 332 271 c 1
 354 267 l 1
 348.852299546 247.953508322 346.619469288 223.342264451 346.619469288 198.895403866 c 3
 346.619469288 175.851426929 348.603390318 152.953508322 352 135 c 1
 329 129 l 1
 318 179 315 183 286 187 c 0
 259 192 238 191 183 189 c 1
 186 129.5 185 99.75 190 70 c 0
 195 41 197 26 261 26 c 1
 257 -9 l 1xde
EndSplineSet
Validated: 33
EndChar

